<?xml version="1.0" encoding="utf-8" ?>
<svg baseProfile="full" height="100%" version="1.1" viewBox="-15765.0,-15765.0,31530.0,31530.0" width="100%" xmlns="http://www.w3.org/2000/svg" xmlns:ev="http://www.w3.org/2001/xml-events" xmlns:xlink="http://www.w3.org/1999/xlink"><defs /><path d="M -2.8289341060303857e-14 -154.0 C 153.99999999999997 -154.00000000000003 187.5 -187.5 187.5 0.0" fill="none" stroke="black" stroke-width="4.5" /><path d="M -2.8289341060303857e-14 -154.0 C 153.99999999999997 -154.00000000000003 488.99999999999994 -489.0 489.0 0.0" fill="none" stroke="black" stroke-width="4.5" /><path d="M -2.8289341060303857e-14 -154.0 C 153.99999999999997 -154.00000000000003 2063.5 -2063.5 2063.5 0.0" fill="none" stroke="black" stroke-width="4.5" /><path d="M -1.329047938774665e-13 -723.5 C 723.4999999999999 -723.5000000000002 7758.499999999999 -7758.5 7758.5 0.0" fill="none" stroke="black" stroke-width="4.5" /><path d="M -1.329047938774665e-13 -723.5 C 723.4999999999999 -723.5000000000002 13721.5 -13721.5 13721.5 0.0" fill="none" stroke="black" stroke-width="4.5" /><path d="M 187.5 0.0 C 187.5 187.5 355.0 355.0 2.173748068486552e-14 355.0" fill="none" stroke="black" stroke-width="4.5" /><path d="M 1092.0 0.0 C 1092.0 1092.0 355.0 354.99999999999994 2.173748068486552e-14 355.0" fill="none" stroke="black" stroke-width="4.5" /><path d="M 489.0 0.0 C 489.00000000000006 489.0 355.0 355.0 2.173748068486552e-14 355.0" fill="none" stroke="black" stroke-width="4.5" /><path d="M 1092.0 0.0 C 1092.0 1092.0 5480.5 5480.5 3.3558383913635345e-13 5480.5" fill="none" stroke="black" stroke-width="4.5" /><path d="M 2063.5 0.0 C 2063.5 2063.5 355.0 355.0 2.173748068486552e-14 355.0" fill="none" stroke="black" stroke-width="4.5" /><path d="M 3035.0 0.0 C 3035.0 3035.0 991.5000000000001 991.4999999999999 6.071186506773003e-14 991.5" fill="none" stroke="black" stroke-width="4.5" /><path d="M 3772.0 0.0 C 3772.0000000000005 3772.0 991.5000000000001 991.4999999999999 6.071186506773003e-14 991.5" fill="none" stroke="black" stroke-width="4.5" /><path d="M 3035.0 0.0 C 3035.0 3035.0 6753.5 6753.5 4.135326079020825e-13 6753.5" fill="none" stroke="black" stroke-width="4.5" /><path d="M 3772.0 0.0 C 3772.0000000000005 3772.0 6753.5 6753.5 4.135326079020825e-13 6753.5" fill="none" stroke="black" stroke-width="4.5" /><path d="M 489.0 0.0 C 489.00000000000006 489.0 2700.0 2699.9999999999995 1.6532731788489268e-13 2700.0" fill="none" stroke="black" stroke-width="4.5" /><path d="M 3035.0 0.0 C 3035.0 3035.0 2700.0 2699.9999999999995 1.6532731788489268e-13 2700.0" fill="none" stroke="black" stroke-width="4.5" /><path d="M 11410.0 0.0 C 11410.0 11410.0 3805.5000000000005 3805.4999999999995 2.330196697077626e-13 3805.5" fill="none" stroke="black" stroke-width="4.5" /><path d="M 3035.0 0.0 C 3035.0 3035.0 3805.5000000000005 3805.4999999999995 2.330196697077626e-13 3805.5" fill="none" stroke="black" stroke-width="4.5" /><path d="M 11778.5 0.0 C 11778.5 11778.5 3805.5000000000005 3805.4999999999995 2.330196697077626e-13 3805.5" fill="none" stroke="black" stroke-width="4.5" /><path d="M 7758.5 0.0 C 7758.500000000001 7758.5 4676.5 4676.499999999999 2.8635303781062987e-13 4676.5" fill="none" stroke="black" stroke-width="4.5" /><path d="M 5078.5 0.0 C 5078.5 5078.5 5112.0 5112.0 3.130197218620635e-13 5112.0" fill="none" stroke="black" stroke-width="4.5" /><path d="M 5916.0 0.0 C 5916.0 5916.0 6418.5 6418.5 3.930197740163643e-13 6418.5" fill="none" stroke="black" stroke-width="4.5" /><path d="M 7758.5 0.0 C 7758.500000000001 7758.5 1460.5 1460.5 8.942983250773546e-14 1460.5" fill="none" stroke="black" stroke-width="4.5" /><path d="M 7758.5 0.0 C 7758.500000000001 7758.5 2030.0000000000002 2030.0 1.2430165011345635e-13 2030.0" fill="none" stroke="black" stroke-width="4.5" /><path d="M 7758.5 0.0 C 7758.500000000001 7758.5 3805.5000000000005 3805.5 2.330196697077626e-13 3805.5" fill="none" stroke="black" stroke-width="4.5" /><path d="M 7758.5 0.0 C 7758.500000000001 7758.5 6418.5 6418.5 3.930197740163643e-13 6418.5" fill="none" stroke="black" stroke-width="4.5" /><path d="M 7758.5 0.0 C 7758.500000000001 7758.5 6753.5 6753.5 4.135326079020825e-13 6753.5" fill="none" stroke="black" stroke-width="4.5" /><path d="M 7758.5 0.0 C 7758.500000000001 7758.5 5112.0 5112.0 3.130197218620635e-13 5112.0" fill="none" stroke="black" stroke-width="4.5" /><path d="M 7758.5 0.0 C 7758.500000000001 7758.5 7122.0 7122.0 4.360967251763725e-13 7122.0" fill="none" stroke="black" stroke-width="4.5" /><path d="M 9232.5 0.0 C 9232.5 9232.5 355.0 355.0 2.173748068486552e-14 355.0" fill="none" stroke="black" stroke-width="4.5" /><path d="M 9232.5 0.0 C 9232.5 9232.5 5480.5 5480.5 3.3558383913635345e-13 5480.5" fill="none" stroke="black" stroke-width="4.5" /><path d="M 10137.0 0.0 C 10137.0 10137.0 3805.5000000000005 3805.5 2.330196697077626e-13 3805.5" fill="none" stroke="black" stroke-width="4.5" /><path d="M 10137.0 0.0 C 10137.0 10137.0 6753.5 6753.5 4.135326079020825e-13 6753.5" fill="none" stroke="black" stroke-width="4.5" /><path d="M 10137.0 0.0 C 10137.0 10137.0 5112.0 5112.0 3.130197218620635e-13 5112.0" fill="none" stroke="black" stroke-width="4.5" /><path d="M 10137.0 0.0 C 10137.0 10137.0 7122.0 7122.0 4.360967251763725e-13 7122.0" fill="none" stroke="black" stroke-width="4.5" /><path d="M 10907.5 0.0 C 10907.5 10907.5 5480.5 5480.5 3.3558383913635345e-13 5480.5" fill="none" stroke="black" stroke-width="4.5" /><path d="M 1092.0 0.0 C 1092.0 1092.0 5949.5 5949.499999999999 3.643018065763589e-13 5949.5" fill="none" stroke="black" stroke-width="4.5" /><path d="M 3035.0 0.0 C 3035.0 3035.0 5949.5 5949.499999999999 3.643018065763589e-13 5949.5" fill="none" stroke="black" stroke-width="4.5" /><path d="M 11778.5 0.0 C 11778.5 11778.5 5949.5 5949.499999999999 3.643018065763589e-13 5949.5" fill="none" stroke="black" stroke-width="4.5" /><path d="M 11410.0 0.0 C 11410.0 11410.0 6753.5 6753.5 4.135326079020825e-13 6753.5" fill="none" stroke="black" stroke-width="4.5" /><path d="M 11410.0 0.0 C 11410.0 11410.0 7122.0 7122.0 4.360967251763725e-13 7122.0" fill="none" stroke="black" stroke-width="4.5" /><path d="M 9232.5 0.0 C 9232.5 9232.5 6753.5 6753.499999999999 4.135326079020825e-13 6753.5" fill="none" stroke="black" stroke-width="4.5" /><path d="M 13721.5 0.0 C 13721.5 13721.5 991.5000000000001 991.5 6.071186506773003e-14 991.5" fill="none" stroke="black" stroke-width="4.5" /><path d="M 13721.5 0.0 C 13721.5 13721.5 1460.5 1460.5 8.942983250773546e-14 1460.5" fill="none" stroke="black" stroke-width="4.5" /><path d="M 13721.5 0.0 C 13721.5 13721.5 2030.0000000000002 2030.0 1.2430165011345635e-13 2030.0" fill="none" stroke="black" stroke-width="4.5" /><path d="M 13721.5 0.0 C 13721.5 13721.5 355.0 355.0 2.173748068486552e-14 355.0" fill="none" stroke="black" stroke-width="4.5" /><path d="M 13721.5 0.0 C 13721.5 13721.5 3805.5000000000005 3805.5 2.330196697077626e-13 3805.5" fill="none" stroke="black" stroke-width="4.5" /><path d="M 13721.5 0.0 C 13721.5 13721.5 5112.0 5112.0 3.130197218620635e-13 5112.0" fill="none" stroke="black" stroke-width="4.5" /><path d="M 2.173748068486552e-14 355.0 C -355.0 355.00000000000006 -1125.5 1125.5000000000002 -1125.5 1.378339972440346e-13" fill="none" stroke="black" stroke-width="4.5" /><path d="M 6.071186506773003e-14 991.5 C -991.4999999999999 991.5000000000001 -2432.0 2432.0000000000005 -2432.0 2.978341015526363e-13" fill="none" stroke="black" stroke-width="4.5" /><path d="M 6.071186506773003e-14 991.5 C -991.4999999999999 991.5000000000001 -3671.5 3671.5000000000005 -3671.5 4.4962907230695074e-13" fill="none" stroke="black" stroke-width="4.5" /><path d="M 6.071186506773003e-14 991.5 C -991.4999999999999 991.5000000000001 -5246.0 5246.000000000001 -5246.0 6.424497108327014e-13" fill="none" stroke="black" stroke-width="4.5" /><path d="M 6.071186506773003e-14 991.5 C -991.4999999999999 991.5000000000001 -6820.5 6820.500000000001 -6820.5 8.352703493584523e-13" fill="none" stroke="black" stroke-width="4.5" /><path d="M 1.2430165011345635e-13 2030.0 C -2029.9999999999998 2030.0000000000002 -2431.9999999999995 2432.0000000000005 -2432.0 2.978341015526363e-13" fill="none" stroke="black" stroke-width="4.5" /><path d="M 2.8635303781062987e-13 4676.5 C -4676.5 4676.500000000001 -2431.9999999999995 2432.0000000000005 -2432.0 2.978341015526363e-13" fill="none" stroke="black" stroke-width="4.5" /><path d="M 2.330196697077626e-13 3805.5 C -3805.4999999999995 3805.5000000000005 -2431.9999999999995 2432.0000000000005 -2432.0 2.978341015526363e-13" fill="none" stroke="black" stroke-width="4.5" /><path d="M 1.2430165011345635e-13 2030.0 C -2029.9999999999998 2030.0000000000002 -3671.4999999999995 3671.5000000000005 -3671.5 4.4962907230695074e-13" fill="none" stroke="black" stroke-width="4.5" /><path d="M 2.330196697077626e-13 3805.5 C -3805.4999999999995 3805.5000000000005 -3671.4999999999995 3671.5000000000005 -3671.5 4.4962907230695074e-13" fill="none" stroke="black" stroke-width="4.5" /><path d="M 1.2430165011345635e-13 2030.0 C -2029.9999999999998 2030.0000000000002 -5245.999999999999 5246.000000000001 -5246.0 6.424497108327014e-13" fill="none" stroke="black" stroke-width="4.5" /><path d="M 2.330196697077626e-13 3805.5 C -3805.4999999999995 3805.5000000000005 -5245.999999999999 5246.000000000001 -5246.0 6.424497108327014e-13" fill="none" stroke="black" stroke-width="4.5" /><path d="M 3.130197218620635e-13 5112.0 C -5112.0 5112.000000000001 -5245.999999999999 5246.000000000001 -5246.0 6.424497108327014e-13" fill="none" stroke="black" stroke-width="4.5" /><path d="M 4.360967251763725e-13 7122.0 C -7122.0 7122.000000000001 -5245.999999999999 5246.000000000001 -5246.0 6.424497108327014e-13" fill="none" stroke="black" stroke-width="4.5" /><path d="M 1.6532731788489268e-13 2700.0 C -2700.0 2700.0000000000005 -7523.999999999999 7524.000000000001 -7524.0 9.214242516784686e-13" fill="none" stroke="black" stroke-width="4.5" /><path d="M 2.330196697077626e-13 3805.5 C -3805.4999999999995 3805.5000000000005 -2432.0 2432.0000000000005 -2432.0 2.978341015526363e-13" fill="none" stroke="black" stroke-width="4.5" /><path d="M 2.330196697077626e-13 3805.5 C -3805.4999999999995 3805.5000000000005 -3671.5 3671.5000000000005 -3671.5 4.4962907230695074e-13" fill="none" stroke="black" stroke-width="4.5" /><path d="M 2.330196697077626e-13 3805.5 C -3805.4999999999995 3805.5000000000005 -5246.0 5246.000000000001 -5246.0 6.424497108327014e-13" fill="none" stroke="black" stroke-width="4.5" /><path d="M 2.330196697077626e-13 3805.5 C -3805.4999999999995 3805.5000000000005 -9500.5 9500.500000000002 -9500.5 1.163475691529943e-12" fill="none" stroke="black" stroke-width="4.5" /><path d="M 1.2430165011345635e-13 2030.0 C -2029.9999999999998 2030.0000000000002 -8461.999999999998 8462.000000000002 -8462.0 1.0362961214384902e-12" fill="none" stroke="black" stroke-width="4.5" /><path d="M 2.8635303781062987e-13 4676.5 C -4676.5 4676.500000000001 -8461.999999999998 8462.000000000002 -8462.0 1.0362961214384902e-12" fill="none" stroke="black" stroke-width="4.5" /><path d="M 2.330196697077626e-13 3805.5 C -3805.4999999999995 3805.5000000000005 -8461.999999999998 8462.000000000002 -8462.0 1.0362961214384902e-12" fill="none" stroke="black" stroke-width="4.5" /><path d="M 3.130197218620635e-13 5112.0 C -5112.0 5112.000000000001 -8461.999999999998 8462.000000000002 -8462.0 1.0362961214384902e-12" fill="none" stroke="black" stroke-width="4.5" /><path d="M 2.8635303781062987e-13 4676.5 C -4676.5 4676.500000000001 -2432.0 2432.0000000000005 -2432.0 2.978341015526363e-13" fill="none" stroke="black" stroke-width="4.5" /><path d="M 2.8635303781062987e-13 4676.5 C -4676.5 4676.500000000001 -11074.999999999998 11075.000000000002 -11075.0 1.3562963300556937e-12" fill="none" stroke="black" stroke-width="4.5" /><path d="M 8.942983250773546e-14 1460.5 C -1460.5 1460.5000000000002 -12046.499999999998 12046.500000000002 -12046.5 1.475270766592859e-12" fill="none" stroke="black" stroke-width="4.5" /><path d="M 1.2430165011345635e-13 2030.0 C -2029.9999999999998 2030.0000000000002 -12046.499999999998 12046.500000000002 -12046.5 1.475270766592859e-12" fill="none" stroke="black" stroke-width="4.5" /><path d="M 2.173748068486552e-14 355.0 C -355.0 355.00000000000006 -12046.499999999998 12046.500000000002 -12046.5 1.475270766592859e-12" fill="none" stroke="black" stroke-width="4.5" /><path d="M 2.330196697077626e-13 3805.5 C -3805.4999999999995 3805.5000000000005 -12046.499999999998 12046.500000000002 -12046.5 1.475270766592859e-12" fill="none" stroke="black" stroke-width="4.5" /><path d="M 3.130197218620635e-13 5112.0 C -5112.0 5112.000000000001 -12046.499999999998 12046.500000000002 -12046.5 1.475270766592859e-12" fill="none" stroke="black" stroke-width="4.5" /><path d="M 2.330196697077626e-13 3805.5 C -3805.4999999999995 3805.5000000000005 -13252.499999999998 13252.500000000002 -13252.5 1.6229631705700298e-12" fill="none" stroke="black" stroke-width="4.5" /><path d="M 3.643018065763589e-13 5949.5 C -5949.5 5949.500000000001 -13252.499999999998 13252.500000000002 -13252.5 1.6229631705700298e-12" fill="none" stroke="black" stroke-width="4.5" /><path d="M 3.930197740163643e-13 6418.5 C -6418.5 6418.500000000001 -13252.499999999998 13252.500000000002 -13252.5 1.6229631705700298e-12" fill="none" stroke="black" stroke-width="4.5" /><path d="M 3.643018065763589e-13 5949.5 C -5949.5 5949.500000000001 -254.49999999999997 254.50000000000003 -254.5 3.116726103830014e-14" fill="none" stroke="black" stroke-width="4.5" /><path d="M 3.643018065763589e-13 5949.5 C -5949.5 5949.500000000001 -12046.5 12046.500000000002 -12046.5 1.475270766592859e-12" fill="none" stroke="black" stroke-width="4.5" /><path d="M 3.643018065763589e-13 5949.5 C -5949.5 5949.500000000001 -1125.5 1125.5000000000002 -1125.5 1.378339972440346e-13" fill="none" stroke="black" stroke-width="4.5" /><path d="M 1.2430165011345635e-13 2030.0 C -2029.9999999999998 2030.0000000000002 -14056.499999999998 14056.500000000002 -14056.5 1.721424773221477e-12" fill="none" stroke="black" stroke-width="4.5" /><path d="M 2.330196697077626e-13 3805.5 C -3805.4999999999995 3805.5000000000005 -14056.499999999998 14056.500000000002 -14056.5 1.721424773221477e-12" fill="none" stroke="black" stroke-width="4.5" /><path d="M 3.643018065763589e-13 5949.5 C -5949.5 5949.500000000001 -14056.499999999998 14056.500000000002 -14056.5 1.721424773221477e-12" fill="none" stroke="black" stroke-width="4.5" /><path d="M 4.135326079020825e-13 6753.5 C -6753.5 6753.500000000001 -14659.5 14659.500000000002 -14659.5 1.7952709752100625e-12" fill="none" stroke="black" stroke-width="4.5" /><path d="M 2.330196697077626e-13 3805.5 C -3805.4999999999995 3805.5000000000005 -14659.499999999998 14659.500000000002 -14659.5 1.7952709752100625e-12" fill="none" stroke="black" stroke-width="4.5" /><path d="M 3.130197218620635e-13 5112.0 C -5112.0 5112.000000000001 -14659.499999999998 14659.500000000002 -14659.5 1.7952709752100625e-12" fill="none" stroke="black" stroke-width="4.5" /><path d="M -1125.5 1.378339972440346e-13 C -1125.5000000000002 -1125.4999999999998 -723.5000000000001 -723.4999999999999 -1.329047938774665e-13 -723.5" fill="none" stroke="black" stroke-width="4.5" /><path d="M -2432.0 2.978341015526363e-13 C -2432.0000000000005 -2431.9999999999995 -723.5000000000001 -723.4999999999999 -1.329047938774665e-13 -723.5" fill="none" stroke="black" stroke-width="4.5" /><path d="M -5246.0 6.424497108327014e-13 C -5246.000000000001 -5245.999999999999 -723.5000000000001 -723.4999999999999 -1.329047938774665e-13 -723.5" fill="none" stroke="black" stroke-width="4.5" /><path d="M -6820.5 8.352703493584523e-13 C -6820.500000000001 -6820.499999999999 -723.5000000000001 -723.4999999999999 -1.329047938774665e-13 -723.5" fill="none" stroke="black" stroke-width="4.5" /><path d="M -8462.0 1.0362961214384902e-12 C -8462.000000000002 -8461.999999999998 -723.5000000000001 -723.4999999999999 -1.329047938774665e-13 -723.5" fill="none" stroke="black" stroke-width="4.5" /><path d="M -10271.0 1.2578347274042465e-12 C -10271.000000000002 -10270.999999999998 -723.5000000000001 -723.4999999999999 -1.329047938774665e-13 -723.5" fill="none" stroke="black" stroke-width="4.5" /><path d="M -14056.5 1.721424773221477e-12 C -14056.500000000002 -14056.499999999998 -723.5000000000001 -723.4999999999998 -1.329047938774665e-13 -723.5" fill="none" stroke="black" stroke-width="4.5" /><path d="M -12046.5 1.475270766592859e-12 C -12046.500000000002 -12046.499999999998 -723.5000000000001 -723.4999999999999 -1.329047938774665e-13 -723.5" fill="none" stroke="black" stroke-width="4.5" /><path d="M -13252.5 1.6229631705700298e-12 C -13252.500000000002 -13252.499999999998 -723.5000000000001 -723.4999999999999 -1.329047938774665e-13 -723.5" fill="none" stroke="black" stroke-width="4.5" /><path d="M -15262.5 1.8691171771986477e-12 C -15262.500000000004 -15262.499999999998 -723.5000000000001 -723.4999999999999 -1.329047938774665e-13 -723.5" fill="none" stroke="black" stroke-width="4.5" /><path d="M -15597.5 1.910142844970084e-12 C -15597.500000000004 -15597.499999999998 -723.5000000000001 -723.4999999999999 -1.329047938774665e-13 -723.5" fill="none" stroke="black" stroke-width="4.5" /><g><line stroke="black" stroke-width="2.1" x1="20.0" x2="14760.0" y1="0.0" y2="0.0" /><g><circle cx="187.5" cy="0.0" fill="blue" fill-opacity="0.65" r="167.5" stroke="blue" stroke-width="0.1" /><text text-anchor="middle" transform="translate(187.5, 0.0) scale(6.5) rotate(-90)">01P1</text></g><g><circle cx="489.0" cy="0.0" fill="blue" fill-opacity="0.65" r="134.0" stroke="blue" stroke-width="0.1" /><text text-anchor="middle" transform="translate(489.0, 0.0) scale(6.5) rotate(-90)">01P2</text></g><g><circle cx="1092.0" cy="0.0" fill="blue" fill-opacity="0.65" r="469.0" stroke="blue" stroke-width="0.1" /><text text-anchor="middle" transform="translate(1092.0, 0.0) scale(6.5) rotate(-90)">06P2</text></g><g><circle cx="2063.5" cy="0.0" fill="blue" fill-opacity="0.65" r="502.5" stroke="blue" stroke-width="0.1" /><text text-anchor="middle" transform="translate(2063.5, 0.0) scale(6.5) rotate(-90)">01P3</text></g><g><circle cx="3035.0" cy="0.0" fill="blue" fill-opacity="0.65" r="469.0" stroke="blue" stroke-width="0.1" /><text text-anchor="middle" transform="translate(3035.0, 0.0) scale(6.5) rotate(-90)">10P4</text></g><g><circle cx="3772.0" cy="0.0" fill="blue" fill-opacity="0.65" r="268.0" stroke="blue" stroke-width="0.1" /><text text-anchor="middle" transform="translate(3772.0, 0.0) scale(6.5) rotate(-90)">12P2</text></g><g><circle cx="4375.0" cy="0.0" fill="blue" fill-opacity="0.65" r="335.0" stroke="blue" stroke-width="0.1" /><text text-anchor="middle" transform="translate(4375.0, 0.0) scale(6.5) rotate(-90)">12P4</text></g><g><circle cx="5078.5" cy="0.0" fill="blue" fill-opacity="0.65" r="368.5" stroke="blue" stroke-width="0.1" /><text text-anchor="middle" transform="translate(5078.5, 0.0) scale(6.5) rotate(-90)">13P3</text></g><g><circle cx="5916.0" cy="0.0" fill="blue" fill-opacity="0.65" r="469.0" stroke="blue" stroke-width="0.1" /><text text-anchor="middle" transform="translate(5916.0, 0.0) scale(6.5) rotate(-90)">16P2</text></g><g><circle cx="6519.0" cy="0.0" fill="blue" fill-opacity="0.65" r="134.0" stroke="blue" stroke-width="0.1" /><text text-anchor="middle" transform="translate(6519.0, 0.0) scale(6.5) rotate(-90)">16P3</text></g><g><circle cx="7758.5" cy="0.0" fill="blue" fill-opacity="0.65" r="1105.5" stroke="blue" stroke-width="0.1" /><text text-anchor="middle" transform="translate(7758.5, 0.0) scale(6.5) rotate(-90)">12P1</text></g><g><circle cx="9232.5" cy="0.0" fill="blue" fill-opacity="0.65" r="368.5" stroke="blue" stroke-width="0.1" /><text text-anchor="middle" transform="translate(9232.5, 0.0) scale(6.5) rotate(-90)">06P1</text></g><g><circle cx="10137.0" cy="0.0" fill="blue" fill-opacity="0.65" r="536.0" stroke="blue" stroke-width="0.1" /><text text-anchor="middle" transform="translate(10137.0, 0.0) scale(6.5) rotate(-90)">10P1</text></g><g><circle cx="10907.5" cy="0.0" fill="blue" fill-opacity="0.65" r="234.5" stroke="blue" stroke-width="0.1" /><text text-anchor="middle" transform="translate(10907.5, 0.0) scale(6.5) rotate(-90)">06P3</text></g><g><circle cx="11209.0" cy="0.0" fill="blue" fill-opacity="0.65" r="67.0" stroke="blue" stroke-width="0.1" /><text text-anchor="middle" transform="translate(11209.0, 0.0) scale(6.5) rotate(-90)">12P3</text></g><g><circle cx="11410.0" cy="0.0" fill="blue" fill-opacity="0.65" r="134.0" stroke="blue" stroke-width="0.1" /><text text-anchor="middle" transform="translate(11410.0, 0.0) scale(6.5) rotate(-90)">10P3</text></g><g><circle cx="11778.5" cy="0.0" fill="blue" fill-opacity="0.65" r="234.5" stroke="blue" stroke-width="0.1" /><text text-anchor="middle" transform="translate(11778.5, 0.0) scale(6.5) rotate(-90)">13P2</text></g><g><circle cx="12147.0" cy="0.0" fill="blue" fill-opacity="0.65" r="134.0" stroke="blue" stroke-width="0.1" /><text text-anchor="middle" transform="translate(12147.0, 0.0) scale(6.5) rotate(-90)">01P4</text></g><g><circle cx="12381.5" cy="0.0" fill="blue" fill-opacity="0.65" r="100.5" stroke="blue" stroke-width="0.1" /><text text-anchor="middle" transform="translate(12381.5, 0.0) scale(6.5) rotate(-90)">06P4</text></g><g><circle cx="12582.5" cy="0.0" fill="blue" fill-opacity="0.65" r="100.5" stroke="blue" stroke-width="0.1" /><text text-anchor="middle" transform="translate(12582.5, 0.0) scale(6.5) rotate(-90)">10P2</text></g><g><circle cx="13721.5" cy="0.0" fill="blue" fill-opacity="0.65" r="1038.5" stroke="blue" stroke-width="0.1" /><text text-anchor="middle" transform="translate(13721.5, 0.0) scale(6.5) rotate(-90)">16P1</text></g><line stroke="black" stroke-width="2.1" x1="20.0" x2="14760.0" y1="0.0" y2="0.0" /><g><circle cx="187.5" cy="0.0" fill="blue" fill-opacity="0.65" r="167.5" stroke="blue" stroke-width="0.1" /><text text-anchor="middle" transform="translate(187.5, 0.0) scale(6.5) rotate(-90)">01P1</text></g><g><circle cx="489.0" cy="0.0" fill="blue" fill-opacity="0.65" r="134.0" stroke="blue" stroke-width="0.1" /><text text-anchor="middle" transform="translate(489.0, 0.0) scale(6.5) rotate(-90)">01P2</text></g><g><circle cx="1092.0" cy="0.0" fill="blue" fill-opacity="0.65" r="469.0" stroke="blue" stroke-width="0.1" /><text text-anchor="middle" transform="translate(1092.0, 0.0) scale(6.5) rotate(-90)">06P2</text></g><g><circle cx="2063.5" cy="0.0" fill="blue" fill-opacity="0.65" r="502.5" stroke="blue" stroke-width="0.1" /><text text-anchor="middle" transform="translate(2063.5, 0.0) scale(6.5) rotate(-90)">01P3</text></g><g><circle cx="3035.0" cy="0.0" fill="blue" fill-opacity="0.65" r="469.0" stroke="blue" stroke-width="0.1" /><text text-anchor="middle" transform="translate(3035.0, 0.0) scale(6.5) rotate(-90)">10P4</text></g><g><circle cx="3772.0" cy="0.0" fill="blue" fill-opacity="0.65" r="268.0" stroke="blue" stroke-width="0.1" /><text text-anchor="middle" transform="translate(3772.0, 0.0) scale(6.5) rotate(-90)">12P2</text></g><g><circle cx="4375.0" cy="0.0" fill="blue" fill-opacity="0.65" r="335.0" stroke="blue" stroke-width="0.1" /><text text-anchor="middle" transform="translate(4375.0, 0.0) scale(6.5) rotate(-90)">12P4</text></g><g><circle cx="5078.5" cy="0.0" fill="blue" fill-opacity="0.65" r="368.5" stroke="blue" stroke-width="0.1" /><text text-anchor="middle" transform="translate(5078.5, 0.0) scale(6.5) rotate(-90)">13P3</text></g><g><circle cx="5916.0" cy="0.0" fill="blue" fill-opacity="0.65" r="469.0" stroke="blue" stroke-width="0.1" /><text text-anchor="middle" transform="translate(5916.0, 0.0) scale(6.5) rotate(-90)">16P2</text></g><g><circle cx="6519.0" cy="0.0" fill="blue" fill-opacity="0.65" r="134.0" stroke="blue" stroke-width="0.1" /><text text-anchor="middle" transform="translate(6519.0, 0.0) scale(6.5) rotate(-90)">16P3</text></g><g><circle cx="7758.5" cy="0.0" fill="blue" fill-opacity="0.65" r="1105.5" stroke="blue" stroke-width="0.1" /><text text-anchor="middle" transform="translate(7758.5, 0.0) scale(6.5) rotate(-90)">12P1</text></g><g><circle cx="9232.5" cy="0.0" fill="blue" fill-opacity="0.65" r="368.5" stroke="blue" stroke-width="0.1" /><text text-anchor="middle" transform="translate(9232.5, 0.0) scale(6.5) rotate(-90)">06P1</text></g><g><circle cx="10137.0" cy="0.0" fill="blue" fill-opacity="0.65" r="536.0" stroke="blue" stroke-width="0.1" /><text text-anchor="middle" transform="translate(10137.0, 0.0) scale(6.5) rotate(-90)">10P1</text></g><g><circle cx="10907.5" cy="0.0" fill="blue" fill-opacity="0.65" r="234.5" stroke="blue" stroke-width="0.1" /><text text-anchor="middle" transform="translate(10907.5, 0.0) scale(6.5) rotate(-90)">06P3</text></g><g><circle cx="11209.0" cy="0.0" fill="blue" fill-opacity="0.65" r="67.0" stroke="blue" stroke-width="0.1" /><text text-anchor="middle" transform="translate(11209.0, 0.0) scale(6.5) rotate(-90)">12P3</text></g><g><circle cx="11410.0" cy="0.0" fill="blue" fill-opacity="0.65" r="134.0" stroke="blue" stroke-width="0.1" /><text text-anchor="middle" transform="translate(11410.0, 0.0) scale(6.5) rotate(-90)">10P3</text></g><g><circle cx="11778.5" cy="0.0" fill="blue" fill-opacity="0.65" r="234.5" stroke="blue" stroke-width="0.1" /><text text-anchor="middle" transform="translate(11778.5, 0.0) scale(6.5) rotate(-90)">13P2</text></g><g><circle cx="12147.0" cy="0.0" fill="blue" fill-opacity="0.65" r="134.0" stroke="blue" stroke-width="0.1" /><text text-anchor="middle" transform="translate(12147.0, 0.0) scale(6.5) rotate(-90)">01P4</text></g><g><circle cx="12381.5" cy="0.0" fill="blue" fill-opacity="0.65" r="100.5" stroke="blue" stroke-width="0.1" /><text text-anchor="middle" transform="translate(12381.5, 0.0) scale(6.5) rotate(-90)">06P4</text></g><g><circle cx="12582.5" cy="0.0" fill="blue" fill-opacity="0.65" r="100.5" stroke="blue" stroke-width="0.1" /><text text-anchor="middle" transform="translate(12582.5, 0.0) scale(6.5) rotate(-90)">10P2</text></g><g><circle cx="13721.5" cy="0.0" fill="blue" fill-opacity="0.65" r="1038.5" stroke="blue" stroke-width="0.1" /><text text-anchor="middle" transform="translate(13721.5, 0.0) scale(6.5) rotate(-90)">16P1</text></g></g><g><line stroke="black" stroke-width="2.1" x1="1.2246467991473533e-15" x2="4.443018587306597e-13" y1="20.0" y2="7256.0" /><g><circle cx="2.173748068486552e-14" cy="355.0" fill="red" fill-opacity="0.65" r="335.0" stroke="red" stroke-width="0.1" /><text text-anchor="middle" transform="translate(2.173748068486552e-14, 355.0) scale(6.5) rotate(0)">05P1</text></g><g><circle cx="6.071186506773003e-14" cy="991.5" fill="red" fill-opacity="0.65" r="301.5" stroke="red" stroke-width="0.1" /><text text-anchor="middle" transform="translate(6.071186506773003e-14, 991.5) scale(6.5) rotate(0)">02P1</text></g><g><circle cx="8.942983250773546e-14" cy="1460.5" fill="red" fill-opacity="0.65" r="167.5" stroke="red" stroke-width="0.1" /><text text-anchor="middle" transform="translate(8.942983250773546e-14, 1460.5) scale(6.5) rotate(0)">03P2</text></g><g><circle cx="1.2430165011345635e-13" cy="2030.0" fill="red" fill-opacity="0.65" r="402.0" stroke="red" stroke-width="0.1" /><text text-anchor="middle" transform="translate(1.2430165011345635e-13, 2030.0) scale(6.5) rotate(0)">03P3</text></g><g><circle cx="1.6532731788489268e-13" cy="2700.0" fill="red" fill-opacity="0.65" r="268.0" stroke="red" stroke-width="0.1" /><text text-anchor="middle" transform="translate(1.6532731788489268e-13, 2700.0) scale(6.5) rotate(0)">03P1</text></g><g><circle cx="1.8584015177061085e-13" cy="3035.0" fill="red" fill-opacity="0.65" r="67.0" stroke="red" stroke-width="0.1" /><text text-anchor="middle" transform="translate(1.8584015177061085e-13, 3035.0) scale(6.5) rotate(0)">03P4</text></g><g><circle cx="2.330196697077626e-13" cy="3805.5" fill="red" fill-opacity="0.65" r="703.5" stroke="red" stroke-width="0.1" /><text text-anchor="middle" transform="translate(2.330196697077626e-13, 3805.5) scale(6.5) rotate(0)">09P1</text></g><g><circle cx="2.8635303781062987e-13" cy="4676.5" fill="red" fill-opacity="0.65" r="167.5" stroke="red" stroke-width="0.1" /><text text-anchor="middle" transform="translate(2.8635303781062987e-13, 4676.5) scale(6.5) rotate(0)">05P2</text></g><g><circle cx="3.130197218620635e-13" cy="5112.0" fill="red" fill-opacity="0.65" r="268.0" stroke="red" stroke-width="0.1" /><text text-anchor="middle" transform="translate(3.130197218620635e-13, 5112.0) scale(6.5) rotate(0)">15P2</text></g><g><circle cx="3.3558383913635345e-13" cy="5480.5" fill="red" fill-opacity="0.65" r="100.5" stroke="red" stroke-width="0.1" /><text text-anchor="middle" transform="translate(3.3558383913635345e-13, 5480.5) scale(6.5) rotate(0)">09P2</text></g><g><circle cx="3.643018065763589e-13" cy="5949.5" fill="red" fill-opacity="0.65" r="368.5" stroke="red" stroke-width="0.1" /><text text-anchor="middle" transform="translate(3.643018065763589e-13, 5949.5) scale(6.5) rotate(0)">09P3</text></g><g><circle cx="3.930197740163643e-13" cy="6418.5" fill="red" fill-opacity="0.65" r="100.5" stroke="red" stroke-width="0.1" /><text text-anchor="middle" transform="translate(3.930197740163643e-13, 6418.5) scale(6.5) rotate(0)">09P4</text></g><g><circle cx="4.135326079020825e-13" cy="6753.5" fill="red" fill-opacity="0.65" r="234.5" stroke="red" stroke-width="0.1" /><text text-anchor="middle" transform="translate(4.135326079020825e-13, 6753.5) scale(6.5) rotate(0)">15P1</text></g><g><circle cx="4.360967251763725e-13" cy="7122.0" fill="red" fill-opacity="0.65" r="134.0" stroke="red" stroke-width="0.1" /><text text-anchor="middle" transform="translate(4.360967251763725e-13, 7122.0) scale(6.5) rotate(0)">15P3</text></g><line stroke="black" stroke-width="2.1" x1="1.2246467991473533e-15" x2="4.443018587306597e-13" y1="20.0" y2="7256.0" /><g><circle cx="2.173748068486552e-14" cy="355.0" fill="red" fill-opacity="0.65" r="335.0" stroke="red" stroke-width="0.1" /><text text-anchor="middle" transform="translate(2.173748068486552e-14, 355.0) scale(6.5) rotate(0)">05P1</text></g><g><circle cx="6.071186506773003e-14" cy="991.5" fill="red" fill-opacity="0.65" r="301.5" stroke="red" stroke-width="0.1" /><text text-anchor="middle" transform="translate(6.071186506773003e-14, 991.5) scale(6.5) rotate(0)">02P1</text></g><g><circle cx="8.942983250773546e-14" cy="1460.5" fill="red" fill-opacity="0.65" r="167.5" stroke="red" stroke-width="0.1" /><text text-anchor="middle" transform="translate(8.942983250773546e-14, 1460.5) scale(6.5) rotate(0)">03P2</text></g><g><circle cx="1.2430165011345635e-13" cy="2030.0" fill="red" fill-opacity="0.65" r="402.0" stroke="red" stroke-width="0.1" /><text text-anchor="middle" transform="translate(1.2430165011345635e-13, 2030.0) scale(6.5) rotate(0)">03P3</text></g><g><circle cx="1.6532731788489268e-13" cy="2700.0" fill="red" fill-opacity="0.65" r="268.0" stroke="red" stroke-width="0.1" /><text text-anchor="middle" transform="translate(1.6532731788489268e-13, 2700.0) scale(6.5) rotate(0)">03P1</text></g><g><circle cx="1.8584015177061085e-13" cy="3035.0" fill="red" fill-opacity="0.65" r="67.0" stroke="red" stroke-width="0.1" /><text text-anchor="middle" transform="translate(1.8584015177061085e-13, 3035.0) scale(6.5) rotate(0)">03P4</text></g><g><circle cx="2.330196697077626e-13" cy="3805.5" fill="red" fill-opacity="0.65" r="703.5" stroke="red" stroke-width="0.1" /><text text-anchor="middle" transform="translate(2.330196697077626e-13, 3805.5) scale(6.5) rotate(0)">09P1</text></g><g><circle cx="2.8635303781062987e-13" cy="4676.5" fill="red" fill-opacity="0.65" r="167.5" stroke="red" stroke-width="0.1" /><text text-anchor="middle" transform="translate(2.8635303781062987e-13, 4676.5) scale(6.5) rotate(0)">05P2</text></g><g><circle cx="3.130197218620635e-13" cy="5112.0" fill="red" fill-opacity="0.65" r="268.0" stroke="red" stroke-width="0.1" /><text text-anchor="middle" transform="translate(3.130197218620635e-13, 5112.0) scale(6.5) rotate(0)">15P2</text></g><g><circle cx="3.3558383913635345e-13" cy="5480.5" fill="red" fill-opacity="0.65" r="100.5" stroke="red" stroke-width="0.1" /><text text-anchor="middle" transform="translate(3.3558383913635345e-13, 5480.5) scale(6.5) rotate(0)">09P2</text></g><g><circle cx="3.643018065763589e-13" cy="5949.5" fill="red" fill-opacity="0.65" r="368.5" stroke="red" stroke-width="0.1" /><text text-anchor="middle" transform="translate(3.643018065763589e-13, 5949.5) scale(6.5) rotate(0)">09P3</text></g><g><circle cx="3.930197740163643e-13" cy="6418.5" fill="red" fill-opacity="0.65" r="100.5" stroke="red" stroke-width="0.1" /><text text-anchor="middle" transform="translate(3.930197740163643e-13, 6418.5) scale(6.5) rotate(0)">09P4</text></g><g><circle cx="4.135326079020825e-13" cy="6753.5" fill="red" fill-opacity="0.65" r="234.5" stroke="red" stroke-width="0.1" /><text text-anchor="middle" transform="translate(4.135326079020825e-13, 6753.5) scale(6.5) rotate(0)">15P1</text></g><g><circle cx="4.360967251763725e-13" cy="7122.0" fill="red" fill-opacity="0.65" r="134.0" stroke="red" stroke-width="0.1" /><text text-anchor="middle" transform="translate(4.360967251763725e-13, 7122.0) scale(6.5) rotate(0)">15P3</text></g></g><g><line stroke="black" stroke-width="2.1" x1="-20.0" x2="-15765.0" y1="2.4492935982947065e-15" y2="1.9306556788558024e-12" /><g><circle cx="-254.5" cy="3.116726103830014e-14" fill="green" fill-opacity="0.65" r="234.5" stroke="green" stroke-width="0.1" /><text text-anchor="middle" transform="translate(-254.5, 3.116726103830014e-14) scale(6.5) rotate(90)">04P4</text></g><g><circle cx="-1125.5" cy="1.378339972440346e-13" fill="green" fill-opacity="0.65" r="636.5" stroke="green" stroke-width="0.1" /><text text-anchor="middle" transform="translate(-1125.5, 1.378339972440346e-13) scale(6.5) rotate(90)">14P2</text></g><g><circle cx="-2432.0" cy="2.978341015526363e-13" fill="green" fill-opacity="0.65" r="670.0" stroke="green" stroke-width="0.1" /><text text-anchor="middle" transform="translate(-2432.0, 2.978341015526363e-13) scale(6.5) rotate(90)">04P3</text></g><g><circle cx="-3671.5" cy="4.4962907230695074e-13" fill="green" fill-opacity="0.65" r="569.5" stroke="green" stroke-width="0.1" /><text text-anchor="middle" transform="translate(-3671.5, 4.4962907230695074e-13) scale(6.5) rotate(90)">11P1</text></g><g><circle cx="-5246.0" cy="6.424497108327014e-13" fill="green" fill-opacity="0.65" r="1005.0" stroke="green" stroke-width="0.1" /><text text-anchor="middle" transform="translate(-5246.0, 6.424497108327014e-13) scale(6.5) rotate(90)">13P1</text></g><g><circle cx="-6820.5" cy="8.352703493584523e-13" fill="green" fill-opacity="0.65" r="569.5" stroke="green" stroke-width="0.1" /><text text-anchor="middle" transform="translate(-6820.5, 8.352703493584523e-13) scale(6.5) rotate(90)">14P4</text></g><g><circle cx="-7524.0" cy="9.214242516784686e-13" fill="green" fill-opacity="0.65" r="134.0" stroke="green" stroke-width="0.1" /><text text-anchor="middle" transform="translate(-7524.0, 9.214242516784686e-13) scale(6.5) rotate(90)">04P2</text></g><g><circle cx="-8462.0" cy="1.0362961214384902e-12" fill="green" fill-opacity="0.65" r="804.0" stroke="green" stroke-width="0.1" /><text text-anchor="middle" transform="translate(-8462.0, 1.0362961214384902e-12) scale(6.5) rotate(90)">04P1</text></g><g><circle cx="-9500.5" cy="1.163475691529943e-12" fill="green" fill-opacity="0.65" r="234.5" stroke="green" stroke-width="0.1" /><text text-anchor="middle" transform="translate(-9500.5, 1.163475691529943e-12) scale(6.5) rotate(90)">14P1</text></g><g><circle cx="-10271.0" cy="1.2578347274042465e-12" fill="green" fill-opacity="0.65" r="536.0" stroke="green" stroke-width="0.1" /><text text-anchor="middle" transform="translate(-10271.0, 1.2578347274042465e-12) scale(6.5) rotate(90)">14P3</text></g><g><circle cx="-11075.0" cy="1.3562963300556937e-12" fill="green" fill-opacity="0.65" r="268.0" stroke="green" stroke-width="0.1" /><text text-anchor="middle" transform="translate(-11075.0, 1.3562963300556937e-12) scale(6.5) rotate(90)">04P5</text></g><g><circle cx="-12046.5" cy="1.475270766592859e-12" fill="green" fill-opacity="0.65" r="703.5" stroke="green" stroke-width="0.1" /><text text-anchor="middle" transform="translate(-12046.5, 1.475270766592859e-12) scale(6.5) rotate(90)">08P1</text></g><g><circle cx="-13252.5" cy="1.6229631705700298e-12" fill="green" fill-opacity="0.65" r="502.5" stroke="green" stroke-width="0.1" /><text text-anchor="middle" transform="translate(-13252.5, 1.6229631705700298e-12) scale(6.5) rotate(90)">07P1</text></g><g><circle cx="-14056.5" cy="1.721424773221477e-12" fill="green" fill-opacity="0.65" r="301.5" stroke="green" stroke-width="0.1" /><text text-anchor="middle" transform="translate(-14056.5, 1.721424773221477e-12) scale(6.5) rotate(90)">07P2</text></g><g><circle cx="-14425.0" cy="1.766553007770057e-12" fill="green" fill-opacity="0.65" r="67.0" stroke="green" stroke-width="0.1" /><text text-anchor="middle" transform="translate(-14425.0, 1.766553007770057e-12) scale(6.5) rotate(90)">08P2</text></g><g><circle cx="-14659.5" cy="1.7952709752100625e-12" fill="green" fill-opacity="0.65" r="167.5" stroke="green" stroke-width="0.1" /><text text-anchor="middle" transform="translate(-14659.5, 1.7952709752100625e-12) scale(6.5) rotate(90)">11P2</text></g><g><circle cx="-14961.0" cy="1.8321940762043552e-12" fill="green" fill-opacity="0.65" r="134.0" stroke="green" stroke-width="0.1" /><text text-anchor="middle" transform="translate(-14961.0, 1.8321940762043552e-12) scale(6.5) rotate(90)">07P3</text></g><g><circle cx="-15262.5" cy="1.8691171771986477e-12" fill="green" fill-opacity="0.65" r="167.5" stroke="green" stroke-width="0.1" /><text text-anchor="middle" transform="translate(-15262.5, 1.8691171771986477e-12) scale(6.5) rotate(90)">14P6</text></g><g><circle cx="-15597.5" cy="1.910142844970084e-12" fill="green" fill-opacity="0.65" r="167.5" stroke="green" stroke-width="0.1" /><text text-anchor="middle" transform="translate(-15597.5, 1.910142844970084e-12) scale(6.5) rotate(90)">14P5</text></g><line stroke="black" stroke-width="2.1" x1="-20.0" x2="-15765.0" y1="2.4492935982947065e-15" y2="1.9306556788558024e-12" /><g><circle cx="-254.5" cy="3.116726103830014e-14" fill="green" fill-opacity="0.65" r="234.5" stroke="green" stroke-width="0.1" /><text text-anchor="middle" transform="translate(-254.5, 3.116726103830014e-14) scale(6.5) rotate(90)">04P4</text></g><g><circle cx="-1125.5" cy="1.378339972440346e-13" fill="green" fill-opacity="0.65" r="636.5" stroke="green" stroke-width="0.1" /><text text-anchor="middle" transform="translate(-1125.5, 1.378339972440346e-13) scale(6.5) rotate(90)">14P2</text></g><g><circle cx="-2432.0" cy="2.978341015526363e-13" fill="green" fill-opacity="0.65" r="670.0" stroke="green" stroke-width="0.1" /><text text-anchor="middle" transform="translate(-2432.0, 2.978341015526363e-13) scale(6.5) rotate(90)">04P3</text></g><g><circle cx="-3671.5" cy="4.4962907230695074e-13" fill="green" fill-opacity="0.65" r="569.5" stroke="green" stroke-width="0.1" /><text text-anchor="middle" transform="translate(-3671.5, 4.4962907230695074e-13) scale(6.5) rotate(90)">11P1</text></g><g><circle cx="-5246.0" cy="6.424497108327014e-13" fill="green" fill-opacity="0.65" r="1005.0" stroke="green" stroke-width="0.1" /><text text-anchor="middle" transform="translate(-5246.0, 6.424497108327014e-13) scale(6.5) rotate(90)">13P1</text></g><g><circle cx="-6820.5" cy="8.352703493584523e-13" fill="green" fill-opacity="0.65" r="569.5" stroke="green" stroke-width="0.1" /><text text-anchor="middle" transform="translate(-6820.5, 8.352703493584523e-13) scale(6.5) rotate(90)">14P4</text></g><g><circle cx="-7524.0" cy="9.214242516784686e-13" fill="green" fill-opacity="0.65" r="134.0" stroke="green" stroke-width="0.1" /><text text-anchor="middle" transform="translate(-7524.0, 9.214242516784686e-13) scale(6.5) rotate(90)">04P2</text></g><g><circle cx="-8462.0" cy="1.0362961214384902e-12" fill="green" fill-opacity="0.65" r="804.0" stroke="green" stroke-width="0.1" /><text text-anchor="middle" transform="translate(-8462.0, 1.0362961214384902e-12) scale(6.5) rotate(90)">04P1</text></g><g><circle cx="-9500.5" cy="1.163475691529943e-12" fill="green" fill-opacity="0.65" r="234.5" stroke="green" stroke-width="0.1" /><text text-anchor="middle" transform="translate(-9500.5, 1.163475691529943e-12) scale(6.5) rotate(90)">14P1</text></g><g><circle cx="-10271.0" cy="1.2578347274042465e-12" fill="green" fill-opacity="0.65" r="536.0" stroke="green" stroke-width="0.1" /><text text-anchor="middle" transform="translate(-10271.0, 1.2578347274042465e-12) scale(6.5) rotate(90)">14P3</text></g><g><circle cx="-11075.0" cy="1.3562963300556937e-12" fill="green" fill-opacity="0.65" r="268.0" stroke="green" stroke-width="0.1" /><text text-anchor="middle" transform="translate(-11075.0, 1.3562963300556937e-12) scale(6.5) rotate(90)">04P5</text></g><g><circle cx="-12046.5" cy="1.475270766592859e-12" fill="green" fill-opacity="0.65" r="703.5" stroke="green" stroke-width="0.1" /><text text-anchor="middle" transform="translate(-12046.5, 1.475270766592859e-12) scale(6.5) rotate(90)">08P1</text></g><g><circle cx="-13252.5" cy="1.6229631705700298e-12" fill="green" fill-opacity="0.65" r="502.5" stroke="green" stroke-width="0.1" /><text text-anchor="middle" transform="translate(-13252.5, 1.6229631705700298e-12) scale(6.5) rotate(90)">07P1</text></g><g><circle cx="-14056.5" cy="1.721424773221477e-12" fill="green" fill-opacity="0.65" r="301.5" stroke="green" stroke-width="0.1" /><text text-anchor="middle" transform="translate(-14056.5, 1.721424773221477e-12) scale(6.5) rotate(90)">07P2</text></g><g><circle cx="-14425.0" cy="1.766553007770057e-12" fill="green" fill-opacity="0.65" r="67.0" stroke="green" stroke-width="0.1" /><text text-anchor="middle" transform="translate(-14425.0, 1.766553007770057e-12) scale(6.5) rotate(90)">08P2</text></g><g><circle cx="-14659.5" cy="1.7952709752100625e-12" fill="green" fill-opacity="0.65" r="167.5" stroke="green" stroke-width="0.1" /><text text-anchor="middle" transform="translate(-14659.5, 1.7952709752100625e-12) scale(6.5) rotate(90)">11P2</text></g><g><circle cx="-14961.0" cy="1.8321940762043552e-12" fill="green" fill-opacity="0.65" r="134.0" stroke="green" stroke-width="0.1" /><text text-anchor="middle" transform="translate(-14961.0, 1.8321940762043552e-12) scale(6.5) rotate(90)">07P3</text></g><g><circle cx="-15262.5" cy="1.8691171771986477e-12" fill="green" fill-opacity="0.65" r="167.5" stroke="green" stroke-width="0.1" /><text text-anchor="middle" transform="translate(-15262.5, 1.8691171771986477e-12) scale(6.5) rotate(90)">14P6</text></g><g><circle cx="-15597.5" cy="1.910142844970084e-12" fill="green" fill-opacity="0.65" r="167.5" stroke="green" stroke-width="0.1" /><text text-anchor="middle" transform="translate(-15597.5, 1.910142844970084e-12) scale(6.5) rotate(90)">14P5</text></g></g><g><line stroke="black" stroke-width="2.1" x1="-3.673940397442059e-15" x2="-2.1290484603176735e-13" y1="-20.0" y2="-1159.0" /><g><circle cx="-2.8289341060303857e-14" cy="-154.0" fill="purple" fill-opacity="0.65" r="134.0" stroke="purple" stroke-width="0.1" /><text text-anchor="middle" transform="translate(-2.8289341060303857e-14, -154.0) scale(6.5) rotate(180)">17P2</text></g><g><circle cx="-1.329047938774665e-13" cy="-723.5" fill="purple" fill-opacity="0.65" r="435.5" stroke="purple" stroke-width="0.1" /><text text-anchor="middle" transform="translate(-1.329047938774665e-13, -723.5) scale(6.5) rotate(180)">17P1</text></g><line stroke="black" stroke-width="2.1" x1="-3.673940397442059e-15" x2="-2.1290484603176735e-13" y1="-20.0" y2="-1159.0" /><g><circle cx="-2.8289341060303857e-14" cy="-154.0" fill="purple" fill-opacity="0.65" r="134.0" stroke="purple" stroke-width="0.1" /><text text-anchor="middle" transform="translate(-2.8289341060303857e-14, -154.0) scale(6.5) rotate(180)">17P2</text></g><g><circle cx="-1.329047938774665e-13" cy="-723.5" fill="purple" fill-opacity="0.65" r="435.5" stroke="purple" stroke-width="0.1" /><text text-anchor="middle" transform="translate(-1.329047938774665e-13, -723.5) scale(6.5) rotate(180)">17P1</text></g></g><g><line stroke="black" stroke-width="2.1" x1="20.0" x2="14760.0" y1="0.0" y2="0.0" /><g><circle cx="187.5" cy="0.0" fill="blue" fill-opacity="0.65" r="167.5" stroke="blue" stroke-width="0.1" /><text text-anchor="middle" transform="translate(187.5, 0.0) scale(6.5) rotate(-90)">01P1</text></g><g><circle cx="489.0" cy="0.0" fill="blue" fill-opacity="0.65" r="134.0" stroke="blue" stroke-width="0.1" /><text text-anchor="middle" transform="translate(489.0, 0.0) scale(6.5) rotate(-90)">01P2</text></g><g><circle cx="1092.0" cy="0.0" fill="blue" fill-opacity="0.65" r="469.0" stroke="blue" stroke-width="0.1" /><text text-anchor="middle" transform="translate(1092.0, 0.0) scale(6.5) rotate(-90)">06P2</text></g><g><circle cx="2063.5" cy="0.0" fill="blue" fill-opacity="0.65" r="502.5" stroke="blue" stroke-width="0.1" /><text text-anchor="middle" transform="translate(2063.5, 0.0) scale(6.5) rotate(-90)">01P3</text></g><g><circle cx="3035.0" cy="0.0" fill="blue" fill-opacity="0.65" r="469.0" stroke="blue" stroke-width="0.1" /><text text-anchor="middle" transform="translate(3035.0, 0.0) scale(6.5) rotate(-90)">10P4</text></g><g><circle cx="3772.0" cy="0.0" fill="blue" fill-opacity="0.65" r="268.0" stroke="blue" stroke-width="0.1" /><text text-anchor="middle" transform="translate(3772.0, 0.0) scale(6.5) rotate(-90)">12P2</text></g><g><circle cx="4375.0" cy="0.0" fill="blue" fill-opacity="0.65" r="335.0" stroke="blue" stroke-width="0.1" /><text text-anchor="middle" transform="translate(4375.0, 0.0) scale(6.5) rotate(-90)">12P4</text></g><g><circle cx="5078.5" cy="0.0" fill="blue" fill-opacity="0.65" r="368.5" stroke="blue" stroke-width="0.1" /><text text-anchor="middle" transform="translate(5078.5, 0.0) scale(6.5) rotate(-90)">13P3</text></g><g><circle cx="5916.0" cy="0.0" fill="blue" fill-opacity="0.65" r="469.0" stroke="blue" stroke-width="0.1" /><text text-anchor="middle" transform="translate(5916.0, 0.0) scale(6.5) rotate(-90)">16P2</text></g><g><circle cx="6519.0" cy="0.0" fill="blue" fill-opacity="0.65" r="134.0" stroke="blue" stroke-width="0.1" /><text text-anchor="middle" transform="translate(6519.0, 0.0) scale(6.5) rotate(-90)">16P3</text></g><g><circle cx="7758.5" cy="0.0" fill="blue" fill-opacity="0.65" r="1105.5" stroke="blue" stroke-width="0.1" /><text text-anchor="middle" transform="translate(7758.5, 0.0) scale(6.5) rotate(-90)">12P1</text></g><g><circle cx="9232.5" cy="0.0" fill="blue" fill-opacity="0.65" r="368.5" stroke="blue" stroke-width="0.1" /><text text-anchor="middle" transform="translate(9232.5, 0.0) scale(6.5) rotate(-90)">06P1</text></g><g><circle cx="10137.0" cy="0.0" fill="blue" fill-opacity="0.65" r="536.0" stroke="blue" stroke-width="0.1" /><text text-anchor="middle" transform="translate(10137.0, 0.0) scale(6.5) rotate(-90)">10P1</text></g><g><circle cx="10907.5" cy="0.0" fill="blue" fill-opacity="0.65" r="234.5" stroke="blue" stroke-width="0.1" /><text text-anchor="middle" transform="translate(10907.5, 0.0) scale(6.5) rotate(-90)">06P3</text></g><g><circle cx="11209.0" cy="0.0" fill="blue" fill-opacity="0.65" r="67.0" stroke="blue" stroke-width="0.1" /><text text-anchor="middle" transform="translate(11209.0, 0.0) scale(6.5) rotate(-90)">12P3</text></g><g><circle cx="11410.0" cy="0.0" fill="blue" fill-opacity="0.65" r="134.0" stroke="blue" stroke-width="0.1" /><text text-anchor="middle" transform="translate(11410.0, 0.0) scale(6.5) rotate(-90)">10P3</text></g><g><circle cx="11778.5" cy="0.0" fill="blue" fill-opacity="0.65" r="234.5" stroke="blue" stroke-width="0.1" /><text text-anchor="middle" transform="translate(11778.5, 0.0) scale(6.5) rotate(-90)">13P2</text></g><g><circle cx="12147.0" cy="0.0" fill="blue" fill-opacity="0.65" r="134.0" stroke="blue" stroke-width="0.1" /><text text-anchor="middle" transform="translate(12147.0, 0.0) scale(6.5) rotate(-90)">01P4</text></g><g><circle cx="12381.5" cy="0.0" fill="blue" fill-opacity="0.65" r="100.5" stroke="blue" stroke-width="0.1" /><text text-anchor="middle" transform="translate(12381.5, 0.0) scale(6.5) rotate(-90)">06P4</text></g><g><circle cx="12582.5" cy="0.0" fill="blue" fill-opacity="0.65" r="100.5" stroke="blue" stroke-width="0.1" /><text text-anchor="middle" transform="translate(12582.5, 0.0) scale(6.5) rotate(-90)">10P2</text></g><g><circle cx="13721.5" cy="0.0" fill="blue" fill-opacity="0.65" r="1038.5" stroke="blue" stroke-width="0.1" /><text text-anchor="middle" transform="translate(13721.5, 0.0) scale(6.5) rotate(-90)">16P1</text></g><line stroke="black" stroke-width="2.1" x1="20.0" x2="14760.0" y1="0.0" y2="0.0" /><g><circle cx="187.5" cy="0.0" fill="blue" fill-opacity="0.65" r="167.5" stroke="blue" stroke-width="0.1" /><text text-anchor="middle" transform="translate(187.5, 0.0) scale(6.5) rotate(-90)">01P1</text></g><g><circle cx="489.0" cy="0.0" fill="blue" fill-opacity="0.65" r="134.0" stroke="blue" stroke-width="0.1" /><text text-anchor="middle" transform="translate(489.0, 0.0) scale(6.5) rotate(-90)">01P2</text></g><g><circle cx="1092.0" cy="0.0" fill="blue" fill-opacity="0.65" r="469.0" stroke="blue" stroke-width="0.1" /><text text-anchor="middle" transform="translate(1092.0, 0.0) scale(6.5) rotate(-90)">06P2</text></g><g><circle cx="2063.5" cy="0.0" fill="blue" fill-opacity="0.65" r="502.5" stroke="blue" stroke-width="0.1" /><text text-anchor="middle" transform="translate(2063.5, 0.0) scale(6.5) rotate(-90)">01P3</text></g><g><circle cx="3035.0" cy="0.0" fill="blue" fill-opacity="0.65" r="469.0" stroke="blue" stroke-width="0.1" /><text text-anchor="middle" transform="translate(3035.0, 0.0) scale(6.5) rotate(-90)">10P4</text></g><g><circle cx="3772.0" cy="0.0" fill="blue" fill-opacity="0.65" r="268.0" stroke="blue" stroke-width="0.1" /><text text-anchor="middle" transform="translate(3772.0, 0.0) scale(6.5) rotate(-90)">12P2</text></g><g><circle cx="4375.0" cy="0.0" fill="blue" fill-opacity="0.65" r="335.0" stroke="blue" stroke-width="0.1" /><text text-anchor="middle" transform="translate(4375.0, 0.0) scale(6.5) rotate(-90)">12P4</text></g><g><circle cx="5078.5" cy="0.0" fill="blue" fill-opacity="0.65" r="368.5" stroke="blue" stroke-width="0.1" /><text text-anchor="middle" transform="translate(5078.5, 0.0) scale(6.5) rotate(-90)">13P3</text></g><g><circle cx="5916.0" cy="0.0" fill="blue" fill-opacity="0.65" r="469.0" stroke="blue" stroke-width="0.1" /><text text-anchor="middle" transform="translate(5916.0, 0.0) scale(6.5) rotate(-90)">16P2</text></g><g><circle cx="6519.0" cy="0.0" fill="blue" fill-opacity="0.65" r="134.0" stroke="blue" stroke-width="0.1" /><text text-anchor="middle" transform="translate(6519.0, 0.0) scale(6.5) rotate(-90)">16P3</text></g><g><circle cx="7758.5" cy="0.0" fill="blue" fill-opacity="0.65" r="1105.5" stroke="blue" stroke-width="0.1" /><text text-anchor="middle" transform="translate(7758.5, 0.0) scale(6.5) rotate(-90)">12P1</text></g><g><circle cx="9232.5" cy="0.0" fill="blue" fill-opacity="0.65" r="368.5" stroke="blue" stroke-width="0.1" /><text text-anchor="middle" transform="translate(9232.5, 0.0) scale(6.5) rotate(-90)">06P1</text></g><g><circle cx="10137.0" cy="0.0" fill="blue" fill-opacity="0.65" r="536.0" stroke="blue" stroke-width="0.1" /><text text-anchor="middle" transform="translate(10137.0, 0.0) scale(6.5) rotate(-90)">10P1</text></g><g><circle cx="10907.5" cy="0.0" fill="blue" fill-opacity="0.65" r="234.5" stroke="blue" stroke-width="0.1" /><text text-anchor="middle" transform="translate(10907.5, 0.0) scale(6.5) rotate(-90)">06P3</text></g><g><circle cx="11209.0" cy="0.0" fill="blue" fill-opacity="0.65" r="67.0" stroke="blue" stroke-width="0.1" /><text text-anchor="middle" transform="translate(11209.0, 0.0) scale(6.5) rotate(-90)">12P3</text></g><g><circle cx="11410.0" cy="0.0" fill="blue" fill-opacity="0.65" r="134.0" stroke="blue" stroke-width="0.1" /><text text-anchor="middle" transform="translate(11410.0, 0.0) scale(6.5) rotate(-90)">10P3</text></g><g><circle cx="11778.5" cy="0.0" fill="blue" fill-opacity="0.65" r="234.5" stroke="blue" stroke-width="0.1" /><text text-anchor="middle" transform="translate(11778.5, 0.0) scale(6.5) rotate(-90)">13P2</text></g><g><circle cx="12147.0" cy="0.0" fill="blue" fill-opacity="0.65" r="134.0" stroke="blue" stroke-width="0.1" /><text text-anchor="middle" transform="translate(12147.0, 0.0) scale(6.5) rotate(-90)">01P4</text></g><g><circle cx="12381.5" cy="0.0" fill="blue" fill-opacity="0.65" r="100.5" stroke="blue" stroke-width="0.1" /><text text-anchor="middle" transform="translate(12381.5, 0.0) scale(6.5) rotate(-90)">06P4</text></g><g><circle cx="12582.5" cy="0.0" fill="blue" fill-opacity="0.65" r="100.5" stroke="blue" stroke-width="0.1" /><text text-anchor="middle" transform="translate(12582.5, 0.0) scale(6.5) rotate(-90)">10P2</text></g><g><circle cx="13721.5" cy="0.0" fill="blue" fill-opacity="0.65" r="1038.5" stroke="blue" stroke-width="0.1" /><text text-anchor="middle" transform="translate(13721.5, 0.0) scale(6.5) rotate(-90)">16P1</text></g></g><g><line stroke="black" stroke-width="2.1" x1="1.2246467991473533e-15" x2="4.443018587306597e-13" y1="20.0" y2="7256.0" /><g><circle cx="2.173748068486552e-14" cy="355.0" fill="red" fill-opacity="0.65" r="335.0" stroke="red" stroke-width="0.1" /><text text-anchor="middle" transform="translate(2.173748068486552e-14, 355.0) scale(6.5) rotate(0)">05P1</text></g><g><circle cx="6.071186506773003e-14" cy="991.5" fill="red" fill-opacity="0.65" r="301.5" stroke="red" stroke-width="0.1" /><text text-anchor="middle" transform="translate(6.071186506773003e-14, 991.5) scale(6.5) rotate(0)">02P1</text></g><g><circle cx="8.942983250773546e-14" cy="1460.5" fill="red" fill-opacity="0.65" r="167.5" stroke="red" stroke-width="0.1" /><text text-anchor="middle" transform="translate(8.942983250773546e-14, 1460.5) scale(6.5) rotate(0)">03P2</text></g><g><circle cx="1.2430165011345635e-13" cy="2030.0" fill="red" fill-opacity="0.65" r="402.0" stroke="red" stroke-width="0.1" /><text text-anchor="middle" transform="translate(1.2430165011345635e-13, 2030.0) scale(6.5) rotate(0)">03P3</text></g><g><circle cx="1.6532731788489268e-13" cy="2700.0" fill="red" fill-opacity="0.65" r="268.0" stroke="red" stroke-width="0.1" /><text text-anchor="middle" transform="translate(1.6532731788489268e-13, 2700.0) scale(6.5) rotate(0)">03P1</text></g><g><circle cx="1.8584015177061085e-13" cy="3035.0" fill="red" fill-opacity="0.65" r="67.0" stroke="red" stroke-width="0.1" /><text text-anchor="middle" transform="translate(1.8584015177061085e-13, 3035.0) scale(6.5) rotate(0)">03P4</text></g><g><circle cx="2.330196697077626e-13" cy="3805.5" fill="red" fill-opacity="0.65" r="703.5" stroke="red" stroke-width="0.1" /><text text-anchor="middle" transform="translate(2.330196697077626e-13, 3805.5) scale(6.5) rotate(0)">09P1</text></g><g><circle cx="2.8635303781062987e-13" cy="4676.5" fill="red" fill-opacity="0.65" r="167.5" stroke="red" stroke-width="0.1" /><text text-anchor="middle" transform="translate(2.8635303781062987e-13, 4676.5) scale(6.5) rotate(0)">05P2</text></g><g><circle cx="3.130197218620635e-13" cy="5112.0" fill="red" fill-opacity="0.65" r="268.0" stroke="red" stroke-width="0.1" /><text text-anchor="middle" transform="translate(3.130197218620635e-13, 5112.0) scale(6.5) rotate(0)">15P2</text></g><g><circle cx="3.3558383913635345e-13" cy="5480.5" fill="red" fill-opacity="0.65" r="100.5" stroke="red" stroke-width="0.1" /><text text-anchor="middle" transform="translate(3.3558383913635345e-13, 5480.5) scale(6.5) rotate(0)">09P2</text></g><g><circle cx="3.643018065763589e-13" cy="5949.5" fill="red" fill-opacity="0.65" r="368.5" stroke="red" stroke-width="0.1" /><text text-anchor="middle" transform="translate(3.643018065763589e-13, 5949.5) scale(6.5) rotate(0)">09P3</text></g><g><circle cx="3.930197740163643e-13" cy="6418.5" fill="red" fill-opacity="0.65" r="100.5" stroke="red" stroke-width="0.1" /><text text-anchor="middle" transform="translate(3.930197740163643e-13, 6418.5) scale(6.5) rotate(0)">09P4</text></g><g><circle cx="4.135326079020825e-13" cy="6753.5" fill="red" fill-opacity="0.65" r="234.5" stroke="red" stroke-width="0.1" /><text text-anchor="middle" transform="translate(4.135326079020825e-13, 6753.5) scale(6.5) rotate(0)">15P1</text></g><g><circle cx="4.360967251763725e-13" cy="7122.0" fill="red" fill-opacity="0.65" r="134.0" stroke="red" stroke-width="0.1" /><text text-anchor="middle" transform="translate(4.360967251763725e-13, 7122.0) scale(6.5) rotate(0)">15P3</text></g><line stroke="black" stroke-width="2.1" x1="1.2246467991473533e-15" x2="4.443018587306597e-13" y1="20.0" y2="7256.0" /><g><circle cx="2.173748068486552e-14" cy="355.0" fill="red" fill-opacity="0.65" r="335.0" stroke="red" stroke-width="0.1" /><text text-anchor="middle" transform="translate(2.173748068486552e-14, 355.0) scale(6.5) rotate(0)">05P1</text></g><g><circle cx="6.071186506773003e-14" cy="991.5" fill="red" fill-opacity="0.65" r="301.5" stroke="red" stroke-width="0.1" /><text text-anchor="middle" transform="translate(6.071186506773003e-14, 991.5) scale(6.5) rotate(0)">02P1</text></g><g><circle cx="8.942983250773546e-14" cy="1460.5" fill="red" fill-opacity="0.65" r="167.5" stroke="red" stroke-width="0.1" /><text text-anchor="middle" transform="translate(8.942983250773546e-14, 1460.5) scale(6.5) rotate(0)">03P2</text></g><g><circle cx="1.2430165011345635e-13" cy="2030.0" fill="red" fill-opacity="0.65" r="402.0" stroke="red" stroke-width="0.1" /><text text-anchor="middle" transform="translate(1.2430165011345635e-13, 2030.0) scale(6.5) rotate(0)">03P3</text></g><g><circle cx="1.6532731788489268e-13" cy="2700.0" fill="red" fill-opacity="0.65" r="268.0" stroke="red" stroke-width="0.1" /><text text-anchor="middle" transform="translate(1.6532731788489268e-13, 2700.0) scale(6.5) rotate(0)">03P1</text></g><g><circle cx="1.8584015177061085e-13" cy="3035.0" fill="red" fill-opacity="0.65" r="67.0" stroke="red" stroke-width="0.1" /><text text-anchor="middle" transform="translate(1.8584015177061085e-13, 3035.0) scale(6.5) rotate(0)">03P4</text></g><g><circle cx="2.330196697077626e-13" cy="3805.5" fill="red" fill-opacity="0.65" r="703.5" stroke="red" stroke-width="0.1" /><text text-anchor="middle" transform="translate(2.330196697077626e-13, 3805.5) scale(6.5) rotate(0)">09P1</text></g><g><circle cx="2.8635303781062987e-13" cy="4676.5" fill="red" fill-opacity="0.65" r="167.5" stroke="red" stroke-width="0.1" /><text text-anchor="middle" transform="translate(2.8635303781062987e-13, 4676.5) scale(6.5) rotate(0)">05P2</text></g><g><circle cx="3.130197218620635e-13" cy="5112.0" fill="red" fill-opacity="0.65" r="268.0" stroke="red" stroke-width="0.1" /><text text-anchor="middle" transform="translate(3.130197218620635e-13, 5112.0) scale(6.5) rotate(0)">15P2</text></g><g><circle cx="3.3558383913635345e-13" cy="5480.5" fill="red" fill-opacity="0.65" r="100.5" stroke="red" stroke-width="0.1" /><text text-anchor="middle" transform="translate(3.3558383913635345e-13, 5480.5) scale(6.5) rotate(0)">09P2</text></g><g><circle cx="3.643018065763589e-13" cy="5949.5" fill="red" fill-opacity="0.65" r="368.5" stroke="red" stroke-width="0.1" /><text text-anchor="middle" transform="translate(3.643018065763589e-13, 5949.5) scale(6.5) rotate(0)">09P3</text></g><g><circle cx="3.930197740163643e-13" cy="6418.5" fill="red" fill-opacity="0.65" r="100.5" stroke="red" stroke-width="0.1" /><text text-anchor="middle" transform="translate(3.930197740163643e-13, 6418.5) scale(6.5) rotate(0)">09P4</text></g><g><circle cx="4.135326079020825e-13" cy="6753.5" fill="red" fill-opacity="0.65" r="234.5" stroke="red" stroke-width="0.1" /><text text-anchor="middle" transform="translate(4.135326079020825e-13, 6753.5) scale(6.5) rotate(0)">15P1</text></g><g><circle cx="4.360967251763725e-13" cy="7122.0" fill="red" fill-opacity="0.65" r="134.0" stroke="red" stroke-width="0.1" /><text text-anchor="middle" transform="translate(4.360967251763725e-13, 7122.0) scale(6.5) rotate(0)">15P3</text></g></g><g><line stroke="black" stroke-width="2.1" x1="-20.0" x2="-15765.0" y1="2.4492935982947065e-15" y2="1.9306556788558024e-12" /><g><circle cx="-254.5" cy="3.116726103830014e-14" fill="green" fill-opacity="0.65" r="234.5" stroke="green" stroke-width="0.1" /><text text-anchor="middle" transform="translate(-254.5, 3.116726103830014e-14) scale(6.5) rotate(90)">04P4</text></g><g><circle cx="-1125.5" cy="1.378339972440346e-13" fill="green" fill-opacity="0.65" r="636.5" stroke="green" stroke-width="0.1" /><text text-anchor="middle" transform="translate(-1125.5, 1.378339972440346e-13) scale(6.5) rotate(90)">14P2</text></g><g><circle cx="-2432.0" cy="2.978341015526363e-13" fill="green" fill-opacity="0.65" r="670.0" stroke="green" stroke-width="0.1" /><text text-anchor="middle" transform="translate(-2432.0, 2.978341015526363e-13) scale(6.5) rotate(90)">04P3</text></g><g><circle cx="-3671.5" cy="4.4962907230695074e-13" fill="green" fill-opacity="0.65" r="569.5" stroke="green" stroke-width="0.1" /><text text-anchor="middle" transform="translate(-3671.5, 4.4962907230695074e-13) scale(6.5) rotate(90)">11P1</text></g><g><circle cx="-5246.0" cy="6.424497108327014e-13" fill="green" fill-opacity="0.65" r="1005.0" stroke="green" stroke-width="0.1" /><text text-anchor="middle" transform="translate(-5246.0, 6.424497108327014e-13) scale(6.5) rotate(90)">13P1</text></g><g><circle cx="-6820.5" cy="8.352703493584523e-13" fill="green" fill-opacity="0.65" r="569.5" stroke="green" stroke-width="0.1" /><text text-anchor="middle" transform="translate(-6820.5, 8.352703493584523e-13) scale(6.5) rotate(90)">14P4</text></g><g><circle cx="-7524.0" cy="9.214242516784686e-13" fill="green" fill-opacity="0.65" r="134.0" stroke="green" stroke-width="0.1" /><text text-anchor="middle" transform="translate(-7524.0, 9.214242516784686e-13) scale(6.5) rotate(90)">04P2</text></g><g><circle cx="-8462.0" cy="1.0362961214384902e-12" fill="green" fill-opacity="0.65" r="804.0" stroke="green" stroke-width="0.1" /><text text-anchor="middle" transform="translate(-8462.0, 1.0362961214384902e-12) scale(6.5) rotate(90)">04P1</text></g><g><circle cx="-9500.5" cy="1.163475691529943e-12" fill="green" fill-opacity="0.65" r="234.5" stroke="green" stroke-width="0.1" /><text text-anchor="middle" transform="translate(-9500.5, 1.163475691529943e-12) scale(6.5) rotate(90)">14P1</text></g><g><circle cx="-10271.0" cy="1.2578347274042465e-12" fill="green" fill-opacity="0.65" r="536.0" stroke="green" stroke-width="0.1" /><text text-anchor="middle" transform="translate(-10271.0, 1.2578347274042465e-12) scale(6.5) rotate(90)">14P3</text></g><g><circle cx="-11075.0" cy="1.3562963300556937e-12" fill="green" fill-opacity="0.65" r="268.0" stroke="green" stroke-width="0.1" /><text text-anchor="middle" transform="translate(-11075.0, 1.3562963300556937e-12) scale(6.5) rotate(90)">04P5</text></g><g><circle cx="-12046.5" cy="1.475270766592859e-12" fill="green" fill-opacity="0.65" r="703.5" stroke="green" stroke-width="0.1" /><text text-anchor="middle" transform="translate(-12046.5, 1.475270766592859e-12) scale(6.5) rotate(90)">08P1</text></g><g><circle cx="-13252.5" cy="1.6229631705700298e-12" fill="green" fill-opacity="0.65" r="502.5" stroke="green" stroke-width="0.1" /><text text-anchor="middle" transform="translate(-13252.5, 1.6229631705700298e-12) scale(6.5) rotate(90)">07P1</text></g><g><circle cx="-14056.5" cy="1.721424773221477e-12" fill="green" fill-opacity="0.65" r="301.5" stroke="green" stroke-width="0.1" /><text text-anchor="middle" transform="translate(-14056.5, 1.721424773221477e-12) scale(6.5) rotate(90)">07P2</text></g><g><circle cx="-14425.0" cy="1.766553007770057e-12" fill="green" fill-opacity="0.65" r="67.0" stroke="green" stroke-width="0.1" /><text text-anchor="middle" transform="translate(-14425.0, 1.766553007770057e-12) scale(6.5) rotate(90)">08P2</text></g><g><circle cx="-14659.5" cy="1.7952709752100625e-12" fill="green" fill-opacity="0.65" r="167.5" stroke="green" stroke-width="0.1" /><text text-anchor="middle" transform="translate(-14659.5, 1.7952709752100625e-12) scale(6.5) rotate(90)">11P2</text></g><g><circle cx="-14961.0" cy="1.8321940762043552e-12" fill="green" fill-opacity="0.65" r="134.0" stroke="green" stroke-width="0.1" /><text text-anchor="middle" transform="translate(-14961.0, 1.8321940762043552e-12) scale(6.5) rotate(90)">07P3</text></g><g><circle cx="-15262.5" cy="1.8691171771986477e-12" fill="green" fill-opacity="0.65" r="167.5" stroke="green" stroke-width="0.1" /><text text-anchor="middle" transform="translate(-15262.5, 1.8691171771986477e-12) scale(6.5) rotate(90)">14P6</text></g><g><circle cx="-15597.5" cy="1.910142844970084e-12" fill="green" fill-opacity="0.65" r="167.5" stroke="green" stroke-width="0.1" /><text text-anchor="middle" transform="translate(-15597.5, 1.910142844970084e-12) scale(6.5) rotate(90)">14P5</text></g><line stroke="black" stroke-width="2.1" x1="-20.0" x2="-15765.0" y1="2.4492935982947065e-15" y2="1.9306556788558024e-12" /><g><circle cx="-254.5" cy="3.116726103830014e-14" fill="green" fill-opacity="0.65" r="234.5" stroke="green" stroke-width="0.1" /><text text-anchor="middle" transform="translate(-254.5, 3.116726103830014e-14) scale(6.5) rotate(90)">04P4</text></g><g><circle cx="-1125.5" cy="1.378339972440346e-13" fill="green" fill-opacity="0.65" r="636.5" stroke="green" stroke-width="0.1" /><text text-anchor="middle" transform="translate(-1125.5, 1.378339972440346e-13) scale(6.5) rotate(90)">14P2</text></g><g><circle cx="-2432.0" cy="2.978341015526363e-13" fill="green" fill-opacity="0.65" r="670.0" stroke="green" stroke-width="0.1" /><text text-anchor="middle" transform="translate(-2432.0, 2.978341015526363e-13) scale(6.5) rotate(90)">04P3</text></g><g><circle cx="-3671.5" cy="4.4962907230695074e-13" fill="green" fill-opacity="0.65" r="569.5" stroke="green" stroke-width="0.1" /><text text-anchor="middle" transform="translate(-3671.5, 4.4962907230695074e-13) scale(6.5) rotate(90)">11P1</text></g><g><circle cx="-5246.0" cy="6.424497108327014e-13" fill="green" fill-opacity="0.65" r="1005.0" stroke="green" stroke-width="0.1" /><text text-anchor="middle" transform="translate(-5246.0, 6.424497108327014e-13) scale(6.5) rotate(90)">13P1</text></g><g><circle cx="-6820.5" cy="8.352703493584523e-13" fill="green" fill-opacity="0.65" r="569.5" stroke="green" stroke-width="0.1" /><text text-anchor="middle" transform="translate(-6820.5, 8.352703493584523e-13) scale(6.5) rotate(90)">14P4</text></g><g><circle cx="-7524.0" cy="9.214242516784686e-13" fill="green" fill-opacity="0.65" r="134.0" stroke="green" stroke-width="0.1" /><text text-anchor="middle" transform="translate(-7524.0, 9.214242516784686e-13) scale(6.5) rotate(90)">04P2</text></g><g><circle cx="-8462.0" cy="1.0362961214384902e-12" fill="green" fill-opacity="0.65" r="804.0" stroke="green" stroke-width="0.1" /><text text-anchor="middle" transform="translate(-8462.0, 1.0362961214384902e-12) scale(6.5) rotate(90)">04P1</text></g><g><circle cx="-9500.5" cy="1.163475691529943e-12" fill="green" fill-opacity="0.65" r="234.5" stroke="green" stroke-width="0.1" /><text text-anchor="middle" transform="translate(-9500.5, 1.163475691529943e-12) scale(6.5) rotate(90)">14P1</text></g><g><circle cx="-10271.0" cy="1.2578347274042465e-12" fill="green" fill-opacity="0.65" r="536.0" stroke="green" stroke-width="0.1" /><text text-anchor="middle" transform="translate(-10271.0, 1.2578347274042465e-12) scale(6.5) rotate(90)">14P3</text></g><g><circle cx="-11075.0" cy="1.3562963300556937e-12" fill="green" fill-opacity="0.65" r="268.0" stroke="green" stroke-width="0.1" /><text text-anchor="middle" transform="translate(-11075.0, 1.3562963300556937e-12) scale(6.5) rotate(90)">04P5</text></g><g><circle cx="-12046.5" cy="1.475270766592859e-12" fill="green" fill-opacity="0.65" r="703.5" stroke="green" stroke-width="0.1" /><text text-anchor="middle" transform="translate(-12046.5, 1.475270766592859e-12) scale(6.5) rotate(90)">08P1</text></g><g><circle cx="-13252.5" cy="1.6229631705700298e-12" fill="green" fill-opacity="0.65" r="502.5" stroke="green" stroke-width="0.1" /><text text-anchor="middle" transform="translate(-13252.5, 1.6229631705700298e-12) scale(6.5) rotate(90)">07P1</text></g><g><circle cx="-14056.5" cy="1.721424773221477e-12" fill="green" fill-opacity="0.65" r="301.5" stroke="green" stroke-width="0.1" /><text text-anchor="middle" transform="translate(-14056.5, 1.721424773221477e-12) scale(6.5) rotate(90)">07P2</text></g><g><circle cx="-14425.0" cy="1.766553007770057e-12" fill="green" fill-opacity="0.65" r="67.0" stroke="green" stroke-width="0.1" /><text text-anchor="middle" transform="translate(-14425.0, 1.766553007770057e-12) scale(6.5) rotate(90)">08P2</text></g><g><circle cx="-14659.5" cy="1.7952709752100625e-12" fill="green" fill-opacity="0.65" r="167.5" stroke="green" stroke-width="0.1" /><text text-anchor="middle" transform="translate(-14659.5, 1.7952709752100625e-12) scale(6.5) rotate(90)">11P2</text></g><g><circle cx="-14961.0" cy="1.8321940762043552e-12" fill="green" fill-opacity="0.65" r="134.0" stroke="green" stroke-width="0.1" /><text text-anchor="middle" transform="translate(-14961.0, 1.8321940762043552e-12) scale(6.5) rotate(90)">07P3</text></g><g><circle cx="-15262.5" cy="1.8691171771986477e-12" fill="green" fill-opacity="0.65" r="167.5" stroke="green" stroke-width="0.1" /><text text-anchor="middle" transform="translate(-15262.5, 1.8691171771986477e-12) scale(6.5) rotate(90)">14P6</text></g><g><circle cx="-15597.5" cy="1.910142844970084e-12" fill="green" fill-opacity="0.65" r="167.5" stroke="green" stroke-width="0.1" /><text text-anchor="middle" transform="translate(-15597.5, 1.910142844970084e-12) scale(6.5) rotate(90)">14P5</text></g></g><g><line stroke="black" stroke-width="2.1" x1="-3.673940397442059e-15" x2="-2.1290484603176735e-13" y1="-20.0" y2="-1159.0" /><g><circle cx="-2.8289341060303857e-14" cy="-154.0" fill="purple" fill-opacity="0.65" r="134.0" stroke="purple" stroke-width="0.1" /><text text-anchor="middle" transform="translate(-2.8289341060303857e-14, -154.0) scale(6.5) rotate(180)">17P2</text></g><g><circle cx="-1.329047938774665e-13" cy="-723.5" fill="purple" fill-opacity="0.65" r="435.5" stroke="purple" stroke-width="0.1" /><text text-anchor="middle" transform="translate(-1.329047938774665e-13, -723.5) scale(6.5) rotate(180)">17P1</text></g><line stroke="black" stroke-width="2.1" x1="-3.673940397442059e-15" x2="-2.1290484603176735e-13" y1="-20.0" y2="-1159.0" /><g><circle cx="-2.8289341060303857e-14" cy="-154.0" fill="purple" fill-opacity="0.65" r="134.0" stroke="purple" stroke-width="0.1" /><text text-anchor="middle" transform="translate(-2.8289341060303857e-14, -154.0) scale(6.5) rotate(180)">17P2</text></g><g><circle cx="-1.329047938774665e-13" cy="-723.5" fill="purple" fill-opacity="0.65" r="435.5" stroke="purple" stroke-width="0.1" /><text text-anchor="middle" transform="translate(-1.329047938774665e-13, -723.5) scale(6.5) rotate(180)">17P1</text></g></g></svg>