<?xml version="1.0" encoding="utf-8" ?>
<svg baseProfile="full" height="100%" version="1.1" viewBox="-11008.0,-11008.0,22016.0,22016.0" width="100%" xmlns="http://www.w3.org/2000/svg" xmlns:ev="http://www.w3.org/2001/xml-events" xmlns:xlink="http://www.w3.org/1999/xlink"><defs /><path d="M -5.905859188888111e-14 -321.5 C 321.49999999999994 -321.50000000000006 321.5 -321.5 321.5 0.0" fill="none" stroke="black" stroke-width="4.5" /><path d="M -1.8213559520319008e-13 -991.5 C 991.4999999999998 -991.5000000000002 1795.5 -1795.5 1795.5 0.0" fill="none" stroke="black" stroke-width="4.5" /><path d="M -5.905859188888111e-14 -321.5 C 321.49999999999994 -321.50000000000006 1795.5 -1795.5 1795.5 0.0" fill="none" stroke="black" stroke-width="4.5" /><path d="M -5.905859188888111e-14 -321.5 C 321.49999999999994 -321.50000000000006 3437.0 -3437.0 3437.0 0.0" fill="none" stroke="black" stroke-width="4.5" /><path d="M -5.905859188888111e-14 -321.5 C 321.49999999999994 -321.50000000000006 4777.0 -4777.0 4777.0 0.0" fill="none" stroke="black" stroke-width="4.5" /><path d="M -5.905859188888111e-14 -321.5 C 321.49999999999994 -321.50000000000006 7390.0 -7390.0 7390.0 0.0" fill="none" stroke="black" stroke-width="4.5" /><path d="M -5.905859188888111e-14 -321.5 C 321.49999999999994 -321.50000000000006 8328.0 -8328.0 8328.0 0.0" fill="none" stroke="black" stroke-width="4.5" /><path d="M 321.5 0.0 C 321.5 321.5 522.5 522.5 3.19938976277246e-14 522.5" fill="none" stroke="black" stroke-width="4.5" /><path d="M 1795.5 0.0 C 1795.5 1795.5 2566.0 2566.0 1.5712218433060542e-13 2566.0" fill="none" stroke="black" stroke-width="4.5" /><path d="M 1795.5 0.0 C 1795.5 1795.5 991.5000000000001 991.5 6.071186506773003e-14 991.5" fill="none" stroke="black" stroke-width="4.5" /><path d="M 2666.5 0.0 C 2666.5 2666.5 1527.5 1527.5 9.35323992848791e-14 1527.5" fill="none" stroke="black" stroke-width="4.5" /><path d="M 3906.0 0.0 C 3906.0000000000005 3906.0 1527.5 1527.5 9.35323992848791e-14 1527.5" fill="none" stroke="black" stroke-width="4.5" /><path d="M 4777.0 0.0 C 4777.0 4777.0 522.5 522.5 3.19938976277246e-14 522.5" fill="none" stroke="black" stroke-width="4.5" /><path d="M 5547.5 0.0 C 5547.5 5547.5 2834.0 2834.0 1.7353245143917996e-13 2834.0" fill="none" stroke="black" stroke-width="4.5" /><path d="M 6854.0 0.0 C 6854.0 6854.0 2030.0000000000002 2030.0 1.2430165011345635e-13 2030.0" fill="none" stroke="black" stroke-width="4.5" /><path d="M 6854.0 0.0 C 6854.0 6854.0 2264.5 2264.5 1.3866063383345905e-13 2264.5" fill="none" stroke="black" stroke-width="4.5" /><path d="M 7390.0 0.0 C 7390.0 7390.0 1728.5 1728.4999999999998 1.0584009961631e-13 1728.5" fill="none" stroke="black" stroke-width="4.5" /><path d="M 7390.0 0.0 C 7390.0 7390.0 522.5 522.5 3.19938976277246e-14 522.5" fill="none" stroke="black" stroke-width="4.5" /><path d="M 8763.5 0.0 C 8763.5 8763.5 2264.5 2264.4999999999995 1.3866063383345905e-13 2264.5" fill="none" stroke="black" stroke-width="4.5" /><path d="M 7792.0 0.0 C 7792.000000000001 7792.0 2566.0 2566.0 1.5712218433060542e-13 2566.0" fill="none" stroke="black" stroke-width="4.5" /><path d="M 8328.0 0.0 C 8328.0 8328.0 522.5 522.5 3.19938976277246e-14 522.5" fill="none" stroke="black" stroke-width="4.5" /><path d="M 8763.5 0.0 C 8763.5 8763.5 1527.5 1527.5 9.35323992848791e-14 1527.5" fill="none" stroke="black" stroke-width="4.5" /><path d="M 8763.5 0.0 C 8763.5 8763.5 522.5 522.5 3.19938976277246e-14 522.5" fill="none" stroke="black" stroke-width="4.5" /><path d="M 9299.5 0.0 C 9299.5 9299.5 3035.0 3034.9999999999995 1.8584015177061085e-13 3035.0" fill="none" stroke="black" stroke-width="4.5" /><path d="M 9065.0 0.0 C 9065.0 9065.0 2264.5 2264.5 1.3866063383345905e-13 2264.5" fill="none" stroke="black" stroke-width="4.5" /><path d="M 9299.5 0.0 C 9299.5 9299.5 2030.0000000000002 2030.0 1.2430165011345635e-13 2030.0" fill="none" stroke="black" stroke-width="4.5" /><path d="M 9299.5 0.0 C 9299.5 9299.5 2264.5 2264.5 1.3866063383345905e-13 2264.5" fill="none" stroke="black" stroke-width="4.5" /><path d="M 6.071186506773003e-14 991.5 C -991.4999999999999 991.5000000000001 -689.9999999999999 690.0000000000001 -690.0 8.450062914116737e-14" fill="none" stroke="black" stroke-width="4.5" /><path d="M 1.8584015177061085e-13 3035.0 C -3035.0 3035.0000000000005 -2465.4999999999995 2465.5000000000005 -2465.5 3.0193666832977995e-13" fill="none" stroke="black" stroke-width="4.5" /><path d="M 6.071186506773003e-14 991.5 C -991.4999999999999 991.5000000000001 -3034.9999999999995 3035.0000000000005 -3035.0 3.716803035412217e-13" fill="none" stroke="black" stroke-width="4.5" /><path d="M 8.327598234202001e-14 1360.0 C -1360.0 1360.0000000000002 -5413.499999999999 5413.500000000001 -5413.5 6.629625447184197e-13" fill="none" stroke="black" stroke-width="4.5" /><path d="M 1.5712218433060542e-13 2566.0 C -2566.0 2566.0000000000005 -6016.499999999999 6016.500000000001 -6016.5 7.36808746707005e-13" fill="none" stroke="black" stroke-width="4.5" /><path d="M 6.071186506773003e-14 991.5 C -991.4999999999999 991.5000000000001 -6016.499999999999 6016.500000000001 -6016.5 7.36808746707005e-13" fill="none" stroke="black" stroke-width="4.5" /><path d="M 1.673786012734645e-13 2733.5 C -2733.5 2733.5000000000005 -6016.499999999999 6016.500000000001 -6016.5 7.36808746707005e-13" fill="none" stroke="black" stroke-width="4.5" /><path d="M 1.0584009961631e-13 1728.5 C -1728.5 1728.5000000000002 -6586.0 6586.000000000001 -6586.0 8.065523819184468e-13" fill="none" stroke="black" stroke-width="4.5" /><path d="M 1.3866063383345905e-13 2264.5 C -2264.5 2264.5000000000005 -10003.0 10003.000000000002 -10003.0 1.2250141931870974e-12" fill="none" stroke="black" stroke-width="4.5" /><path d="M 6.071186506773003e-14 991.5 C -991.4999999999999 991.5000000000001 -7892.499999999998 7892.500000000001 -7892.5 9.665524862270486e-13" fill="none" stroke="black" stroke-width="4.5" /><path d="M 1.7353245143917996e-13 2834.0 C -2834.0 2834.0000000000005 -7892.499999999998 7892.500000000001 -7892.5 9.665524862270486e-13" fill="none" stroke="black" stroke-width="4.5" /><path d="M 8.327598234202001e-14 1360.0 C -1360.0 1360.0000000000002 -7892.499999999998 7892.500000000001 -7892.5 9.665524862270486e-13" fill="none" stroke="black" stroke-width="4.5" /><path d="M 1.1481063742006436e-14 187.5 C -187.5 187.50000000000003 -9232.499999999998 9232.500000000002 -9232.5 1.1306551573127938e-12" fill="none" stroke="black" stroke-width="4.5" /><path d="M 1.5712218433060542e-13 2566.0 C -2566.0 2566.0000000000005 -9232.499999999998 9232.500000000002 -9232.5 1.1306551573127938e-12" fill="none" stroke="black" stroke-width="4.5" /><path d="M 6.071186506773003e-14 991.5 C -991.4999999999999 991.5000000000001 -9232.499999999998 9232.500000000002 -9232.5 1.1306551573127938e-12" fill="none" stroke="black" stroke-width="4.5" /><path d="M 1.8584015177061085e-13 3035.0 C -3035.0 3035.0000000000005 -9232.499999999998 9232.500000000002 -9232.5 1.1306551573127938e-12" fill="none" stroke="black" stroke-width="4.5" /><path d="M 6.071186506773003e-14 991.5 C -991.4999999999999 991.5000000000001 -10002.999999999998 10003.000000000002 -10003.0 1.2250141931870974e-12" fill="none" stroke="black" stroke-width="4.5" /><path d="M 1.1481063742006436e-14 187.5 C -187.5 187.50000000000003 -10538.999999999998 10539.000000000002 -10539.0 1.2906552616213956e-12" fill="none" stroke="black" stroke-width="4.5" /><path d="M 6.071186506773003e-14 991.5 C -991.4999999999999 991.5000000000001 -10538.999999999998 10539.000000000002 -10539.0 1.2906552616213956e-12" fill="none" stroke="black" stroke-width="4.5" /><path d="M 1.8584015177061085e-13 3035.0 C -3035.0 3035.0000000000005 -10539.0 10539.000000000002 -10539.0 1.2906552616213956e-12" fill="none" stroke="black" stroke-width="4.5" /><path d="M -690.0 8.450062914116737e-14 C -690.0000000000001 -689.9999999999999 -991.5000000000002 -991.4999999999999 -1.8213559520319008e-13 -991.5" fill="none" stroke="black" stroke-width="4.5" /><path d="M -1795.5 2.1988533278690727e-13 C -1795.5000000000002 -1795.4999999999998 -991.5000000000002 -991.4999999999999 -1.8213559520319008e-13 -991.5" fill="none" stroke="black" stroke-width="4.5" /><path d="M -1795.5 2.1988533278690727e-13 C -1795.5000000000002 -1795.4999999999998 -321.50000000000006 -321.49999999999994 -5.905859188888111e-14 -321.5" fill="none" stroke="black" stroke-width="4.5" /><path d="M -3035.0 3.716803035412217e-13 C -3035.0000000000005 -3034.9999999999995 -321.50000000000006 -321.49999999999994 -5.905859188888111e-14 -321.5" fill="none" stroke="black" stroke-width="4.5" /><path d="M -4509.0 5.521932417355415e-13 C -4509.000000000001 -4508.999999999999 -991.5000000000002 -991.4999999999999 -1.8213559520319008e-13 -991.5" fill="none" stroke="black" stroke-width="4.5" /><path d="M -5413.5 6.629625447184197e-13 C -5413.500000000001 -5413.499999999999 -991.5000000000002 -991.4999999999998 -1.8213559520319008e-13 -991.5" fill="none" stroke="black" stroke-width="4.5" /><path d="M -6016.5 7.36808746707005e-13 C -6016.500000000001 -6016.499999999999 -991.5000000000002 -991.4999999999999 -1.8213559520319008e-13 -991.5" fill="none" stroke="black" stroke-width="4.5" /><path d="M -7088.5 8.680908835756013e-13 C -7088.500000000001 -7088.499999999999 -991.5000000000002 -991.4999999999999 -1.8213559520319008e-13 -991.5" fill="none" stroke="black" stroke-width="4.5" /><path d="M -7892.5 9.665524862270486e-13 C -7892.500000000002 -7892.499999999999 -991.5000000000002 -991.4999999999999 -1.8213559520319008e-13 -991.5" fill="none" stroke="black" stroke-width="4.5" /><path d="M -8395.0 1.028090987884203e-12 C -8395.000000000002 -8394.999999999998 -991.5000000000002 -991.4999999999999 -1.8213559520319008e-13 -991.5" fill="none" stroke="black" stroke-width="4.5" /><path d="M -9232.5 1.1306551573127938e-12 C -9232.500000000002 -9232.499999999998 -991.5000000000002 -991.4999999999999 -1.8213559520319008e-13 -991.5" fill="none" stroke="black" stroke-width="4.5" /><path d="M -10539.0 1.2906552616213956e-12 C -10539.000000000002 -10538.999999999998 -991.5000000000002 -991.4999999999999 -1.8213559520319008e-13 -991.5" fill="none" stroke="black" stroke-width="4.5" /><g><line stroke="black" stroke-width="2.1" x1="20.0" x2="9467.0" y1="0.0" y2="0.0" /><g><circle cx="321.5" cy="0.0" fill="blue" fill-opacity="0.65" r="301.5" stroke="blue" stroke-width="0.1" /><text text-anchor="middle" transform="translate(321.5, 0.0) scale(6.5) rotate(-90)">01P4</text></g><g><circle cx="723.5" cy="0.0" fill="blue" fill-opacity="0.65" r="100.5" stroke="blue" stroke-width="0.1" /><text text-anchor="middle" transform="translate(723.5, 0.0) scale(6.5) rotate(-90)">13P2</text></g><g><circle cx="991.5" cy="0.0" fill="blue" fill-opacity="0.65" r="167.5" stroke="blue" stroke-width="0.1" /><text text-anchor="middle" transform="translate(991.5, 0.0) scale(6.5) rotate(-90)">10P4</text></g><g><circle cx="1795.5" cy="0.0" fill="blue" fill-opacity="0.65" r="636.5" stroke="blue" stroke-width="0.1" /><text text-anchor="middle" transform="translate(1795.5, 0.0) scale(6.5) rotate(-90)">13P1</text></g><g><circle cx="2666.5" cy="0.0" fill="blue" fill-opacity="0.65" r="234.5" stroke="blue" stroke-width="0.1" /><text text-anchor="middle" transform="translate(2666.5, 0.0) scale(6.5) rotate(-90)">06P3</text></g><g><circle cx="3068.5" cy="0.0" fill="blue" fill-opacity="0.65" r="167.5" stroke="blue" stroke-width="0.1" /><text text-anchor="middle" transform="translate(3068.5, 0.0) scale(6.5) rotate(-90)">12P4</text></g><g><circle cx="3437.0" cy="0.0" fill="blue" fill-opacity="0.65" r="201.0" stroke="blue" stroke-width="0.1" /><text text-anchor="middle" transform="translate(3437.0, 0.0) scale(6.5) rotate(-90)">12P2</text></g><g><circle cx="3906.0" cy="0.0" fill="blue" fill-opacity="0.65" r="268.0" stroke="blue" stroke-width="0.1" /><text text-anchor="middle" transform="translate(3906.0, 0.0) scale(6.5) rotate(-90)">06P2</text></g><g><circle cx="4274.5" cy="0.0" fill="blue" fill-opacity="0.65" r="100.5" stroke="blue" stroke-width="0.1" /><text text-anchor="middle" transform="translate(4274.5, 0.0) scale(6.5) rotate(-90)">06P4</text></g><g><circle cx="4777.0" cy="0.0" fill="blue" fill-opacity="0.65" r="402.0" stroke="blue" stroke-width="0.1" /><text text-anchor="middle" transform="translate(4777.0, 0.0) scale(6.5) rotate(-90)">01P3</text></g><g><circle cx="5547.5" cy="0.0" fill="blue" fill-opacity="0.65" r="368.5" stroke="blue" stroke-width="0.1" /><text text-anchor="middle" transform="translate(5547.5, 0.0) scale(6.5) rotate(-90)">16P2</text></g><g><circle cx="6016.5" cy="0.0" fill="blue" fill-opacity="0.65" r="100.5" stroke="blue" stroke-width="0.1" /><text text-anchor="middle" transform="translate(6016.5, 0.0) scale(6.5) rotate(-90)">10P2</text></g><g><circle cx="6284.5" cy="0.0" fill="blue" fill-opacity="0.65" r="167.5" stroke="blue" stroke-width="0.1" /><text text-anchor="middle" transform="translate(6284.5, 0.0) scale(6.5) rotate(-90)">16P1</text></g><g><circle cx="6854.0" cy="0.0" fill="blue" fill-opacity="0.65" r="402.0" stroke="blue" stroke-width="0.1" /><text text-anchor="middle" transform="translate(6854.0, 0.0) scale(6.5) rotate(-90)">10P1</text></g><g><circle cx="7390.0" cy="0.0" fill="blue" fill-opacity="0.65" r="134.0" stroke="blue" stroke-width="0.1" /><text text-anchor="middle" transform="translate(7390.0, 0.0) scale(6.5) rotate(-90)">01P2</text></g><g><circle cx="7792.0" cy="0.0" fill="blue" fill-opacity="0.65" r="268.0" stroke="blue" stroke-width="0.1" /><text text-anchor="middle" transform="translate(7792.0, 0.0) scale(6.5) rotate(-90)">13P3</text></g><g><circle cx="8127.0" cy="0.0" fill="blue" fill-opacity="0.65" r="67.0" stroke="blue" stroke-width="0.1" /><text text-anchor="middle" transform="translate(8127.0, 0.0) scale(6.5) rotate(-90)">16P3</text></g><g><circle cx="8328.0" cy="0.0" fill="blue" fill-opacity="0.65" r="134.0" stroke="blue" stroke-width="0.1" /><text text-anchor="middle" transform="translate(8328.0, 0.0) scale(6.5) rotate(-90)">01P1</text></g><g><circle cx="8495.5" cy="0.0" fill="blue" fill-opacity="0.65" r="33.5" stroke="blue" stroke-width="0.1" /><text text-anchor="middle" transform="translate(8495.5, 0.0) scale(6.5) rotate(-90)">12P3</text></g><g><circle cx="8763.5" cy="0.0" fill="blue" fill-opacity="0.65" r="234.5" stroke="blue" stroke-width="0.1" /><text text-anchor="middle" transform="translate(8763.5, 0.0) scale(6.5) rotate(-90)">06P1</text></g><g><circle cx="9065.0" cy="0.0" fill="blue" fill-opacity="0.65" r="67.0" stroke="blue" stroke-width="0.1" /><text text-anchor="middle" transform="translate(9065.0, 0.0) scale(6.5) rotate(-90)">10P3</text></g><g><circle cx="9299.5" cy="0.0" fill="blue" fill-opacity="0.65" r="167.5" stroke="blue" stroke-width="0.1" /><text text-anchor="middle" transform="translate(9299.5, 0.0) scale(6.5) rotate(-90)">12P1</text></g><line stroke="black" stroke-width="2.1" x1="20.0" x2="9467.0" y1="0.0" y2="0.0" /><g><circle cx="321.5" cy="0.0" fill="blue" fill-opacity="0.65" r="301.5" stroke="blue" stroke-width="0.1" /><text text-anchor="middle" transform="translate(321.5, 0.0) scale(6.5) rotate(-90)">01P4</text></g><g><circle cx="723.5" cy="0.0" fill="blue" fill-opacity="0.65" r="100.5" stroke="blue" stroke-width="0.1" /><text text-anchor="middle" transform="translate(723.5, 0.0) scale(6.5) rotate(-90)">13P2</text></g><g><circle cx="991.5" cy="0.0" fill="blue" fill-opacity="0.65" r="167.5" stroke="blue" stroke-width="0.1" /><text text-anchor="middle" transform="translate(991.5, 0.0) scale(6.5) rotate(-90)">10P4</text></g><g><circle cx="1795.5" cy="0.0" fill="blue" fill-opacity="0.65" r="636.5" stroke="blue" stroke-width="0.1" /><text text-anchor="middle" transform="translate(1795.5, 0.0) scale(6.5) rotate(-90)">13P1</text></g><g><circle cx="2666.5" cy="0.0" fill="blue" fill-opacity="0.65" r="234.5" stroke="blue" stroke-width="0.1" /><text text-anchor="middle" transform="translate(2666.5, 0.0) scale(6.5) rotate(-90)">06P3</text></g><g><circle cx="3068.5" cy="0.0" fill="blue" fill-opacity="0.65" r="167.5" stroke="blue" stroke-width="0.1" /><text text-anchor="middle" transform="translate(3068.5, 0.0) scale(6.5) rotate(-90)">12P4</text></g><g><circle cx="3437.0" cy="0.0" fill="blue" fill-opacity="0.65" r="201.0" stroke="blue" stroke-width="0.1" /><text text-anchor="middle" transform="translate(3437.0, 0.0) scale(6.5) rotate(-90)">12P2</text></g><g><circle cx="3906.0" cy="0.0" fill="blue" fill-opacity="0.65" r="268.0" stroke="blue" stroke-width="0.1" /><text text-anchor="middle" transform="translate(3906.0, 0.0) scale(6.5) rotate(-90)">06P2</text></g><g><circle cx="4274.5" cy="0.0" fill="blue" fill-opacity="0.65" r="100.5" stroke="blue" stroke-width="0.1" /><text text-anchor="middle" transform="translate(4274.5, 0.0) scale(6.5) rotate(-90)">06P4</text></g><g><circle cx="4777.0" cy="0.0" fill="blue" fill-opacity="0.65" r="402.0" stroke="blue" stroke-width="0.1" /><text text-anchor="middle" transform="translate(4777.0, 0.0) scale(6.5) rotate(-90)">01P3</text></g><g><circle cx="5547.5" cy="0.0" fill="blue" fill-opacity="0.65" r="368.5" stroke="blue" stroke-width="0.1" /><text text-anchor="middle" transform="translate(5547.5, 0.0) scale(6.5) rotate(-90)">16P2</text></g><g><circle cx="6016.5" cy="0.0" fill="blue" fill-opacity="0.65" r="100.5" stroke="blue" stroke-width="0.1" /><text text-anchor="middle" transform="translate(6016.5, 0.0) scale(6.5) rotate(-90)">10P2</text></g><g><circle cx="6284.5" cy="0.0" fill="blue" fill-opacity="0.65" r="167.5" stroke="blue" stroke-width="0.1" /><text text-anchor="middle" transform="translate(6284.5, 0.0) scale(6.5) rotate(-90)">16P1</text></g><g><circle cx="6854.0" cy="0.0" fill="blue" fill-opacity="0.65" r="402.0" stroke="blue" stroke-width="0.1" /><text text-anchor="middle" transform="translate(6854.0, 0.0) scale(6.5) rotate(-90)">10P1</text></g><g><circle cx="7390.0" cy="0.0" fill="blue" fill-opacity="0.65" r="134.0" stroke="blue" stroke-width="0.1" /><text text-anchor="middle" transform="translate(7390.0, 0.0) scale(6.5) rotate(-90)">01P2</text></g><g><circle cx="7792.0" cy="0.0" fill="blue" fill-opacity="0.65" r="268.0" stroke="blue" stroke-width="0.1" /><text text-anchor="middle" transform="translate(7792.0, 0.0) scale(6.5) rotate(-90)">13P3</text></g><g><circle cx="8127.0" cy="0.0" fill="blue" fill-opacity="0.65" r="67.0" stroke="blue" stroke-width="0.1" /><text text-anchor="middle" transform="translate(8127.0, 0.0) scale(6.5) rotate(-90)">16P3</text></g><g><circle cx="8328.0" cy="0.0" fill="blue" fill-opacity="0.65" r="134.0" stroke="blue" stroke-width="0.1" /><text text-anchor="middle" transform="translate(8328.0, 0.0) scale(6.5) rotate(-90)">01P1</text></g><g><circle cx="8495.5" cy="0.0" fill="blue" fill-opacity="0.65" r="33.5" stroke="blue" stroke-width="0.1" /><text text-anchor="middle" transform="translate(8495.5, 0.0) scale(6.5) rotate(-90)">12P3</text></g><g><circle cx="8763.5" cy="0.0" fill="blue" fill-opacity="0.65" r="234.5" stroke="blue" stroke-width="0.1" /><text text-anchor="middle" transform="translate(8763.5, 0.0) scale(6.5) rotate(-90)">06P1</text></g><g><circle cx="9065.0" cy="0.0" fill="blue" fill-opacity="0.65" r="67.0" stroke="blue" stroke-width="0.1" /><text text-anchor="middle" transform="translate(9065.0, 0.0) scale(6.5) rotate(-90)">10P3</text></g><g><circle cx="9299.5" cy="0.0" fill="blue" fill-opacity="0.65" r="167.5" stroke="blue" stroke-width="0.1" /><text text-anchor="middle" transform="translate(9299.5, 0.0) scale(6.5) rotate(-90)">12P1</text></g></g><g><line stroke="black" stroke-width="2.1" x1="1.2246467991473533e-15" x2="1.940452853248981e-13" y1="20.0" y2="3169.0" /><g><circle cx="1.1481063742006436e-14" cy="187.5" fill="red" fill-opacity="0.65" r="167.5" stroke="red" stroke-width="0.1" /><text text-anchor="middle" transform="translate(1.1481063742006436e-14, 187.5) scale(6.5) rotate(0)">03P3</text></g><g><circle cx="3.19938976277246e-14" cy="522.5" fill="red" fill-opacity="0.65" r="167.5" stroke="red" stroke-width="0.1" /><text text-anchor="middle" transform="translate(3.19938976277246e-14, 522.5) scale(6.5) rotate(0)">05P1</text></g><g><circle cx="6.071186506773003e-14" cy="991.5" fill="red" fill-opacity="0.65" r="301.5" stroke="red" stroke-width="0.1" /><text text-anchor="middle" transform="translate(6.071186506773003e-14, 991.5) scale(6.5) rotate(0)">09P1</text></g><g><circle cx="8.327598234202001e-14" cy="1360.0" fill="red" fill-opacity="0.65" r="67.0" stroke="red" stroke-width="0.1" /><text text-anchor="middle" transform="translate(8.327598234202001e-14, 1360.0) scale(6.5) rotate(0)">09P3</text></g><g><circle cx="9.35323992848791e-14" cy="1527.5" fill="red" fill-opacity="0.65" r="100.5" stroke="red" stroke-width="0.1" /><text text-anchor="middle" transform="translate(9.35323992848791e-14, 1527.5) scale(6.5) rotate(0)">09P2</text></g><g><circle cx="1.0584009961631e-13" cy="1728.5" fill="red" fill-opacity="0.65" r="100.5" stroke="red" stroke-width="0.1" /><text text-anchor="middle" transform="translate(1.0584009961631e-13, 1728.5) scale(6.5) rotate(0)">03P1</text></g><g><circle cx="1.1609651655916907e-13" cy="1896.0" fill="red" fill-opacity="0.65" r="67.0" stroke="red" stroke-width="0.1" /><text text-anchor="middle" transform="translate(1.1609651655916907e-13, 1896.0) scale(6.5) rotate(0)">03P4</text></g><g><circle cx="1.2430165011345635e-13" cy="2030.0" fill="red" fill-opacity="0.65" r="67.0" stroke="red" stroke-width="0.1" /><text text-anchor="middle" transform="translate(1.2430165011345635e-13, 2030.0) scale(6.5) rotate(0)">15P3</text></g><g><circle cx="1.3866063383345905e-13" cy="2264.5" fill="red" fill-opacity="0.65" r="167.5" stroke="red" stroke-width="0.1" /><text text-anchor="middle" transform="translate(1.3866063383345905e-13, 2264.5) scale(6.5) rotate(0)">15P1</text></g><g><circle cx="1.5712218433060542e-13" cy="2566.0" fill="red" fill-opacity="0.65" r="134.0" stroke="red" stroke-width="0.1" /><text text-anchor="middle" transform="translate(1.5712218433060542e-13, 2566.0) scale(6.5) rotate(0)">15P2</text></g><g><circle cx="1.673786012734645e-13" cy="2733.5" fill="red" fill-opacity="0.65" r="33.5" stroke="red" stroke-width="0.1" /><text text-anchor="middle" transform="translate(1.673786012734645e-13, 2733.5) scale(6.5) rotate(0)">03P2</text></g><g><circle cx="1.7353245143917996e-13" cy="2834.0" fill="red" fill-opacity="0.65" r="67.0" stroke="red" stroke-width="0.1" /><text text-anchor="middle" transform="translate(1.7353245143917996e-13, 2834.0) scale(6.5) rotate(0)">09P4</text></g><g><circle cx="1.8584015177061085e-13" cy="3035.0" fill="red" fill-opacity="0.65" r="134.0" stroke="red" stroke-width="0.1" /><text text-anchor="middle" transform="translate(1.8584015177061085e-13, 3035.0) scale(6.5) rotate(0)">05P2</text></g><line stroke="black" stroke-width="2.1" x1="1.2246467991473533e-15" x2="1.940452853248981e-13" y1="20.0" y2="3169.0" /><g><circle cx="1.1481063742006436e-14" cy="187.5" fill="red" fill-opacity="0.65" r="167.5" stroke="red" stroke-width="0.1" /><text text-anchor="middle" transform="translate(1.1481063742006436e-14, 187.5) scale(6.5) rotate(0)">03P3</text></g><g><circle cx="3.19938976277246e-14" cy="522.5" fill="red" fill-opacity="0.65" r="167.5" stroke="red" stroke-width="0.1" /><text text-anchor="middle" transform="translate(3.19938976277246e-14, 522.5) scale(6.5) rotate(0)">05P1</text></g><g><circle cx="6.071186506773003e-14" cy="991.5" fill="red" fill-opacity="0.65" r="301.5" stroke="red" stroke-width="0.1" /><text text-anchor="middle" transform="translate(6.071186506773003e-14, 991.5) scale(6.5) rotate(0)">09P1</text></g><g><circle cx="8.327598234202001e-14" cy="1360.0" fill="red" fill-opacity="0.65" r="67.0" stroke="red" stroke-width="0.1" /><text text-anchor="middle" transform="translate(8.327598234202001e-14, 1360.0) scale(6.5) rotate(0)">09P3</text></g><g><circle cx="9.35323992848791e-14" cy="1527.5" fill="red" fill-opacity="0.65" r="100.5" stroke="red" stroke-width="0.1" /><text text-anchor="middle" transform="translate(9.35323992848791e-14, 1527.5) scale(6.5) rotate(0)">09P2</text></g><g><circle cx="1.0584009961631e-13" cy="1728.5" fill="red" fill-opacity="0.65" r="100.5" stroke="red" stroke-width="0.1" /><text text-anchor="middle" transform="translate(1.0584009961631e-13, 1728.5) scale(6.5) rotate(0)">03P1</text></g><g><circle cx="1.1609651655916907e-13" cy="1896.0" fill="red" fill-opacity="0.65" r="67.0" stroke="red" stroke-width="0.1" /><text text-anchor="middle" transform="translate(1.1609651655916907e-13, 1896.0) scale(6.5) rotate(0)">03P4</text></g><g><circle cx="1.2430165011345635e-13" cy="2030.0" fill="red" fill-opacity="0.65" r="67.0" stroke="red" stroke-width="0.1" /><text text-anchor="middle" transform="translate(1.2430165011345635e-13, 2030.0) scale(6.5) rotate(0)">15P3</text></g><g><circle cx="1.3866063383345905e-13" cy="2264.5" fill="red" fill-opacity="0.65" r="167.5" stroke="red" stroke-width="0.1" /><text text-anchor="middle" transform="translate(1.3866063383345905e-13, 2264.5) scale(6.5) rotate(0)">15P1</text></g><g><circle cx="1.5712218433060542e-13" cy="2566.0" fill="red" fill-opacity="0.65" r="134.0" stroke="red" stroke-width="0.1" /><text text-anchor="middle" transform="translate(1.5712218433060542e-13, 2566.0) scale(6.5) rotate(0)">15P2</text></g><g><circle cx="1.673786012734645e-13" cy="2733.5" fill="red" fill-opacity="0.65" r="33.5" stroke="red" stroke-width="0.1" /><text text-anchor="middle" transform="translate(1.673786012734645e-13, 2733.5) scale(6.5) rotate(0)">03P2</text></g><g><circle cx="1.7353245143917996e-13" cy="2834.0" fill="red" fill-opacity="0.65" r="67.0" stroke="red" stroke-width="0.1" /><text text-anchor="middle" transform="translate(1.7353245143917996e-13, 2834.0) scale(6.5) rotate(0)">09P4</text></g><g><circle cx="1.8584015177061085e-13" cy="3035.0" fill="red" fill-opacity="0.65" r="134.0" stroke="red" stroke-width="0.1" /><text text-anchor="middle" transform="translate(1.8584015177061085e-13, 3035.0) scale(6.5) rotate(0)">05P2</text></g></g><g><line stroke="black" stroke-width="2.1" x1="-20.0" x2="-11008.0" y1="2.4492935982947065e-15" y2="1.3480911965014063e-12" /><g><circle cx="-690.0" cy="8.450062914116737e-14" fill="green" fill-opacity="0.65" r="670.0" stroke="green" stroke-width="0.1" /><text text-anchor="middle" transform="translate(-690.0, 8.450062914116737e-14) scale(6.5) rotate(90)">14P1</text></g><g><circle cx="-1795.5" cy="2.1988533278690727e-13" fill="green" fill-opacity="0.65" r="435.5" stroke="green" stroke-width="0.1" /><text text-anchor="middle" transform="translate(-1795.5, 2.1988533278690727e-13) scale(6.5) rotate(90)">14P4</text></g><g><circle cx="-2465.5" cy="3.0193666832977995e-13" fill="green" fill-opacity="0.65" r="234.5" stroke="green" stroke-width="0.1" /><text text-anchor="middle" transform="translate(-2465.5, 3.0193666832977995e-13) scale(6.5) rotate(90)">04P5</text></g><g><circle cx="-3035.0" cy="3.716803035412217e-13" fill="green" fill-opacity="0.65" r="335.0" stroke="green" stroke-width="0.1" /><text text-anchor="middle" transform="translate(-3035.0, 3.716803035412217e-13) scale(6.5) rotate(90)">11P1</text></g><g><circle cx="-3604.5" cy="4.4142393875266346e-13" fill="green" fill-opacity="0.65" r="234.5" stroke="green" stroke-width="0.1" /><text text-anchor="middle" transform="translate(-3604.5, 4.4142393875266346e-13) scale(6.5) rotate(90)">04P4</text></g><g><circle cx="-3939.5" cy="4.824496065240998e-13" fill="green" fill-opacity="0.65" r="100.5" stroke="green" stroke-width="0.1" /><text text-anchor="middle" transform="translate(-3939.5, 4.824496065240998e-13) scale(6.5) rotate(90)">14P6</text></g><g><circle cx="-4509.0" cy="5.521932417355415e-13" fill="green" fill-opacity="0.65" r="469.0" stroke="green" stroke-width="0.1" /><text text-anchor="middle" transform="translate(-4509.0, 5.521932417355415e-13) scale(6.5) rotate(90)">14P2</text></g><g><circle cx="-5112.0" cy="6.26039443724127e-13" fill="green" fill-opacity="0.65" r="134.0" stroke="green" stroke-width="0.1" /><text text-anchor="middle" transform="translate(-5112.0, 6.26039443724127e-13) scale(6.5) rotate(90)">07P3</text></g><g><circle cx="-5413.5" cy="6.629625447184197e-13" fill="green" fill-opacity="0.65" r="167.5" stroke="green" stroke-width="0.1" /><text text-anchor="middle" transform="translate(-5413.5, 6.629625447184197e-13) scale(6.5) rotate(90)">07P2</text></g><g><circle cx="-6016.5" cy="7.36808746707005e-13" fill="green" fill-opacity="0.65" r="435.5" stroke="green" stroke-width="0.1" /><text text-anchor="middle" transform="translate(-6016.5, 7.36808746707005e-13) scale(6.5) rotate(90)">08P1</text></g><g><circle cx="-6586.0" cy="8.065523819184468e-13" fill="green" fill-opacity="0.65" r="134.0" stroke="green" stroke-width="0.1" /><text text-anchor="middle" transform="translate(-6586.0, 8.065523819184468e-13) scale(6.5) rotate(90)">04P2</text></g><g><circle cx="-7088.5" cy="8.680908835756013e-13" fill="green" fill-opacity="0.65" r="368.5" stroke="green" stroke-width="0.1" /><text text-anchor="middle" transform="translate(-7088.5, 8.680908835756013e-13) scale(6.5) rotate(90)">14P3</text></g><g><circle cx="-7490.5" cy="9.17321684901325e-13" fill="green" fill-opacity="0.65" r="33.5" stroke="green" stroke-width="0.1" /><text text-anchor="middle" transform="translate(-7490.5, 9.17321684901325e-13) scale(6.5) rotate(90)">08P2</text></g><g><circle cx="-7892.5" cy="9.665524862270486e-13" fill="green" fill-opacity="0.65" r="368.5" stroke="green" stroke-width="0.1" /><text text-anchor="middle" transform="translate(-7892.5, 9.665524862270486e-13) scale(6.5) rotate(90)">07P1</text></g><g><circle cx="-8395.0" cy="1.028090987884203e-12" fill="green" fill-opacity="0.65" r="134.0" stroke="green" stroke-width="0.1" /><text text-anchor="middle" transform="translate(-8395.0, 1.028090987884203e-12) scale(6.5) rotate(90)">14P5</text></g><g><circle cx="-9232.5" cy="1.1306551573127938e-12" fill="green" fill-opacity="0.65" r="703.5" stroke="green" stroke-width="0.1" /><text text-anchor="middle" transform="translate(-9232.5, 1.1306551573127938e-12) scale(6.5) rotate(90)">04P1</text></g><g><circle cx="-10003.0" cy="1.2250141931870974e-12" fill="green" fill-opacity="0.65" r="67.0" stroke="green" stroke-width="0.1" /><text text-anchor="middle" transform="translate(-10003.0, 1.2250141931870974e-12) scale(6.5) rotate(90)">11P2</text></g><g><circle cx="-10539.0" cy="1.2906552616213956e-12" fill="green" fill-opacity="0.65" r="469.0" stroke="green" stroke-width="0.1" /><text text-anchor="middle" transform="translate(-10539.0, 1.2906552616213956e-12) scale(6.5) rotate(90)">04P3</text></g><line stroke="black" stroke-width="2.1" x1="-20.0" x2="-11008.0" y1="2.4492935982947065e-15" y2="1.3480911965014063e-12" /><g><circle cx="-690.0" cy="8.450062914116737e-14" fill="green" fill-opacity="0.65" r="670.0" stroke="green" stroke-width="0.1" /><text text-anchor="middle" transform="translate(-690.0, 8.450062914116737e-14) scale(6.5) rotate(90)">14P1</text></g><g><circle cx="-1795.5" cy="2.1988533278690727e-13" fill="green" fill-opacity="0.65" r="435.5" stroke="green" stroke-width="0.1" /><text text-anchor="middle" transform="translate(-1795.5, 2.1988533278690727e-13) scale(6.5) rotate(90)">14P4</text></g><g><circle cx="-2465.5" cy="3.0193666832977995e-13" fill="green" fill-opacity="0.65" r="234.5" stroke="green" stroke-width="0.1" /><text text-anchor="middle" transform="translate(-2465.5, 3.0193666832977995e-13) scale(6.5) rotate(90)">04P5</text></g><g><circle cx="-3035.0" cy="3.716803035412217e-13" fill="green" fill-opacity="0.65" r="335.0" stroke="green" stroke-width="0.1" /><text text-anchor="middle" transform="translate(-3035.0, 3.716803035412217e-13) scale(6.5) rotate(90)">11P1</text></g><g><circle cx="-3604.5" cy="4.4142393875266346e-13" fill="green" fill-opacity="0.65" r="234.5" stroke="green" stroke-width="0.1" /><text text-anchor="middle" transform="translate(-3604.5, 4.4142393875266346e-13) scale(6.5) rotate(90)">04P4</text></g><g><circle cx="-3939.5" cy="4.824496065240998e-13" fill="green" fill-opacity="0.65" r="100.5" stroke="green" stroke-width="0.1" /><text text-anchor="middle" transform="translate(-3939.5, 4.824496065240998e-13) scale(6.5) rotate(90)">14P6</text></g><g><circle cx="-4509.0" cy="5.521932417355415e-13" fill="green" fill-opacity="0.65" r="469.0" stroke="green" stroke-width="0.1" /><text text-anchor="middle" transform="translate(-4509.0, 5.521932417355415e-13) scale(6.5) rotate(90)">14P2</text></g><g><circle cx="-5112.0" cy="6.26039443724127e-13" fill="green" fill-opacity="0.65" r="134.0" stroke="green" stroke-width="0.1" /><text text-anchor="middle" transform="translate(-5112.0, 6.26039443724127e-13) scale(6.5) rotate(90)">07P3</text></g><g><circle cx="-5413.5" cy="6.629625447184197e-13" fill="green" fill-opacity="0.65" r="167.5" stroke="green" stroke-width="0.1" /><text text-anchor="middle" transform="translate(-5413.5, 6.629625447184197e-13) scale(6.5) rotate(90)">07P2</text></g><g><circle cx="-6016.5" cy="7.36808746707005e-13" fill="green" fill-opacity="0.65" r="435.5" stroke="green" stroke-width="0.1" /><text text-anchor="middle" transform="translate(-6016.5, 7.36808746707005e-13) scale(6.5) rotate(90)">08P1</text></g><g><circle cx="-6586.0" cy="8.065523819184468e-13" fill="green" fill-opacity="0.65" r="134.0" stroke="green" stroke-width="0.1" /><text text-anchor="middle" transform="translate(-6586.0, 8.065523819184468e-13) scale(6.5) rotate(90)">04P2</text></g><g><circle cx="-7088.5" cy="8.680908835756013e-13" fill="green" fill-opacity="0.65" r="368.5" stroke="green" stroke-width="0.1" /><text text-anchor="middle" transform="translate(-7088.5, 8.680908835756013e-13) scale(6.5) rotate(90)">14P3</text></g><g><circle cx="-7490.5" cy="9.17321684901325e-13" fill="green" fill-opacity="0.65" r="33.5" stroke="green" stroke-width="0.1" /><text text-anchor="middle" transform="translate(-7490.5, 9.17321684901325e-13) scale(6.5) rotate(90)">08P2</text></g><g><circle cx="-7892.5" cy="9.665524862270486e-13" fill="green" fill-opacity="0.65" r="368.5" stroke="green" stroke-width="0.1" /><text text-anchor="middle" transform="translate(-7892.5, 9.665524862270486e-13) scale(6.5) rotate(90)">07P1</text></g><g><circle cx="-8395.0" cy="1.028090987884203e-12" fill="green" fill-opacity="0.65" r="134.0" stroke="green" stroke-width="0.1" /><text text-anchor="middle" transform="translate(-8395.0, 1.028090987884203e-12) scale(6.5) rotate(90)">14P5</text></g><g><circle cx="-9232.5" cy="1.1306551573127938e-12" fill="green" fill-opacity="0.65" r="703.5" stroke="green" stroke-width="0.1" /><text text-anchor="middle" transform="translate(-9232.5, 1.1306551573127938e-12) scale(6.5) rotate(90)">04P1</text></g><g><circle cx="-10003.0" cy="1.2250141931870974e-12" fill="green" fill-opacity="0.65" r="67.0" stroke="green" stroke-width="0.1" /><text text-anchor="middle" transform="translate(-10003.0, 1.2250141931870974e-12) scale(6.5) rotate(90)">11P2</text></g><g><circle cx="-10539.0" cy="1.2906552616213956e-12" fill="green" fill-opacity="0.65" r="469.0" stroke="green" stroke-width="0.1" /><text text-anchor="middle" transform="translate(-10539.0, 1.2906552616213956e-12) scale(6.5) rotate(90)">04P3</text></g></g><g><line stroke="black" stroke-width="2.1" x1="-3.673940397442059e-15" x2="-2.4982794702606006e-13" y1="-20.0" y2="-1360.0" /><g><circle cx="-5.905859188888111e-14" cy="-321.5" fill="purple" fill-opacity="0.65" r="301.5" stroke="purple" stroke-width="0.1" /><text text-anchor="middle" transform="translate(-5.905859188888111e-14, -321.5) scale(6.5) rotate(180)">17P2</text></g><g><circle cx="-1.8213559520319008e-13" cy="-991.5" fill="purple" fill-opacity="0.65" r="368.5" stroke="purple" stroke-width="0.1" /><text text-anchor="middle" transform="translate(-1.8213559520319008e-13, -991.5) scale(6.5) rotate(180)">17P1</text></g><line stroke="black" stroke-width="2.1" x1="-3.673940397442059e-15" x2="-2.4982794702606006e-13" y1="-20.0" y2="-1360.0" /><g><circle cx="-5.905859188888111e-14" cy="-321.5" fill="purple" fill-opacity="0.65" r="301.5" stroke="purple" stroke-width="0.1" /><text text-anchor="middle" transform="translate(-5.905859188888111e-14, -321.5) scale(6.5) rotate(180)">17P2</text></g><g><circle cx="-1.8213559520319008e-13" cy="-991.5" fill="purple" fill-opacity="0.65" r="368.5" stroke="purple" stroke-width="0.1" /><text text-anchor="middle" transform="translate(-1.8213559520319008e-13, -991.5) scale(6.5) rotate(180)">17P1</text></g></g><g><line stroke="black" stroke-width="2.1" x1="20.0" x2="9467.0" y1="0.0" y2="0.0" /><g><circle cx="321.5" cy="0.0" fill="blue" fill-opacity="0.65" r="301.5" stroke="blue" stroke-width="0.1" /><text text-anchor="middle" transform="translate(321.5, 0.0) scale(6.5) rotate(-90)">01P4</text></g><g><circle cx="723.5" cy="0.0" fill="blue" fill-opacity="0.65" r="100.5" stroke="blue" stroke-width="0.1" /><text text-anchor="middle" transform="translate(723.5, 0.0) scale(6.5) rotate(-90)">13P2</text></g><g><circle cx="991.5" cy="0.0" fill="blue" fill-opacity="0.65" r="167.5" stroke="blue" stroke-width="0.1" /><text text-anchor="middle" transform="translate(991.5, 0.0) scale(6.5) rotate(-90)">10P4</text></g><g><circle cx="1795.5" cy="0.0" fill="blue" fill-opacity="0.65" r="636.5" stroke="blue" stroke-width="0.1" /><text text-anchor="middle" transform="translate(1795.5, 0.0) scale(6.5) rotate(-90)">13P1</text></g><g><circle cx="2666.5" cy="0.0" fill="blue" fill-opacity="0.65" r="234.5" stroke="blue" stroke-width="0.1" /><text text-anchor="middle" transform="translate(2666.5, 0.0) scale(6.5) rotate(-90)">06P3</text></g><g><circle cx="3068.5" cy="0.0" fill="blue" fill-opacity="0.65" r="167.5" stroke="blue" stroke-width="0.1" /><text text-anchor="middle" transform="translate(3068.5, 0.0) scale(6.5) rotate(-90)">12P4</text></g><g><circle cx="3437.0" cy="0.0" fill="blue" fill-opacity="0.65" r="201.0" stroke="blue" stroke-width="0.1" /><text text-anchor="middle" transform="translate(3437.0, 0.0) scale(6.5) rotate(-90)">12P2</text></g><g><circle cx="3906.0" cy="0.0" fill="blue" fill-opacity="0.65" r="268.0" stroke="blue" stroke-width="0.1" /><text text-anchor="middle" transform="translate(3906.0, 0.0) scale(6.5) rotate(-90)">06P2</text></g><g><circle cx="4274.5" cy="0.0" fill="blue" fill-opacity="0.65" r="100.5" stroke="blue" stroke-width="0.1" /><text text-anchor="middle" transform="translate(4274.5, 0.0) scale(6.5) rotate(-90)">06P4</text></g><g><circle cx="4777.0" cy="0.0" fill="blue" fill-opacity="0.65" r="402.0" stroke="blue" stroke-width="0.1" /><text text-anchor="middle" transform="translate(4777.0, 0.0) scale(6.5) rotate(-90)">01P3</text></g><g><circle cx="5547.5" cy="0.0" fill="blue" fill-opacity="0.65" r="368.5" stroke="blue" stroke-width="0.1" /><text text-anchor="middle" transform="translate(5547.5, 0.0) scale(6.5) rotate(-90)">16P2</text></g><g><circle cx="6016.5" cy="0.0" fill="blue" fill-opacity="0.65" r="100.5" stroke="blue" stroke-width="0.1" /><text text-anchor="middle" transform="translate(6016.5, 0.0) scale(6.5) rotate(-90)">10P2</text></g><g><circle cx="6284.5" cy="0.0" fill="blue" fill-opacity="0.65" r="167.5" stroke="blue" stroke-width="0.1" /><text text-anchor="middle" transform="translate(6284.5, 0.0) scale(6.5) rotate(-90)">16P1</text></g><g><circle cx="6854.0" cy="0.0" fill="blue" fill-opacity="0.65" r="402.0" stroke="blue" stroke-width="0.1" /><text text-anchor="middle" transform="translate(6854.0, 0.0) scale(6.5) rotate(-90)">10P1</text></g><g><circle cx="7390.0" cy="0.0" fill="blue" fill-opacity="0.65" r="134.0" stroke="blue" stroke-width="0.1" /><text text-anchor="middle" transform="translate(7390.0, 0.0) scale(6.5) rotate(-90)">01P2</text></g><g><circle cx="7792.0" cy="0.0" fill="blue" fill-opacity="0.65" r="268.0" stroke="blue" stroke-width="0.1" /><text text-anchor="middle" transform="translate(7792.0, 0.0) scale(6.5) rotate(-90)">13P3</text></g><g><circle cx="8127.0" cy="0.0" fill="blue" fill-opacity="0.65" r="67.0" stroke="blue" stroke-width="0.1" /><text text-anchor="middle" transform="translate(8127.0, 0.0) scale(6.5) rotate(-90)">16P3</text></g><g><circle cx="8328.0" cy="0.0" fill="blue" fill-opacity="0.65" r="134.0" stroke="blue" stroke-width="0.1" /><text text-anchor="middle" transform="translate(8328.0, 0.0) scale(6.5) rotate(-90)">01P1</text></g><g><circle cx="8495.5" cy="0.0" fill="blue" fill-opacity="0.65" r="33.5" stroke="blue" stroke-width="0.1" /><text text-anchor="middle" transform="translate(8495.5, 0.0) scale(6.5) rotate(-90)">12P3</text></g><g><circle cx="8763.5" cy="0.0" fill="blue" fill-opacity="0.65" r="234.5" stroke="blue" stroke-width="0.1" /><text text-anchor="middle" transform="translate(8763.5, 0.0) scale(6.5) rotate(-90)">06P1</text></g><g><circle cx="9065.0" cy="0.0" fill="blue" fill-opacity="0.65" r="67.0" stroke="blue" stroke-width="0.1" /><text text-anchor="middle" transform="translate(9065.0, 0.0) scale(6.5) rotate(-90)">10P3</text></g><g><circle cx="9299.5" cy="0.0" fill="blue" fill-opacity="0.65" r="167.5" stroke="blue" stroke-width="0.1" /><text text-anchor="middle" transform="translate(9299.5, 0.0) scale(6.5) rotate(-90)">12P1</text></g><line stroke="black" stroke-width="2.1" x1="20.0" x2="9467.0" y1="0.0" y2="0.0" /><g><circle cx="321.5" cy="0.0" fill="blue" fill-opacity="0.65" r="301.5" stroke="blue" stroke-width="0.1" /><text text-anchor="middle" transform="translate(321.5, 0.0) scale(6.5) rotate(-90)">01P4</text></g><g><circle cx="723.5" cy="0.0" fill="blue" fill-opacity="0.65" r="100.5" stroke="blue" stroke-width="0.1" /><text text-anchor="middle" transform="translate(723.5, 0.0) scale(6.5) rotate(-90)">13P2</text></g><g><circle cx="991.5" cy="0.0" fill="blue" fill-opacity="0.65" r="167.5" stroke="blue" stroke-width="0.1" /><text text-anchor="middle" transform="translate(991.5, 0.0) scale(6.5) rotate(-90)">10P4</text></g><g><circle cx="1795.5" cy="0.0" fill="blue" fill-opacity="0.65" r="636.5" stroke="blue" stroke-width="0.1" /><text text-anchor="middle" transform="translate(1795.5, 0.0) scale(6.5) rotate(-90)">13P1</text></g><g><circle cx="2666.5" cy="0.0" fill="blue" fill-opacity="0.65" r="234.5" stroke="blue" stroke-width="0.1" /><text text-anchor="middle" transform="translate(2666.5, 0.0) scale(6.5) rotate(-90)">06P3</text></g><g><circle cx="3068.5" cy="0.0" fill="blue" fill-opacity="0.65" r="167.5" stroke="blue" stroke-width="0.1" /><text text-anchor="middle" transform="translate(3068.5, 0.0) scale(6.5) rotate(-90)">12P4</text></g><g><circle cx="3437.0" cy="0.0" fill="blue" fill-opacity="0.65" r="201.0" stroke="blue" stroke-width="0.1" /><text text-anchor="middle" transform="translate(3437.0, 0.0) scale(6.5) rotate(-90)">12P2</text></g><g><circle cx="3906.0" cy="0.0" fill="blue" fill-opacity="0.65" r="268.0" stroke="blue" stroke-width="0.1" /><text text-anchor="middle" transform="translate(3906.0, 0.0) scale(6.5) rotate(-90)">06P2</text></g><g><circle cx="4274.5" cy="0.0" fill="blue" fill-opacity="0.65" r="100.5" stroke="blue" stroke-width="0.1" /><text text-anchor="middle" transform="translate(4274.5, 0.0) scale(6.5) rotate(-90)">06P4</text></g><g><circle cx="4777.0" cy="0.0" fill="blue" fill-opacity="0.65" r="402.0" stroke="blue" stroke-width="0.1" /><text text-anchor="middle" transform="translate(4777.0, 0.0) scale(6.5) rotate(-90)">01P3</text></g><g><circle cx="5547.5" cy="0.0" fill="blue" fill-opacity="0.65" r="368.5" stroke="blue" stroke-width="0.1" /><text text-anchor="middle" transform="translate(5547.5, 0.0) scale(6.5) rotate(-90)">16P2</text></g><g><circle cx="6016.5" cy="0.0" fill="blue" fill-opacity="0.65" r="100.5" stroke="blue" stroke-width="0.1" /><text text-anchor="middle" transform="translate(6016.5, 0.0) scale(6.5) rotate(-90)">10P2</text></g><g><circle cx="6284.5" cy="0.0" fill="blue" fill-opacity="0.65" r="167.5" stroke="blue" stroke-width="0.1" /><text text-anchor="middle" transform="translate(6284.5, 0.0) scale(6.5) rotate(-90)">16P1</text></g><g><circle cx="6854.0" cy="0.0" fill="blue" fill-opacity="0.65" r="402.0" stroke="blue" stroke-width="0.1" /><text text-anchor="middle" transform="translate(6854.0, 0.0) scale(6.5) rotate(-90)">10P1</text></g><g><circle cx="7390.0" cy="0.0" fill="blue" fill-opacity="0.65" r="134.0" stroke="blue" stroke-width="0.1" /><text text-anchor="middle" transform="translate(7390.0, 0.0) scale(6.5) rotate(-90)">01P2</text></g><g><circle cx="7792.0" cy="0.0" fill="blue" fill-opacity="0.65" r="268.0" stroke="blue" stroke-width="0.1" /><text text-anchor="middle" transform="translate(7792.0, 0.0) scale(6.5) rotate(-90)">13P3</text></g><g><circle cx="8127.0" cy="0.0" fill="blue" fill-opacity="0.65" r="67.0" stroke="blue" stroke-width="0.1" /><text text-anchor="middle" transform="translate(8127.0, 0.0) scale(6.5) rotate(-90)">16P3</text></g><g><circle cx="8328.0" cy="0.0" fill="blue" fill-opacity="0.65" r="134.0" stroke="blue" stroke-width="0.1" /><text text-anchor="middle" transform="translate(8328.0, 0.0) scale(6.5) rotate(-90)">01P1</text></g><g><circle cx="8495.5" cy="0.0" fill="blue" fill-opacity="0.65" r="33.5" stroke="blue" stroke-width="0.1" /><text text-anchor="middle" transform="translate(8495.5, 0.0) scale(6.5) rotate(-90)">12P3</text></g><g><circle cx="8763.5" cy="0.0" fill="blue" fill-opacity="0.65" r="234.5" stroke="blue" stroke-width="0.1" /><text text-anchor="middle" transform="translate(8763.5, 0.0) scale(6.5) rotate(-90)">06P1</text></g><g><circle cx="9065.0" cy="0.0" fill="blue" fill-opacity="0.65" r="67.0" stroke="blue" stroke-width="0.1" /><text text-anchor="middle" transform="translate(9065.0, 0.0) scale(6.5) rotate(-90)">10P3</text></g><g><circle cx="9299.5" cy="0.0" fill="blue" fill-opacity="0.65" r="167.5" stroke="blue" stroke-width="0.1" /><text text-anchor="middle" transform="translate(9299.5, 0.0) scale(6.5) rotate(-90)">12P1</text></g></g><g><line stroke="black" stroke-width="2.1" x1="1.2246467991473533e-15" x2="1.940452853248981e-13" y1="20.0" y2="3169.0" /><g><circle cx="1.1481063742006436e-14" cy="187.5" fill="red" fill-opacity="0.65" r="167.5" stroke="red" stroke-width="0.1" /><text text-anchor="middle" transform="translate(1.1481063742006436e-14, 187.5) scale(6.5) rotate(0)">03P3</text></g><g><circle cx="3.19938976277246e-14" cy="522.5" fill="red" fill-opacity="0.65" r="167.5" stroke="red" stroke-width="0.1" /><text text-anchor="middle" transform="translate(3.19938976277246e-14, 522.5) scale(6.5) rotate(0)">05P1</text></g><g><circle cx="6.071186506773003e-14" cy="991.5" fill="red" fill-opacity="0.65" r="301.5" stroke="red" stroke-width="0.1" /><text text-anchor="middle" transform="translate(6.071186506773003e-14, 991.5) scale(6.5) rotate(0)">09P1</text></g><g><circle cx="8.327598234202001e-14" cy="1360.0" fill="red" fill-opacity="0.65" r="67.0" stroke="red" stroke-width="0.1" /><text text-anchor="middle" transform="translate(8.327598234202001e-14, 1360.0) scale(6.5) rotate(0)">09P3</text></g><g><circle cx="9.35323992848791e-14" cy="1527.5" fill="red" fill-opacity="0.65" r="100.5" stroke="red" stroke-width="0.1" /><text text-anchor="middle" transform="translate(9.35323992848791e-14, 1527.5) scale(6.5) rotate(0)">09P2</text></g><g><circle cx="1.0584009961631e-13" cy="1728.5" fill="red" fill-opacity="0.65" r="100.5" stroke="red" stroke-width="0.1" /><text text-anchor="middle" transform="translate(1.0584009961631e-13, 1728.5) scale(6.5) rotate(0)">03P1</text></g><g><circle cx="1.1609651655916907e-13" cy="1896.0" fill="red" fill-opacity="0.65" r="67.0" stroke="red" stroke-width="0.1" /><text text-anchor="middle" transform="translate(1.1609651655916907e-13, 1896.0) scale(6.5) rotate(0)">03P4</text></g><g><circle cx="1.2430165011345635e-13" cy="2030.0" fill="red" fill-opacity="0.65" r="67.0" stroke="red" stroke-width="0.1" /><text text-anchor="middle" transform="translate(1.2430165011345635e-13, 2030.0) scale(6.5) rotate(0)">15P3</text></g><g><circle cx="1.3866063383345905e-13" cy="2264.5" fill="red" fill-opacity="0.65" r="167.5" stroke="red" stroke-width="0.1" /><text text-anchor="middle" transform="translate(1.3866063383345905e-13, 2264.5) scale(6.5) rotate(0)">15P1</text></g><g><circle cx="1.5712218433060542e-13" cy="2566.0" fill="red" fill-opacity="0.65" r="134.0" stroke="red" stroke-width="0.1" /><text text-anchor="middle" transform="translate(1.5712218433060542e-13, 2566.0) scale(6.5) rotate(0)">15P2</text></g><g><circle cx="1.673786012734645e-13" cy="2733.5" fill="red" fill-opacity="0.65" r="33.5" stroke="red" stroke-width="0.1" /><text text-anchor="middle" transform="translate(1.673786012734645e-13, 2733.5) scale(6.5) rotate(0)">03P2</text></g><g><circle cx="1.7353245143917996e-13" cy="2834.0" fill="red" fill-opacity="0.65" r="67.0" stroke="red" stroke-width="0.1" /><text text-anchor="middle" transform="translate(1.7353245143917996e-13, 2834.0) scale(6.5) rotate(0)">09P4</text></g><g><circle cx="1.8584015177061085e-13" cy="3035.0" fill="red" fill-opacity="0.65" r="134.0" stroke="red" stroke-width="0.1" /><text text-anchor="middle" transform="translate(1.8584015177061085e-13, 3035.0) scale(6.5) rotate(0)">05P2</text></g><line stroke="black" stroke-width="2.1" x1="1.2246467991473533e-15" x2="1.940452853248981e-13" y1="20.0" y2="3169.0" /><g><circle cx="1.1481063742006436e-14" cy="187.5" fill="red" fill-opacity="0.65" r="167.5" stroke="red" stroke-width="0.1" /><text text-anchor="middle" transform="translate(1.1481063742006436e-14, 187.5) scale(6.5) rotate(0)">03P3</text></g><g><circle cx="3.19938976277246e-14" cy="522.5" fill="red" fill-opacity="0.65" r="167.5" stroke="red" stroke-width="0.1" /><text text-anchor="middle" transform="translate(3.19938976277246e-14, 522.5) scale(6.5) rotate(0)">05P1</text></g><g><circle cx="6.071186506773003e-14" cy="991.5" fill="red" fill-opacity="0.65" r="301.5" stroke="red" stroke-width="0.1" /><text text-anchor="middle" transform="translate(6.071186506773003e-14, 991.5) scale(6.5) rotate(0)">09P1</text></g><g><circle cx="8.327598234202001e-14" cy="1360.0" fill="red" fill-opacity="0.65" r="67.0" stroke="red" stroke-width="0.1" /><text text-anchor="middle" transform="translate(8.327598234202001e-14, 1360.0) scale(6.5) rotate(0)">09P3</text></g><g><circle cx="9.35323992848791e-14" cy="1527.5" fill="red" fill-opacity="0.65" r="100.5" stroke="red" stroke-width="0.1" /><text text-anchor="middle" transform="translate(9.35323992848791e-14, 1527.5) scale(6.5) rotate(0)">09P2</text></g><g><circle cx="1.0584009961631e-13" cy="1728.5" fill="red" fill-opacity="0.65" r="100.5" stroke="red" stroke-width="0.1" /><text text-anchor="middle" transform="translate(1.0584009961631e-13, 1728.5) scale(6.5) rotate(0)">03P1</text></g><g><circle cx="1.1609651655916907e-13" cy="1896.0" fill="red" fill-opacity="0.65" r="67.0" stroke="red" stroke-width="0.1" /><text text-anchor="middle" transform="translate(1.1609651655916907e-13, 1896.0) scale(6.5) rotate(0)">03P4</text></g><g><circle cx="1.2430165011345635e-13" cy="2030.0" fill="red" fill-opacity="0.65" r="67.0" stroke="red" stroke-width="0.1" /><text text-anchor="middle" transform="translate(1.2430165011345635e-13, 2030.0) scale(6.5) rotate(0)">15P3</text></g><g><circle cx="1.3866063383345905e-13" cy="2264.5" fill="red" fill-opacity="0.65" r="167.5" stroke="red" stroke-width="0.1" /><text text-anchor="middle" transform="translate(1.3866063383345905e-13, 2264.5) scale(6.5) rotate(0)">15P1</text></g><g><circle cx="1.5712218433060542e-13" cy="2566.0" fill="red" fill-opacity="0.65" r="134.0" stroke="red" stroke-width="0.1" /><text text-anchor="middle" transform="translate(1.5712218433060542e-13, 2566.0) scale(6.5) rotate(0)">15P2</text></g><g><circle cx="1.673786012734645e-13" cy="2733.5" fill="red" fill-opacity="0.65" r="33.5" stroke="red" stroke-width="0.1" /><text text-anchor="middle" transform="translate(1.673786012734645e-13, 2733.5) scale(6.5) rotate(0)">03P2</text></g><g><circle cx="1.7353245143917996e-13" cy="2834.0" fill="red" fill-opacity="0.65" r="67.0" stroke="red" stroke-width="0.1" /><text text-anchor="middle" transform="translate(1.7353245143917996e-13, 2834.0) scale(6.5) rotate(0)">09P4</text></g><g><circle cx="1.8584015177061085e-13" cy="3035.0" fill="red" fill-opacity="0.65" r="134.0" stroke="red" stroke-width="0.1" /><text text-anchor="middle" transform="translate(1.8584015177061085e-13, 3035.0) scale(6.5) rotate(0)">05P2</text></g></g><g><line stroke="black" stroke-width="2.1" x1="-20.0" x2="-11008.0" y1="2.4492935982947065e-15" y2="1.3480911965014063e-12" /><g><circle cx="-690.0" cy="8.450062914116737e-14" fill="green" fill-opacity="0.65" r="670.0" stroke="green" stroke-width="0.1" /><text text-anchor="middle" transform="translate(-690.0, 8.450062914116737e-14) scale(6.5) rotate(90)">14P1</text></g><g><circle cx="-1795.5" cy="2.1988533278690727e-13" fill="green" fill-opacity="0.65" r="435.5" stroke="green" stroke-width="0.1" /><text text-anchor="middle" transform="translate(-1795.5, 2.1988533278690727e-13) scale(6.5) rotate(90)">14P4</text></g><g><circle cx="-2465.5" cy="3.0193666832977995e-13" fill="green" fill-opacity="0.65" r="234.5" stroke="green" stroke-width="0.1" /><text text-anchor="middle" transform="translate(-2465.5, 3.0193666832977995e-13) scale(6.5) rotate(90)">04P5</text></g><g><circle cx="-3035.0" cy="3.716803035412217e-13" fill="green" fill-opacity="0.65" r="335.0" stroke="green" stroke-width="0.1" /><text text-anchor="middle" transform="translate(-3035.0, 3.716803035412217e-13) scale(6.5) rotate(90)">11P1</text></g><g><circle cx="-3604.5" cy="4.4142393875266346e-13" fill="green" fill-opacity="0.65" r="234.5" stroke="green" stroke-width="0.1" /><text text-anchor="middle" transform="translate(-3604.5, 4.4142393875266346e-13) scale(6.5) rotate(90)">04P4</text></g><g><circle cx="-3939.5" cy="4.824496065240998e-13" fill="green" fill-opacity="0.65" r="100.5" stroke="green" stroke-width="0.1" /><text text-anchor="middle" transform="translate(-3939.5, 4.824496065240998e-13) scale(6.5) rotate(90)">14P6</text></g><g><circle cx="-4509.0" cy="5.521932417355415e-13" fill="green" fill-opacity="0.65" r="469.0" stroke="green" stroke-width="0.1" /><text text-anchor="middle" transform="translate(-4509.0, 5.521932417355415e-13) scale(6.5) rotate(90)">14P2</text></g><g><circle cx="-5112.0" cy="6.26039443724127e-13" fill="green" fill-opacity="0.65" r="134.0" stroke="green" stroke-width="0.1" /><text text-anchor="middle" transform="translate(-5112.0, 6.26039443724127e-13) scale(6.5) rotate(90)">07P3</text></g><g><circle cx="-5413.5" cy="6.629625447184197e-13" fill="green" fill-opacity="0.65" r="167.5" stroke="green" stroke-width="0.1" /><text text-anchor="middle" transform="translate(-5413.5, 6.629625447184197e-13) scale(6.5) rotate(90)">07P2</text></g><g><circle cx="-6016.5" cy="7.36808746707005e-13" fill="green" fill-opacity="0.65" r="435.5" stroke="green" stroke-width="0.1" /><text text-anchor="middle" transform="translate(-6016.5, 7.36808746707005e-13) scale(6.5) rotate(90)">08P1</text></g><g><circle cx="-6586.0" cy="8.065523819184468e-13" fill="green" fill-opacity="0.65" r="134.0" stroke="green" stroke-width="0.1" /><text text-anchor="middle" transform="translate(-6586.0, 8.065523819184468e-13) scale(6.5) rotate(90)">04P2</text></g><g><circle cx="-7088.5" cy="8.680908835756013e-13" fill="green" fill-opacity="0.65" r="368.5" stroke="green" stroke-width="0.1" /><text text-anchor="middle" transform="translate(-7088.5, 8.680908835756013e-13) scale(6.5) rotate(90)">14P3</text></g><g><circle cx="-7490.5" cy="9.17321684901325e-13" fill="green" fill-opacity="0.65" r="33.5" stroke="green" stroke-width="0.1" /><text text-anchor="middle" transform="translate(-7490.5, 9.17321684901325e-13) scale(6.5) rotate(90)">08P2</text></g><g><circle cx="-7892.5" cy="9.665524862270486e-13" fill="green" fill-opacity="0.65" r="368.5" stroke="green" stroke-width="0.1" /><text text-anchor="middle" transform="translate(-7892.5, 9.665524862270486e-13) scale(6.5) rotate(90)">07P1</text></g><g><circle cx="-8395.0" cy="1.028090987884203e-12" fill="green" fill-opacity="0.65" r="134.0" stroke="green" stroke-width="0.1" /><text text-anchor="middle" transform="translate(-8395.0, 1.028090987884203e-12) scale(6.5) rotate(90)">14P5</text></g><g><circle cx="-9232.5" cy="1.1306551573127938e-12" fill="green" fill-opacity="0.65" r="703.5" stroke="green" stroke-width="0.1" /><text text-anchor="middle" transform="translate(-9232.5, 1.1306551573127938e-12) scale(6.5) rotate(90)">04P1</text></g><g><circle cx="-10003.0" cy="1.2250141931870974e-12" fill="green" fill-opacity="0.65" r="67.0" stroke="green" stroke-width="0.1" /><text text-anchor="middle" transform="translate(-10003.0, 1.2250141931870974e-12) scale(6.5) rotate(90)">11P2</text></g><g><circle cx="-10539.0" cy="1.2906552616213956e-12" fill="green" fill-opacity="0.65" r="469.0" stroke="green" stroke-width="0.1" /><text text-anchor="middle" transform="translate(-10539.0, 1.2906552616213956e-12) scale(6.5) rotate(90)">04P3</text></g><line stroke="black" stroke-width="2.1" x1="-20.0" x2="-11008.0" y1="2.4492935982947065e-15" y2="1.3480911965014063e-12" /><g><circle cx="-690.0" cy="8.450062914116737e-14" fill="green" fill-opacity="0.65" r="670.0" stroke="green" stroke-width="0.1" /><text text-anchor="middle" transform="translate(-690.0, 8.450062914116737e-14) scale(6.5) rotate(90)">14P1</text></g><g><circle cx="-1795.5" cy="2.1988533278690727e-13" fill="green" fill-opacity="0.65" r="435.5" stroke="green" stroke-width="0.1" /><text text-anchor="middle" transform="translate(-1795.5, 2.1988533278690727e-13) scale(6.5) rotate(90)">14P4</text></g><g><circle cx="-2465.5" cy="3.0193666832977995e-13" fill="green" fill-opacity="0.65" r="234.5" stroke="green" stroke-width="0.1" /><text text-anchor="middle" transform="translate(-2465.5, 3.0193666832977995e-13) scale(6.5) rotate(90)">04P5</text></g><g><circle cx="-3035.0" cy="3.716803035412217e-13" fill="green" fill-opacity="0.65" r="335.0" stroke="green" stroke-width="0.1" /><text text-anchor="middle" transform="translate(-3035.0, 3.716803035412217e-13) scale(6.5) rotate(90)">11P1</text></g><g><circle cx="-3604.5" cy="4.4142393875266346e-13" fill="green" fill-opacity="0.65" r="234.5" stroke="green" stroke-width="0.1" /><text text-anchor="middle" transform="translate(-3604.5, 4.4142393875266346e-13) scale(6.5) rotate(90)">04P4</text></g><g><circle cx="-3939.5" cy="4.824496065240998e-13" fill="green" fill-opacity="0.65" r="100.5" stroke="green" stroke-width="0.1" /><text text-anchor="middle" transform="translate(-3939.5, 4.824496065240998e-13) scale(6.5) rotate(90)">14P6</text></g><g><circle cx="-4509.0" cy="5.521932417355415e-13" fill="green" fill-opacity="0.65" r="469.0" stroke="green" stroke-width="0.1" /><text text-anchor="middle" transform="translate(-4509.0, 5.521932417355415e-13) scale(6.5) rotate(90)">14P2</text></g><g><circle cx="-5112.0" cy="6.26039443724127e-13" fill="green" fill-opacity="0.65" r="134.0" stroke="green" stroke-width="0.1" /><text text-anchor="middle" transform="translate(-5112.0, 6.26039443724127e-13) scale(6.5) rotate(90)">07P3</text></g><g><circle cx="-5413.5" cy="6.629625447184197e-13" fill="green" fill-opacity="0.65" r="167.5" stroke="green" stroke-width="0.1" /><text text-anchor="middle" transform="translate(-5413.5, 6.629625447184197e-13) scale(6.5) rotate(90)">07P2</text></g><g><circle cx="-6016.5" cy="7.36808746707005e-13" fill="green" fill-opacity="0.65" r="435.5" stroke="green" stroke-width="0.1" /><text text-anchor="middle" transform="translate(-6016.5, 7.36808746707005e-13) scale(6.5) rotate(90)">08P1</text></g><g><circle cx="-6586.0" cy="8.065523819184468e-13" fill="green" fill-opacity="0.65" r="134.0" stroke="green" stroke-width="0.1" /><text text-anchor="middle" transform="translate(-6586.0, 8.065523819184468e-13) scale(6.5) rotate(90)">04P2</text></g><g><circle cx="-7088.5" cy="8.680908835756013e-13" fill="green" fill-opacity="0.65" r="368.5" stroke="green" stroke-width="0.1" /><text text-anchor="middle" transform="translate(-7088.5, 8.680908835756013e-13) scale(6.5) rotate(90)">14P3</text></g><g><circle cx="-7490.5" cy="9.17321684901325e-13" fill="green" fill-opacity="0.65" r="33.5" stroke="green" stroke-width="0.1" /><text text-anchor="middle" transform="translate(-7490.5, 9.17321684901325e-13) scale(6.5) rotate(90)">08P2</text></g><g><circle cx="-7892.5" cy="9.665524862270486e-13" fill="green" fill-opacity="0.65" r="368.5" stroke="green" stroke-width="0.1" /><text text-anchor="middle" transform="translate(-7892.5, 9.665524862270486e-13) scale(6.5) rotate(90)">07P1</text></g><g><circle cx="-8395.0" cy="1.028090987884203e-12" fill="green" fill-opacity="0.65" r="134.0" stroke="green" stroke-width="0.1" /><text text-anchor="middle" transform="translate(-8395.0, 1.028090987884203e-12) scale(6.5) rotate(90)">14P5</text></g><g><circle cx="-9232.5" cy="1.1306551573127938e-12" fill="green" fill-opacity="0.65" r="703.5" stroke="green" stroke-width="0.1" /><text text-anchor="middle" transform="translate(-9232.5, 1.1306551573127938e-12) scale(6.5) rotate(90)">04P1</text></g><g><circle cx="-10003.0" cy="1.2250141931870974e-12" fill="green" fill-opacity="0.65" r="67.0" stroke="green" stroke-width="0.1" /><text text-anchor="middle" transform="translate(-10003.0, 1.2250141931870974e-12) scale(6.5) rotate(90)">11P2</text></g><g><circle cx="-10539.0" cy="1.2906552616213956e-12" fill="green" fill-opacity="0.65" r="469.0" stroke="green" stroke-width="0.1" /><text text-anchor="middle" transform="translate(-10539.0, 1.2906552616213956e-12) scale(6.5) rotate(90)">04P3</text></g></g><g><line stroke="black" stroke-width="2.1" x1="-3.673940397442059e-15" x2="-2.4982794702606006e-13" y1="-20.0" y2="-1360.0" /><g><circle cx="-5.905859188888111e-14" cy="-321.5" fill="purple" fill-opacity="0.65" r="301.5" stroke="purple" stroke-width="0.1" /><text text-anchor="middle" transform="translate(-5.905859188888111e-14, -321.5) scale(6.5) rotate(180)">17P2</text></g><g><circle cx="-1.8213559520319008e-13" cy="-991.5" fill="purple" fill-opacity="0.65" r="368.5" stroke="purple" stroke-width="0.1" /><text text-anchor="middle" transform="translate(-1.8213559520319008e-13, -991.5) scale(6.5) rotate(180)">17P1</text></g><line stroke="black" stroke-width="2.1" x1="-3.673940397442059e-15" x2="-2.4982794702606006e-13" y1="-20.0" y2="-1360.0" /><g><circle cx="-5.905859188888111e-14" cy="-321.5" fill="purple" fill-opacity="0.65" r="301.5" stroke="purple" stroke-width="0.1" /><text text-anchor="middle" transform="translate(-5.905859188888111e-14, -321.5) scale(6.5) rotate(180)">17P2</text></g><g><circle cx="-1.8213559520319008e-13" cy="-991.5" fill="purple" fill-opacity="0.65" r="368.5" stroke="purple" stroke-width="0.1" /><text text-anchor="middle" transform="translate(-1.8213559520319008e-13, -991.5) scale(6.5) rotate(180)">17P1</text></g></g></svg>