<?xml version="1.0" encoding="utf-8" ?>
<svg baseProfile="full" height="100%" version="1.1" viewBox="-8795.0,-8795.0,17590.0,17590.0" width="100%" xmlns="http://www.w3.org/2000/svg" xmlns:ev="http://www.w3.org/2001/xml-events" xmlns:xlink="http://www.w3.org/1999/xlink"><defs /><path d="M -4.293917839510407e-13 -2337.5 C 2337.4999999999995 -2337.5000000000005 1932.4999999999998 -1932.5 1932.5 0.0" fill="none" stroke="black" stroke-width="4.5" /><path d="M -3.1779584437873814e-13 -1730.0 C 1729.9999999999998 -1730.0000000000005 1932.4999999999998 -1932.5 1932.5 0.0" fill="none" stroke="black" stroke-width="4.5" /><path d="M -6.939154925668689e-13 -3777.5 C 3777.499999999999 -3777.500000000001 1932.5000000000002 -1932.5 1932.5 0.0" fill="none" stroke="black" stroke-width="4.5" /><path d="M -7.517800538265814e-13 -4092.5 C 4092.499999999999 -4092.500000000001 627.5 -627.5 627.5 0.0" fill="none" stroke="black" stroke-width="4.5" /><path d="M -1.0700351407549998e-13 -582.5 C 582.4999999999999 -582.5000000000001 627.5 -627.5 627.5 0.0" fill="none" stroke="black" stroke-width="4.5" /><path d="M -2.1859945364780254e-13 -1190.0 C 1189.9999999999998 -1190.0000000000002 627.5 -627.5 627.5 0.0" fill="none" stroke="black" stroke-width="4.5" /><path d="M -1.3180261175823389e-13 -717.5 C 717.4999999999999 -717.5000000000002 627.5 -627.5 627.5 0.0" fill="none" stroke="black" stroke-width="4.5" /><path d="M -4.707236134222639e-13 -2562.5 C 2562.4999999999995 -2562.5000000000005 627.5 -627.5 627.5 0.0" fill="none" stroke="black" stroke-width="4.5" /><path d="M -5.12055442893487e-13 -2787.5 C 2787.4999999999995 -2787.500000000001 627.5 -627.5 627.5 0.0" fill="none" stroke="black" stroke-width="4.5" /><path d="M -5.533872723647102e-13 -3012.5 C 3012.4999999999995 -3012.500000000001 1932.5000000000002 -1932.5 1932.5 0.0" fill="none" stroke="black" stroke-width="4.5" /><path d="M -3.508613079557167e-13 -1910.0 C 1909.9999999999995 -1910.0000000000005 1932.5000000000002 -1932.5 1932.5 0.0" fill="none" stroke="black" stroke-width="4.5" /><path d="M -6.401841142542789e-13 -3485.0 C 3484.9999999999995 -3485.000000000001 1932.5000000000002 -1932.5 1932.5 0.0" fill="none" stroke="black" stroke-width="4.5" /><path d="M 1932.5 0.0 C 1932.5000000000002 1932.5 7782.500000000001 7782.5 4.765406857182138e-13 7782.5" fill="none" stroke="black" stroke-width="4.5" /><path d="M 1932.5 0.0 C 1932.5000000000002 1932.5 4790.0 4790.0 2.933029083957911e-13 4790.0" fill="none" stroke="black" stroke-width="4.5" /><path d="M 1932.5 0.0 C 1932.5000000000002 1932.5 3350.0 3350.0 2.0512833885718165e-13 3350.0" fill="none" stroke="black" stroke-width="4.5" /><path d="M 1932.5 0.0 C 1932.5000000000002 1932.5 8457.5 8457.5 5.17872515189437e-13 8457.5" fill="none" stroke="black" stroke-width="4.5" /><path d="M 1932.5 0.0 C 1932.5000000000002 1932.5 5352.5 5352.5 3.277460996218104e-13 5352.5" fill="none" stroke="black" stroke-width="4.5" /><path d="M 1932.5 0.0 C 1932.5000000000002 1932.5 3800.0000000000005 3800.0 2.326828918379971e-13 3800.0" fill="none" stroke="black" stroke-width="4.5" /><path d="M 1932.5 0.0 C 1932.5000000000002 1932.5 920.0 920.0 5.633375276077825e-14 920.0" fill="none" stroke="black" stroke-width="4.5" /><path d="M 1932.5 0.0 C 1932.5000000000002 1932.5 7130.0 7130.0 4.3658658389603143e-13 7130.0" fill="none" stroke="black" stroke-width="4.5" /><path d="M 1932.5 0.0 C 1932.5000000000002 1932.5 6522.5 6522.5 3.993879373719306e-13 6522.5" fill="none" stroke="black" stroke-width="4.5" /><path d="M 1932.5 0.0 C 1932.5000000000002 1932.5 5352.5 5352.499999999999 3.277460996218104e-13 5352.5" fill="none" stroke="black" stroke-width="4.5" /><path d="M 627.5 0.0 C 627.5 627.5 1302.5 1302.5 7.975512279447137e-14 1302.5" fill="none" stroke="black" stroke-width="4.5" /><path d="M 627.5 0.0 C 627.5 627.5 5937.5 5937.5 3.635670184968705e-13 5937.5" fill="none" stroke="black" stroke-width="4.5" /><path d="M 627.5 0.0 C 627.5 627.5 1707.5 1707.5 1.0455422047720528e-13 1707.5" fill="none" stroke="black" stroke-width="4.5" /><path d="M 627.5 0.0 C 627.5 627.5 7782.500000000001 7782.5 4.765406857182138e-13 7782.5" fill="none" stroke="black" stroke-width="4.5" /><path d="M 627.5 0.0 C 627.5 627.5 8457.5 8457.5 5.17872515189437e-13 8457.5" fill="none" stroke="black" stroke-width="4.5" /><path d="M 627.5 0.0 C 627.5 627.5 5352.5 5352.5 3.277460996218104e-13 5352.5" fill="none" stroke="black" stroke-width="4.5" /><path d="M 627.5 0.0 C 627.5 627.5 920.0 920.0 5.633375276077825e-14 920.0" fill="none" stroke="black" stroke-width="4.5" /><path d="M 627.5 0.0 C 627.5 627.5 7130.0 7130.0 4.3658658389603143e-13 7130.0" fill="none" stroke="black" stroke-width="4.5" /><path d="M 627.5 0.0 C 627.5 627.5 6522.5 6522.5 3.993879373719306e-13 6522.5" fill="none" stroke="black" stroke-width="4.5" /><path d="M 1932.5 0.0 C 1932.5000000000002 1932.5 1707.5 1707.4999999999998 1.0455422047720528e-13 1707.5" fill="none" stroke="black" stroke-width="4.5" /><path d="M 1932.5 0.0 C 1932.5000000000002 1932.5 2112.5 2112.4999999999995 1.2935331815993918e-13 2112.5" fill="none" stroke="black" stroke-width="4.5" /><path d="M 1932.5 0.0 C 1932.5000000000002 1932.5 560.0 559.9999999999999 3.429011037612589e-14 560.0" fill="none" stroke="black" stroke-width="4.5" /><path d="M 627.5 0.0 C 627.5 627.5 8457.5 8457.499999999998 5.17872515189437e-13 8457.5" fill="none" stroke="black" stroke-width="4.5" /><path d="M 4.765406857182138e-13 7782.5 C -7782.499999999999 7782.500000000001 -7084.999999999999 7085.000000000001 -7085.0 8.676622571958998e-13" fill="none" stroke="black" stroke-width="4.5" /><path d="M 5.17872515189437e-13 8457.5 C -8457.5 8457.500000000002 -7084.999999999999 7085.000000000001 -7085.0 8.676622571958998e-13" fill="none" stroke="black" stroke-width="4.5" /><path d="M 1.541524158426731e-13 2517.5 C -2517.5 2517.5000000000005 -7084.999999999999 7085.000000000001 -7085.0 8.676622571958998e-13" fill="none" stroke="black" stroke-width="4.5" /><path d="M 3.277460996218104e-13 5352.5 C -5352.5 5352.500000000001 -7084.999999999999 7085.000000000001 -7085.0 8.676622571958998e-13" fill="none" stroke="black" stroke-width="4.5" /><path d="M 2.326828918379971e-13 3800.0 C -3799.9999999999995 3800.0000000000005 -7084.999999999999 7085.000000000001 -7085.0 8.676622571958998e-13" fill="none" stroke="black" stroke-width="4.5" /><path d="M 5.633375276077825e-14 920.0 C -920.0 920.0000000000001 -7084.999999999999 7085.000000000001 -7085.0 8.676622571958998e-13" fill="none" stroke="black" stroke-width="4.5" /><path d="M 4.3658658389603143e-13 7130.0 C -7130.0 7130.000000000001 -7084.999999999999 7085.000000000001 -7085.0 8.676622571958998e-13" fill="none" stroke="black" stroke-width="4.5" /><path d="M 3.993879373719306e-13 6522.5 C -6522.5 6522.500000000001 -7084.999999999999 7085.000000000001 -7085.0 8.676622571958998e-13" fill="none" stroke="black" stroke-width="4.5" /><path d="M 4.765406857182138e-13 7782.5 C -7782.499999999999 7782.500000000001 -5172.499999999999 5172.500000000001 -5172.5 6.334485568589685e-13" fill="none" stroke="black" stroke-width="4.5" /><path d="M 2.0512833885718165e-13 3350.0 C -3350.0 3350.0000000000005 -5172.499999999999 5172.500000000001 -5172.5 6.334485568589685e-13" fill="none" stroke="black" stroke-width="4.5" /><path d="M 1.78951513525407e-13 2922.5 C -2922.5 2922.5000000000005 -5172.499999999999 5172.500000000001 -5172.5 6.334485568589685e-13" fill="none" stroke="black" stroke-width="4.5" /><path d="M 5.17872515189437e-13 8457.5 C -8457.5 8457.500000000002 -5172.499999999999 5172.500000000001 -5172.5 6.334485568589685e-13" fill="none" stroke="black" stroke-width="4.5" /><path d="M 1.541524158426731e-13 2517.5 C -2517.5 2517.5000000000005 -5172.499999999999 5172.500000000001 -5172.5 6.334485568589685e-13" fill="none" stroke="black" stroke-width="4.5" /><path d="M 3.277460996218104e-13 5352.5 C -5352.5 5352.500000000001 -5172.499999999999 5172.500000000001 -5172.5 6.334485568589685e-13" fill="none" stroke="black" stroke-width="4.5" /><path d="M 5.633375276077825e-14 920.0 C -920.0 920.0000000000001 -5172.499999999999 5172.500000000001 -5172.5 6.334485568589685e-13" fill="none" stroke="black" stroke-width="4.5" /><path d="M 4.3658658389603143e-13 7130.0 C -7130.0 7130.000000000001 -5172.499999999999 5172.500000000001 -5172.5 6.334485568589685e-13" fill="none" stroke="black" stroke-width="4.5" /><path d="M 3.993879373719306e-13 6522.5 C -6522.5 6522.500000000001 -5172.499999999999 5172.500000000001 -5172.5 6.334485568589685e-13" fill="none" stroke="black" stroke-width="4.5" /><path d="M 3.993879373719306e-13 6522.5 C -6522.5 6522.500000000001 -4272.499999999999 4272.500000000001 -4272.5 5.232303449357066e-13" fill="none" stroke="black" stroke-width="4.5" /><path d="M 3.993879373719306e-13 6522.5 C -6522.5 6522.500000000001 -1122.4999999999998 1122.5000000000002 -1122.5 1.374666032042904e-13" fill="none" stroke="black" stroke-width="4.5" /><path d="M 2.933029083957911e-13 4790.0 C -4790.0 4790.000000000001 -5172.5 5172.500000000001 -5172.5 6.334485568589685e-13" fill="none" stroke="black" stroke-width="4.5" /><path d="M 2.933029083957911e-13 4790.0 C -4790.0 4790.000000000001 -4272.5 4272.500000000001 -4272.5 5.232303449357066e-13" fill="none" stroke="black" stroke-width="4.5" /><path d="M 1.2246467991473532e-14 200.0 C -200.0 200.00000000000003 -6117.5 6117.500000000001 -6117.5 7.491776793783933e-13" fill="none" stroke="black" stroke-width="4.5" /><path d="M 7.975512279447137e-14 1302.5 C -1302.5 1302.5000000000002 -8097.499999999999 8097.500000000001 -8097.5 9.916577456095692e-13" fill="none" stroke="black" stroke-width="4.5" /><path d="M 3.635670184968705e-13 5937.5 C -5937.5 5937.500000000001 -380.0 380.00000000000006 -380.0 4.653657836759942e-14" fill="none" stroke="black" stroke-width="4.5" /><path d="M 3.635670184968705e-13 5937.5 C -5937.5 5937.500000000001 -4272.5 4272.500000000001 -4272.5 5.232303449357066e-13" fill="none" stroke="black" stroke-width="4.5" /><path d="M 1.2246467991473532e-14 200.0 C -200.0 200.00000000000003 -6117.499999999999 6117.500000000001 -6117.5 7.491776793783933e-13" fill="none" stroke="black" stroke-width="4.5" /><path d="M 2.0512833885718165e-13 3350.0 C -3350.0 3350.0000000000005 -6117.499999999999 6117.500000000001 -6117.5 7.491776793783933e-13" fill="none" stroke="black" stroke-width="4.5" /><path d="M 3.277460996218104e-13 5352.5 C -5352.5 5352.500000000001 -6117.499999999999 6117.500000000001 -6117.5 7.491776793783933e-13" fill="none" stroke="black" stroke-width="4.5" /><path d="M 1.0455422047720528e-13 1707.5 C -1707.5 1707.5000000000002 -1122.5 1122.5000000000002 -1122.5 1.374666032042904e-13" fill="none" stroke="black" stroke-width="4.5" /><path d="M 1.0455422047720528e-13 1707.5 C -1707.5 1707.5000000000002 -1887.4999999999998 1887.5000000000002 -1887.5 2.3115208333906293e-13" fill="none" stroke="black" stroke-width="4.5" /><path d="M 3.993879373719306e-13 6522.5 C -6522.5 6522.500000000001 -1887.4999999999995 1887.5000000000002 -1887.5 2.3115208333906293e-13" fill="none" stroke="black" stroke-width="4.5" /><path d="M 1.2935331815993918e-13 2112.5 C -2112.5 2112.5000000000005 -2652.5 2652.5000000000005 -2652.5 3.2483756347383545e-13" fill="none" stroke="black" stroke-width="4.5" /><path d="M 1.2935331815993918e-13 2112.5 C -2112.5 2112.5000000000005 -1887.4999999999998 1887.5000000000002 -1887.5 2.3115208333906293e-13" fill="none" stroke="black" stroke-width="4.5" /><path d="M 4.765406857182138e-13 7782.5 C -7782.499999999999 7782.500000000001 -2652.4999999999995 2652.5000000000005 -2652.5 3.2483756347383545e-13" fill="none" stroke="black" stroke-width="4.5" /><path d="M 2.0512833885718165e-13 3350.0 C -3350.0 3350.0000000000005 -2652.4999999999995 2652.5000000000005 -2652.5 3.2483756347383545e-13" fill="none" stroke="black" stroke-width="4.5" /><path d="M 5.17872515189437e-13 8457.5 C -8457.5 8457.500000000002 -2652.4999999999995 2652.5000000000005 -2652.5 3.2483756347383545e-13" fill="none" stroke="black" stroke-width="4.5" /><path d="M 3.277460996218104e-13 5352.5 C -5352.5 5352.500000000001 -2652.4999999999995 2652.5000000000005 -2652.5 3.2483756347383545e-13" fill="none" stroke="black" stroke-width="4.5" /><path d="M 3.429011037612589e-14 560.0 C -560.0 560.0000000000001 -1122.5 1122.5000000000002 -1122.5 1.374666032042904e-13" fill="none" stroke="black" stroke-width="4.5" /><path d="M 4.765406857182138e-13 7782.5 C -7782.499999999999 7782.500000000001 -4272.5 4272.500000000001 -4272.5 5.232303449357066e-13" fill="none" stroke="black" stroke-width="4.5" /><path d="M 4.765406857182138e-13 7782.5 C -7782.499999999999 7782.500000000001 -8097.499999999998 8097.500000000001 -8097.5 9.916577456095692e-13" fill="none" stroke="black" stroke-width="4.5" /><path d="M 2.0512833885718165e-13 3350.0 C -3350.0 3350.0000000000005 -8097.499999999998 8097.500000000001 -8097.5 9.916577456095692e-13" fill="none" stroke="black" stroke-width="4.5" /><path d="M 3.635670184968705e-13 5937.5 C -5937.5 5937.500000000001 -8097.499999999998 8097.500000000001 -8097.5 9.916577456095692e-13" fill="none" stroke="black" stroke-width="4.5" /><path d="M 3.277460996218104e-13 5352.5 C -5352.5 5352.500000000001 -8097.499999999998 8097.500000000001 -8097.5 9.916577456095692e-13" fill="none" stroke="black" stroke-width="4.5" /><path d="M 3.429011037612589e-14 560.0 C -560.0 560.0000000000001 -8097.499999999998 8097.500000000001 -8097.5 9.916577456095692e-13" fill="none" stroke="black" stroke-width="4.5" /><path d="M 1.0455422047720528e-13 1707.5 C -1707.5 1707.5000000000002 -8097.499999999998 8097.500000000001 -8097.5 9.916577456095692e-13" fill="none" stroke="black" stroke-width="4.5" /><path d="M 2.326828918379971e-13 3800.0 C -3799.9999999999995 3800.0000000000005 -8097.499999999998 8097.500000000001 -8097.5 9.916577456095692e-13" fill="none" stroke="black" stroke-width="4.5" /><path d="M 5.633375276077825e-14 920.0 C -920.0 920.0000000000001 -8097.499999999998 8097.500000000001 -8097.5 9.916577456095692e-13" fill="none" stroke="black" stroke-width="4.5" /><path d="M 4.3658658389603143e-13 7130.0 C -7130.0 7130.000000000001 -8097.499999999998 8097.500000000001 -8097.5 9.916577456095692e-13" fill="none" stroke="black" stroke-width="4.5" /><path d="M 3.993879373719306e-13 6522.5 C -6522.5 6522.500000000001 -8097.499999999998 8097.500000000001 -8097.5 9.916577456095692e-13" fill="none" stroke="black" stroke-width="4.5" /><path d="M 5.17872515189437e-13 8457.5 C -8457.5 8457.500000000002 -6117.5 6117.500000000001 -6117.5 7.491776793783933e-13" fill="none" stroke="black" stroke-width="4.5" /><path d="M 5.17872515189437e-13 8457.5 C -8457.5 8457.500000000002 -2652.5 2652.5000000000005 -2652.5 3.2483756347383545e-13" fill="none" stroke="black" stroke-width="4.5" /><path d="M 5.17872515189437e-13 8457.5 C -8457.5 8457.500000000002 -4272.5 4272.500000000001 -4272.5 5.232303449357066e-13" fill="none" stroke="black" stroke-width="4.5" /><path d="M 5.17872515189437e-13 8457.5 C -8457.5 8457.500000000002 -1887.4999999999998 1887.5000000000002 -1887.5 2.3115208333906293e-13" fill="none" stroke="black" stroke-width="4.5" /><path d="M 1.541524158426731e-13 2517.5 C -2517.5 2517.5000000000005 -6117.5 6117.500000000001 -6117.5 7.491776793783933e-13" fill="none" stroke="black" stroke-width="4.5" /><path d="M 1.541524158426731e-13 2517.5 C -2517.5 2517.5000000000005 -2652.5 2652.5000000000005 -2652.5 3.2483756347383545e-13" fill="none" stroke="black" stroke-width="4.5" /><path d="M 2.326828918379971e-13 3800.0 C -3799.9999999999995 3800.0000000000005 -1887.4999999999998 1887.5000000000002 -1887.5 2.3115208333906293e-13" fill="none" stroke="black" stroke-width="4.5" /><path d="M 1.78951513525407e-13 2922.5 C -2922.5 2922.5000000000005 -4272.5 4272.500000000001 -4272.5 5.232303449357066e-13" fill="none" stroke="black" stroke-width="4.5" /><path d="M 2.933029083957911e-13 4790.0 C -4790.0 4790.000000000001 -379.99999999999994 380.00000000000006 -380.0 4.653657836759942e-14" fill="none" stroke="black" stroke-width="4.5" /><path d="M 7.975512279447137e-14 1302.5 C -1302.5 1302.5000000000002 -379.99999999999994 380.00000000000006 -380.0 4.653657836759942e-14" fill="none" stroke="black" stroke-width="4.5" /><path d="M 5.17872515189437e-13 8457.5 C -8457.5 8457.500000000002 -379.99999999999994 380.00000000000006 -380.0 4.653657836759942e-14" fill="none" stroke="black" stroke-width="4.5" /><path d="M 1.0455422047720528e-13 1707.5 C -1707.5 1707.5000000000002 -379.99999999999994 380.00000000000006 -380.0 4.653657836759942e-14" fill="none" stroke="black" stroke-width="4.5" /><path d="M 5.633375276077825e-14 920.0 C -920.0 920.0000000000001 -379.99999999999994 380.00000000000006 -380.0 4.653657836759942e-14" fill="none" stroke="black" stroke-width="4.5" /><path d="M 4.765406857182138e-13 7782.5 C -7782.499999999999 7782.500000000001 -3439.9999999999995 3440.0000000000005 -3440.0 4.212784989066895e-13" fill="none" stroke="black" stroke-width="4.5" /><path d="M 2.0512833885718165e-13 3350.0 C -3350.0 3350.0000000000005 -3439.9999999999995 3440.0000000000005 -3440.0 4.212784989066895e-13" fill="none" stroke="black" stroke-width="4.5" /><path d="M 3.635670184968705e-13 5937.5 C -5937.5 5937.500000000001 -3439.9999999999995 3440.0000000000005 -3440.0 4.212784989066895e-13" fill="none" stroke="black" stroke-width="4.5" /><path d="M 1.0455422047720528e-13 1707.5 C -1707.5 1707.5000000000002 -3439.9999999999995 3440.0000000000005 -3440.0 4.212784989066895e-13" fill="none" stroke="black" stroke-width="4.5" /><path d="M 2.326828918379971e-13 3800.0 C -3799.9999999999995 3800.0000000000005 -3439.9999999999995 3440.0000000000005 -3440.0 4.212784989066895e-13" fill="none" stroke="black" stroke-width="4.5" /><path d="M 4.3658658389603143e-13 7130.0 C -7130.0 7130.000000000001 -3439.9999999999995 3440.0000000000005 -3440.0 4.212784989066895e-13" fill="none" stroke="black" stroke-width="4.5" /><path d="M 3.993879373719306e-13 6522.5 C -6522.5 6522.500000000001 -3439.9999999999995 3440.0000000000005 -3440.0 4.212784989066895e-13" fill="none" stroke="black" stroke-width="4.5" /><path d="M 2.616151724678533e-13 4272.5 C -4272.5 4272.500000000001 -3440.0 3440.0000000000005 -3440.0 4.212784989066895e-13" fill="none" stroke="black" stroke-width="4.5" /><path d="M 2.616151724678533e-13 4272.5 C -4272.5 4272.500000000001 -5172.5 5172.500000000001 -5172.5 6.334485568589685e-13" fill="none" stroke="black" stroke-width="4.5" /><path d="M 2.616151724678533e-13 4272.5 C -4272.5 4272.500000000001 -380.0 380.00000000000006 -380.0 4.653657836759942e-14" fill="none" stroke="black" stroke-width="4.5" /><path d="M 2.616151724678533e-13 4272.5 C -4272.5 4272.500000000001 -4272.5 4272.500000000001 -4272.5 5.232303449357066e-13" fill="none" stroke="black" stroke-width="4.5" /><path d="M -7085.0 8.676622571958998e-13 C -7085.000000000001 -7084.999999999999 -2112.5000000000005 -2112.4999999999995 -3.880599544798175e-13 -2112.5" fill="none" stroke="black" stroke-width="4.5" /><path d="M -7085.0 8.676622571958998e-13 C -7085.000000000001 -7084.999999999999 -42.50000000000001 -42.49999999999999 -7.807123344564377e-15 -42.5" fill="none" stroke="black" stroke-width="4.5" /><path d="M -7085.0 8.676622571958998e-13 C -7085.000000000001 -7084.999999999999 -110.00000000000001 -109.99999999999999 -2.0206672185931328e-14 -110.0" fill="none" stroke="black" stroke-width="4.5" /><path d="M -7085.0 8.676622571958998e-13 C -7085.000000000001 -7084.999999999999 -2337.5000000000005 -2337.4999999999995 -4.293917839510407e-13 -2337.5" fill="none" stroke="black" stroke-width="4.5" /><path d="M -7085.0 8.676622571958998e-13 C -7085.000000000001 -7084.999999999999 -1010.0000000000002 -1009.9999999999999 -1.85533990070824e-13 -1010.0" fill="none" stroke="black" stroke-width="4.5" /><path d="M -4272.5 5.232303449357066e-13 C -4272.500000000001 -4272.499999999999 -2112.5000000000005 -2112.4999999999995 -3.880599544798175e-13 -2112.5" fill="none" stroke="black" stroke-width="4.5" /><path d="M -5172.5 6.334485568589685e-13 C -5172.500000000001 -5172.499999999999 -290.00000000000006 -289.99999999999994 -5.327213576290986e-14 -290.0" fill="none" stroke="black" stroke-width="4.5" /><path d="M -5172.5 6.334485568589685e-13 C -5172.500000000001 -5172.499999999999 -110.00000000000001 -109.99999999999999 -2.0206672185931328e-14 -110.0" fill="none" stroke="black" stroke-width="4.5" /><path d="M -4272.5 5.232303449357066e-13 C -4272.500000000001 -4272.499999999999 -582.5000000000001 -582.4999999999999 -1.0700351407549998e-13 -582.5" fill="none" stroke="black" stroke-width="4.5" /><path d="M -4272.5 5.232303449357066e-13 C -4272.500000000001 -4272.499999999999 -1190.0000000000002 -1189.9999999999998 -2.1859945364780254e-13 -1190.0" fill="none" stroke="black" stroke-width="4.5" /><path d="M -4272.5 5.232303449357066e-13 C -4272.500000000001 -4272.499999999999 -717.5000000000001 -717.4999999999999 -1.3180261175823389e-13 -717.5" fill="none" stroke="black" stroke-width="4.5" /><path d="M -4272.5 5.232303449357066e-13 C -4272.500000000001 -4272.499999999999 -2562.5000000000005 -2562.4999999999995 -4.707236134222639e-13 -2562.5" fill="none" stroke="black" stroke-width="4.5" /><path d="M -4272.5 5.232303449357066e-13 C -4272.500000000001 -4272.499999999999 -2787.5000000000005 -2787.4999999999995 -5.12055442893487e-13 -2787.5" fill="none" stroke="black" stroke-width="4.5" /><path d="M -1122.5 1.374666032042904e-13 C -1122.5000000000002 -1122.4999999999998 -582.5000000000001 -582.4999999999999 -1.0700351407549998e-13 -582.5" fill="none" stroke="black" stroke-width="4.5" /><path d="M -1122.5 1.374666032042904e-13 C -1122.5000000000002 -1122.4999999999998 -1190.0000000000002 -1189.9999999999998 -2.1859945364780254e-13 -1190.0" fill="none" stroke="black" stroke-width="4.5" /><path d="M -1122.5 1.374666032042904e-13 C -1122.5000000000002 -1122.4999999999998 -717.5000000000001 -717.4999999999999 -1.3180261175823389e-13 -717.5" fill="none" stroke="black" stroke-width="4.5" /><path d="M -1122.5 1.374666032042904e-13 C -1122.5000000000002 -1122.4999999999998 -2562.5000000000005 -2562.4999999999995 -4.707236134222639e-13 -2562.5" fill="none" stroke="black" stroke-width="4.5" /><path d="M -1122.5 1.374666032042904e-13 C -1122.5000000000002 -1122.4999999999998 -2787.5000000000005 -2787.4999999999995 -5.12055442893487e-13 -2787.5" fill="none" stroke="black" stroke-width="4.5" /><path d="M -1122.5 1.374666032042904e-13 C -1122.5000000000002 -1122.4999999999998 -3777.500000000001 -3777.499999999999 -6.939154925668689e-13 -3777.5" fill="none" stroke="black" stroke-width="4.5" /><path d="M -1887.5 2.3115208333906293e-13 C -1887.5000000000005 -1887.4999999999998 -3777.500000000001 -3777.499999999999 -6.939154925668689e-13 -3777.5" fill="none" stroke="black" stroke-width="4.5" /><path d="M -5172.5 6.334485568589685e-13 C -5172.500000000001 -5172.499999999999 -4092.500000000001 -4092.499999999999 -7.517800538265814e-13 -4092.5" fill="none" stroke="black" stroke-width="4.5" /><path d="M -380.0 4.653657836759942e-14 C -380.00000000000006 -379.99999999999994 -4092.500000000001 -4092.499999999999 -7.517800538265814e-13 -4092.5" fill="none" stroke="black" stroke-width="4.5" /><path d="M -4272.5 5.232303449357066e-13 C -4272.500000000001 -4272.499999999999 -4092.500000000001 -4092.499999999999 -7.517800538265814e-13 -4092.5" fill="none" stroke="black" stroke-width="4.5" /><path d="M -6117.5 7.491776793783933e-13 C -6117.500000000001 -6117.499999999999 -1910.0000000000005 -1909.9999999999998 -3.508613079557167e-13 -1910.0" fill="none" stroke="black" stroke-width="4.5" /><path d="M -6117.5 7.491776793783933e-13 C -6117.500000000001 -6117.499999999999 -3777.500000000001 -3777.4999999999995 -6.939154925668689e-13 -3777.5" fill="none" stroke="black" stroke-width="4.5" /><path d="M -1887.5 2.3115208333906293e-13 C -1887.5000000000005 -1887.4999999999998 -1190.0000000000002 -1189.9999999999998 -2.1859945364780254e-13 -1190.0" fill="none" stroke="black" stroke-width="4.5" /><path d="M -1887.5 2.3115208333906293e-13 C -1887.5000000000005 -1887.4999999999998 -2787.5000000000005 -2787.4999999999995 -5.12055442893487e-13 -2787.5" fill="none" stroke="black" stroke-width="4.5" /><path d="M -2652.5 3.2483756347383545e-13 C -2652.5000000000005 -2652.4999999999995 -3777.500000000001 -3777.4999999999995 -6.939154925668689e-13 -3777.5" fill="none" stroke="black" stroke-width="4.5" /><path d="M -8097.5 9.916577456095692e-13 C -8097.500000000002 -8097.499999999999 -3237.5000000000005 -3237.4999999999995 -5.947191018359333e-13 -3237.5" fill="none" stroke="black" stroke-width="4.5" /><path d="M -8097.5 9.916577456095692e-13 C -8097.500000000002 -8097.499999999999 -1010.0000000000002 -1009.9999999999999 -1.85533990070824e-13 -1010.0" fill="none" stroke="black" stroke-width="4.5" /><path d="M -8097.5 9.916577456095692e-13 C -8097.500000000002 -8097.499999999999 -4407.500000000001 -4407.499999999999 -8.096446150862938e-13 -4407.5" fill="none" stroke="black" stroke-width="4.5" /><path d="M -380.0 4.653657836759942e-14 C -380.00000000000006 -379.99999999999994 -4092.500000000001 -4092.4999999999995 -7.517800538265814e-13 -4092.5" fill="none" stroke="black" stroke-width="4.5" /><path d="M -380.0 4.653657836759942e-14 C -380.00000000000006 -379.99999999999994 -4722.500000000001 -4722.499999999999 -8.675091763460063e-13 -4722.5" fill="none" stroke="black" stroke-width="4.5" /><path d="M -380.0 4.653657836759942e-14 C -380.00000000000006 -379.99999999999994 -1730.0000000000002 -1729.9999999999998 -3.1779584437873814e-13 -1730.0" fill="none" stroke="black" stroke-width="4.5" /><path d="M -8097.5 9.916577456095692e-13 C -8097.500000000002 -8097.499999999999 -1550.0000000000002 -1549.9999999999995 -2.847303808017596e-13 -1550.0" fill="none" stroke="black" stroke-width="4.5" /><path d="M -6117.5 7.491776793783933e-13 C -6117.500000000001 -6117.499999999999 -3012.5000000000005 -3012.499999999999 -5.533872723647102e-13 -3012.5" fill="none" stroke="black" stroke-width="4.5" /><path d="M -1887.5 2.3115208333906293e-13 C -1887.5000000000005 -1887.4999999999998 -3012.5000000000005 -3012.499999999999 -5.533872723647102e-13 -3012.5" fill="none" stroke="black" stroke-width="4.5" /><path d="M -3440.0 4.212784989066895e-13 C -3440.0000000000005 -3439.9999999999995 -3237.5000000000005 -3237.4999999999995 -5.947191018359333e-13 -3237.5" fill="none" stroke="black" stroke-width="4.5" /><path d="M -3440.0 4.212784989066895e-13 C -3440.0000000000005 -3439.9999999999995 -1010.0000000000002 -1009.9999999999999 -1.85533990070824e-13 -1010.0" fill="none" stroke="black" stroke-width="4.5" /><path d="M -3440.0 4.212784989066895e-13 C -3440.0000000000005 -3439.9999999999995 -3237.5000000000005 -3237.499999999999 -5.947191018359333e-13 -3237.5" fill="none" stroke="black" stroke-width="4.5" /><path d="M -1122.5 1.374666032042904e-13 C -1122.5000000000002 -1122.4999999999998 -3485.0000000000005 -3484.999999999999 -6.401841142542789e-13 -3485.0" fill="none" stroke="black" stroke-width="4.5" /><g><line stroke="black" stroke-width="2.1" x1="20.0" x2="2630.0" y1="0.0" y2="0.0" /><g><circle cx="627.5" cy="0.0" fill="green" fill-opacity="0.65" r="607.5" stroke="green" stroke-width="0.1" /><text text-anchor="middle" transform="translate(627.5, 0.0) scale(18.5) rotate(-90)">14P1</text></g><g><circle cx="1932.5" cy="0.0" fill="green" fill-opacity="0.65" r="697.5" stroke="green" stroke-width="0.1" /><text text-anchor="middle" transform="translate(1932.5, 0.0) scale(18.5) rotate(-90)">13P1</text></g></g><g><line stroke="black" stroke-width="2.1" x1="1.2246467991473533e-15" x2="5.385384299250486e-13" y1="20.0" y2="8795.0" /><g><circle cx="1.2246467991473532e-14" cy="200.0" fill="red" fill-opacity="0.65" r="180.0" stroke="red" stroke-width="0.1" /><text text-anchor="middle" transform="translate(1.2246467991473532e-14, 200.0) scale(18.5) rotate(0)">03P1</text></g><g><circle cx="3.429011037612589e-14" cy="560.0" fill="blue" fill-opacity="0.65" r="180.0" stroke="blue" stroke-width="0.1" /><text text-anchor="middle" transform="translate(3.429011037612589e-14, 560.0) scale(18.5) rotate(0)">12P2</text></g><g><circle cx="5.633375276077825e-14" cy="920.0" fill="red" fill-opacity="0.65" r="180.0" stroke="red" stroke-width="0.1" /><text text-anchor="middle" transform="translate(5.633375276077825e-14, 920.0) scale(18.5) rotate(0)">15P2</text></g><g><circle cx="7.975512279447137e-14" cy="1302.5" fill="green" fill-opacity="0.65" r="202.5" stroke="green" stroke-width="0.1" /><text text-anchor="middle" transform="translate(7.975512279447137e-14, 1302.5) scale(18.5) rotate(0)">04P5</text></g><g><circle cx="1.0455422047720528e-13" cy="1707.5" fill="blue" fill-opacity="0.65" r="202.5" stroke="blue" stroke-width="0.1" /><text text-anchor="middle" transform="translate(1.0455422047720528e-13, 1707.5) scale(18.5) rotate(0)">12P4</text></g><g><circle cx="1.2935331815993918e-13" cy="2112.5" fill="purple" fill-opacity="0.65" r="202.5" stroke="purple" stroke-width="0.1" /><text text-anchor="middle" transform="translate(1.2935331815993918e-13, 2112.5) scale(18.5) rotate(0)">17P2</text></g><g><circle cx="1.541524158426731e-13" cy="2517.5" fill="green" fill-opacity="0.65" r="202.5" stroke="green" stroke-width="0.1" /><text text-anchor="middle" transform="translate(1.541524158426731e-13, 2517.5) scale(18.5) rotate(0)">07P2</text></g><g><circle cx="1.78951513525407e-13" cy="2922.5" fill="red" fill-opacity="0.65" r="202.5" stroke="red" stroke-width="0.1" /><text text-anchor="middle" transform="translate(1.78951513525407e-13, 2922.5) scale(18.5) rotate(0)">05P1</text></g><g><circle cx="2.0512833885718165e-13" cy="3350.0" fill="red" fill-opacity="0.65" r="225.0" stroke="red" stroke-width="0.1" /><text text-anchor="middle" transform="translate(2.0512833885718165e-13, 3350.0) scale(18.5) rotate(0)">03P3</text></g><g><circle cx="2.326828918379971e-13" cy="3800.0" fill="blue" fill-opacity="0.65" r="225.0" stroke="blue" stroke-width="0.1" /><text text-anchor="middle" transform="translate(2.326828918379971e-13, 3800.0) scale(18.5) rotate(0)">13P3</text></g><g><circle cx="2.616151724678533e-13" cy="4272.5" fill="blue" fill-opacity="0.65" r="247.5" stroke="blue" stroke-width="0.1" /><text text-anchor="middle" transform="translate(2.616151724678533e-13, 4272.5) scale(18.5) rotate(0)">06P1</text></g><g><circle cx="2.933029083957911e-13" cy="4790.0" fill="blue" fill-opacity="0.65" r="270.0" stroke="blue" stroke-width="0.1" /><text text-anchor="middle" transform="translate(2.933029083957911e-13, 4790.0) scale(18.5) rotate(0)">01P4</text></g><g><circle cx="3.277460996218104e-13" cy="5352.5" fill="blue" fill-opacity="0.65" r="292.5" stroke="blue" stroke-width="0.1" /><text text-anchor="middle" transform="translate(3.277460996218104e-13, 5352.5) scale(18.5) rotate(0)">10P4</text></g><g><circle cx="3.635670184968705e-13" cy="5937.5" fill="blue" fill-opacity="0.65" r="292.5" stroke="blue" stroke-width="0.1" /><text text-anchor="middle" transform="translate(3.635670184968705e-13, 5937.5) scale(18.5) rotate(0)">06P2</text></g><g><circle cx="3.993879373719306e-13" cy="6522.5" fill="purple" fill-opacity="0.65" r="292.5" stroke="purple" stroke-width="0.1" /><text text-anchor="middle" transform="translate(3.993879373719306e-13, 6522.5) scale(18.5) rotate(0)">17P1</text></g><g><circle cx="4.3658658389603143e-13" cy="7130.0" fill="blue" fill-opacity="0.65" r="315.0" stroke="blue" stroke-width="0.1" /><text text-anchor="middle" transform="translate(4.3658658389603143e-13, 7130.0) scale(18.5) rotate(0)">16P2</text></g><g><circle cx="4.765406857182138e-13" cy="7782.5" fill="blue" fill-opacity="0.65" r="337.5" stroke="blue" stroke-width="0.1" /><text text-anchor="middle" transform="translate(4.765406857182138e-13, 7782.5) scale(18.5) rotate(0)">01P3</text></g><g><circle cx="5.17872515189437e-13" cy="8457.5" fill="green" fill-opacity="0.65" r="337.5" stroke="green" stroke-width="0.1" /><text text-anchor="middle" transform="translate(5.17872515189437e-13, 8457.5) scale(18.5) rotate(0)">07P1</text></g></g><g><line stroke="black" stroke-width="2.1" x1="-20.0" x2="-8615.0" y1="2.4492935982947065e-15" y2="1.0550332174654447e-12" /><g><circle cx="-380.0" cy="4.653657836759942e-14" fill="blue" fill-opacity="0.65" r="360.0" stroke="blue" stroke-width="0.1" /><text text-anchor="middle" transform="translate(-380.0, 4.653657836759942e-14) scale(18.5) rotate(90)">10P1</text></g><g><circle cx="-1122.5" cy="1.374666032042904e-13" fill="green" fill-opacity="0.65" r="382.5" stroke="green" stroke-width="0.1" /><text text-anchor="middle" transform="translate(-1122.5, 1.374666032042904e-13) scale(18.5) rotate(90)">14P3</text></g><g><circle cx="-1887.5" cy="2.3115208333906293e-13" fill="green" fill-opacity="0.65" r="382.5" stroke="green" stroke-width="0.1" /><text text-anchor="middle" transform="translate(-1887.5, 2.3115208333906293e-13) scale(18.5) rotate(90)">14P4</text></g><g><circle cx="-2652.5" cy="3.2483756347383545e-13" fill="green" fill-opacity="0.65" r="382.5" stroke="green" stroke-width="0.1" /><text text-anchor="middle" transform="translate(-2652.5, 3.2483756347383545e-13) scale(18.5) rotate(90)">11P1</text></g><g><circle cx="-3440.0" cy="4.212784989066895e-13" fill="green" fill-opacity="0.65" r="405.0" stroke="green" stroke-width="0.1" /><text text-anchor="middle" transform="translate(-3440.0, 4.212784989066895e-13) scale(18.5) rotate(90)">04P3</text></g><g><circle cx="-4272.5" cy="5.232303449357066e-13" fill="green" fill-opacity="0.65" r="427.5" stroke="green" stroke-width="0.1" /><text text-anchor="middle" transform="translate(-4272.5, 5.232303449357066e-13) scale(18.5) rotate(90)">14P2</text></g><g><circle cx="-5172.5" cy="6.334485568589685e-13" fill="green" fill-opacity="0.65" r="472.5" stroke="green" stroke-width="0.1" /><text text-anchor="middle" transform="translate(-5172.5, 6.334485568589685e-13) scale(18.5) rotate(90)">08P1</text></g><g><circle cx="-6117.5" cy="7.491776793783933e-13" fill="red" fill-opacity="0.65" r="472.5" stroke="red" stroke-width="0.1" /><text text-anchor="middle" transform="translate(-6117.5, 7.491776793783933e-13) scale(18.5) rotate(90)">09P1</text></g><g><circle cx="-7085.0" cy="8.676622571958998e-13" fill="green" fill-opacity="0.65" r="495.0" stroke="green" stroke-width="0.1" /><text text-anchor="middle" transform="translate(-7085.0, 8.676622571958998e-13) scale(18.5) rotate(90)">08P2</text></g><g><circle cx="-8097.5" cy="9.916577456095692e-13" fill="green" fill-opacity="0.65" r="517.5" stroke="green" stroke-width="0.1" /><text text-anchor="middle" transform="translate(-8097.5, 9.916577456095692e-13) scale(18.5) rotate(90)">04P1</text></g></g><g><line stroke="black" stroke-width="2.1" x1="-3.673940397442059e-15" x2="-8.964414569758625e-13" y1="-20.0" y2="-4880.0" /><g><circle cx="-7.807123344564377e-15" cy="-42.5" fill="red" fill-opacity="0.65" r="22.5" stroke="red" stroke-width="0.1" /><text text-anchor="middle" transform="translate(-7.807123344564377e-15, -42.5) scale(6.5) rotate(180)">02P1</text></g><g><circle cx="-2.0206672185931328e-14" cy="-110.0" fill="blue" fill-opacity="0.65" r="45.0" stroke="blue" stroke-width="0.1" /><text text-anchor="middle" transform="translate(-2.0206672185931328e-14, -110.0) scale(6.5) rotate(180)">12P3</text></g><g><circle cx="-3.6739403974420595e-14" cy="-200.0" fill="red" fill-opacity="0.65" r="45.0" stroke="red" stroke-width="0.1" /><text text-anchor="middle" transform="translate(-3.6739403974420595e-14, -200.0) scale(6.5) rotate(180)">09P3</text></g><g><circle cx="-5.327213576290986e-14" cy="-290.0" fill="red" fill-opacity="0.65" r="45.0" stroke="red" stroke-width="0.1" /><text text-anchor="middle" transform="translate(-5.327213576290986e-14, -290.0) scale(6.5) rotate(180)">03P2</text></g><g><circle cx="-6.980486755139912e-14" cy="-380.0" fill="red" fill-opacity="0.65" r="45.0" stroke="red" stroke-width="0.1" /><text text-anchor="middle" transform="translate(-6.980486755139912e-14, -380.0) scale(6.5) rotate(180)">03P4</text></g><g><circle cx="-8.633759933988839e-14" cy="-470.0" fill="red" fill-opacity="0.65" r="45.0" stroke="red" stroke-width="0.1" /><text text-anchor="middle" transform="translate(-8.633759933988839e-14, -470.0) scale(6.5) rotate(180)">09P4</text></g><g><circle cx="-1.0700351407549998e-13" cy="-582.5" fill="blue" fill-opacity="0.65" r="67.5" stroke="blue" stroke-width="0.1" /><text text-anchor="middle" transform="translate(-1.0700351407549998e-13, -582.5) scale(6.5) rotate(180)">06P4</text></g><g><circle cx="-1.3180261175823389e-13" cy="-717.5" fill="blue" fill-opacity="0.65" r="67.5" stroke="blue" stroke-width="0.1" /><text text-anchor="middle" transform="translate(-1.3180261175823389e-13, -717.5) scale(6.5) rotate(180)">10P2</text></g><g><circle cx="-1.566017094409678e-13" cy="-852.5" fill="red" fill-opacity="0.65" r="67.5" stroke="red" stroke-width="0.1" /><text text-anchor="middle" transform="translate(-1.566017094409678e-13, -852.5) scale(6.5) rotate(180)">09P2</text></g><g><circle cx="-1.85533990070824e-13" cy="-1010.0" fill="blue" fill-opacity="0.65" r="90.0" stroke="blue" stroke-width="0.1" /><text text-anchor="middle" transform="translate(-1.85533990070824e-13, -1010.0) scale(6.5) rotate(180)">16P3</text></g><g><circle cx="-2.1859945364780254e-13" cy="-1190.0" fill="green" fill-opacity="0.65" r="90.0" stroke="green" stroke-width="0.1" /><text text-anchor="middle" transform="translate(-2.1859945364780254e-13, -1190.0) scale(6.5) rotate(180)">07P3</text></g><g><circle cx="-2.5166491722478106e-13" cy="-1370.0" fill="blue" fill-opacity="0.65" r="90.0" stroke="blue" stroke-width="0.1" /><text text-anchor="middle" transform="translate(-2.5166491722478106e-13, -1370.0) scale(6.5) rotate(180)">01P2</text></g><g><circle cx="-2.847303808017596e-13" cy="-1550.0" fill="green" fill-opacity="0.65" r="90.0" stroke="green" stroke-width="0.1" /><text text-anchor="middle" transform="translate(-2.847303808017596e-13, -1550.0) scale(6.5) rotate(180)">04P2</text></g><g><circle cx="-3.1779584437873814e-13" cy="-1730.0" fill="red" fill-opacity="0.65" r="90.0" stroke="red" stroke-width="0.1" /><text text-anchor="middle" transform="translate(-3.1779584437873814e-13, -1730.0) scale(6.5) rotate(180)">15P3</text></g><g><circle cx="-3.508613079557167e-13" cy="-1910.0" fill="blue" fill-opacity="0.65" r="90.0" stroke="blue" stroke-width="0.1" /><text text-anchor="middle" transform="translate(-3.508613079557167e-13, -1910.0) scale(6.5) rotate(180)">10P3</text></g><g><circle cx="-3.880599544798175e-13" cy="-2112.5" fill="blue" fill-opacity="0.65" r="112.5" stroke="blue" stroke-width="0.1" /><text text-anchor="middle" transform="translate(-3.880599544798175e-13, -2112.5) scale(6.5) rotate(180)">01P1</text></g><g><circle cx="-4.293917839510407e-13" cy="-2337.5" fill="green" fill-opacity="0.65" r="112.5" stroke="green" stroke-width="0.1" /><text text-anchor="middle" transform="translate(-4.293917839510407e-13, -2337.5) scale(6.5) rotate(180)">14P5</text></g><g><circle cx="-4.707236134222639e-13" cy="-2562.5" fill="green" fill-opacity="0.65" r="112.5" stroke="green" stroke-width="0.1" /><text text-anchor="middle" transform="translate(-4.707236134222639e-13, -2562.5) scale(6.5) rotate(180)">14P6</text></g><g><circle cx="-5.12055442893487e-13" cy="-2787.5" fill="blue" fill-opacity="0.65" r="112.5" stroke="blue" stroke-width="0.1" /><text text-anchor="middle" transform="translate(-5.12055442893487e-13, -2787.5) scale(6.5) rotate(180)">16P1</text></g><g><circle cx="-5.533872723647102e-13" cy="-3012.5" fill="green" fill-opacity="0.65" r="112.5" stroke="green" stroke-width="0.1" /><text text-anchor="middle" transform="translate(-5.533872723647102e-13, -3012.5) scale(6.5) rotate(180)">11P2</text></g><g><circle cx="-5.947191018359333e-13" cy="-3237.5" fill="red" fill-opacity="0.65" r="112.5" stroke="red" stroke-width="0.1" /><text text-anchor="middle" transform="translate(-5.947191018359333e-13, -3237.5) scale(6.5) rotate(180)">05P2</text></g><g><circle cx="-6.401841142542789e-13" cy="-3485.0" fill="blue" fill-opacity="0.65" r="135.0" stroke="blue" stroke-width="0.1" /><text text-anchor="middle" transform="translate(-6.401841142542789e-13, -3485.0) scale(6.5) rotate(180)">12P1</text></g><g><circle cx="-6.939154925668689e-13" cy="-3777.5" fill="blue" fill-opacity="0.65" r="157.5" stroke="blue" stroke-width="0.1" /><text text-anchor="middle" transform="translate(-6.939154925668689e-13, -3777.5) scale(6.5) rotate(180)">13P2</text></g><g><circle cx="-7.517800538265814e-13" cy="-4092.5" fill="blue" fill-opacity="0.65" r="157.5" stroke="blue" stroke-width="0.1" /><text text-anchor="middle" transform="translate(-7.517800538265814e-13, -4092.5) scale(6.5) rotate(180)">06P3</text></g><g><circle cx="-8.096446150862938e-13" cy="-4407.5" fill="green" fill-opacity="0.65" r="157.5" stroke="green" stroke-width="0.1" /><text text-anchor="middle" transform="translate(-8.096446150862938e-13, -4407.5) scale(6.5) rotate(180)">04P4</text></g><g><circle cx="-8.675091763460063e-13" cy="-4722.5" fill="red" fill-opacity="0.65" r="157.5" stroke="red" stroke-width="0.1" /><text text-anchor="middle" transform="translate(-8.675091763460063e-13, -4722.5) scale(6.5) rotate(180)">15P1</text></g></g></svg>