<?xml version="1.0" encoding="utf-8" ?>
<svg baseProfile="full" height="100%" version="1.1" viewBox="-5510.0,-5510.0,11020.0,11020.0" width="100%" xmlns="http://www.w3.org/2000/svg" xmlns:ev="http://www.w3.org/2001/xml-events" xmlns:xlink="http://www.w3.org/1999/xlink"><defs /><path d="M -5.451209064704656e-13 -2967.5 C 2967.4999999999995 -2967.500000000001 447.5 -447.5 447.5 0.0" fill="none" stroke="black" stroke-width="4.5" /><path d="M -5.864527359416887e-13 -3192.5 C 3192.4999999999995 -3192.500000000001 1325.0 -1325.0 1325.0 0.0" fill="none" stroke="black" stroke-width="4.5" /><path d="M -1.8140080712370167e-13 -987.5 C 987.4999999999998 -987.5000000000002 1325.0 -1325.0 1325.0 0.0" fill="none" stroke="black" stroke-width="4.5" /><path d="M -2.0619990480643558e-13 -1122.5 C 1122.4999999999998 -1122.5000000000002 1325.0 -1325.0 1325.0 0.0" fill="none" stroke="black" stroke-width="4.5" /><path d="M -3.095294784844935e-13 -1685.0 C 1684.9999999999998 -1685.0000000000005 1325.0 -1325.0 1325.0 0.0" fill="none" stroke="black" stroke-width="4.5" /><path d="M -2.309990024891695e-13 -1257.5 C 1257.4999999999998 -1257.5000000000002 1325.0 -1325.0 1325.0 0.0" fill="none" stroke="black" stroke-width="4.5" /><path d="M -7.104482243553583e-13 -3867.5 C 3867.499999999999 -3867.500000000001 1325.0 -1325.0 1325.0 0.0" fill="none" stroke="black" stroke-width="4.5" /><path d="M -4.087258692154291e-13 -2225.0 C 2224.9999999999995 -2225.0000000000005 447.5 -447.5 447.5 0.0" fill="none" stroke="black" stroke-width="4.5" /><path d="M -4.4179133279240764e-13 -2405.0 C 2404.9999999999995 -2405.0000000000005 447.5 -447.5 447.5 0.0" fill="none" stroke="black" stroke-width="4.5" /><path d="M -3.7566040563845056e-13 -2045.0 C 2044.9999999999995 -2045.0000000000005 2247.5 -2247.5 2247.5 0.0" fill="none" stroke="black" stroke-width="4.5" /><path d="M -6.277845654129119e-13 -3417.5 C 3417.4999999999995 -3417.500000000001 2247.5 -2247.5 2247.5 0.0" fill="none" stroke="black" stroke-width="4.5" /><path d="M -8.633759933988839e-14 -470.0 C 469.9999999999999 -470.0000000000001 2247.5 -2247.5 2247.5 0.0" fill="none" stroke="black" stroke-width="4.5" /><path d="M -4.087258692154291e-13 -2225.0 C 2224.9999999999995 -2225.0000000000005 2247.5 -2247.5 2247.5 0.0" fill="none" stroke="black" stroke-width="4.5" /><path d="M -5.864527359416887e-13 -3192.5 C 3192.4999999999995 -3192.500000000001 2247.5 -2247.5 2247.5 0.0" fill="none" stroke="black" stroke-width="4.5" /><path d="M -5.451209064704656e-13 -2967.5 C 2967.4999999999995 -2967.500000000001 2247.5 -2247.5 2247.5 0.0" fill="none" stroke="black" stroke-width="4.5" /><path d="M -5.079222599463647e-13 -2765.0 C 2764.9999999999995 -2765.0000000000005 2247.5 -2247.5 2247.5 0.0" fill="none" stroke="black" stroke-width="4.5" /><path d="M -1.359357947053562e-13 -740.0 C 739.9999999999999 -740.0000000000002 447.5 -447.5 447.5 0.0" fill="none" stroke="black" stroke-width="4.5" /><path d="M -8.344437127690277e-13 -4542.5 C 4542.499999999999 -4542.500000000001 447.5 -447.5 447.5 0.0" fill="none" stroke="black" stroke-width="4.5" /><path d="M 1325.0 0.0 C 1325.0 1325.0 447.5 447.5 2.7401472130922027e-14 447.5" fill="none" stroke="black" stroke-width="4.5" /><path d="M 1325.0 0.0 C 1325.0 1325.0 762.5 762.5 4.668965921749284e-14 762.5" fill="none" stroke="black" stroke-width="4.5" /><path d="M 1325.0 0.0 C 1325.0 1325.0 3710.0 3710.0 2.2717198124183403e-13 3710.0" fill="none" stroke="black" stroke-width="4.5" /><path d="M 1325.0 0.0 C 1325.0 1325.0 3282.5 3282.5 2.0099515591005935e-13 3282.5" fill="none" stroke="black" stroke-width="4.5" /><path d="M 447.5 0.0 C 447.5 447.5 3710.0 3710.0 2.2717198124183403e-13 3710.0" fill="none" stroke="black" stroke-width="4.5" /><path d="M 447.5 0.0 C 447.5 447.5 2472.5 2472.5 1.5139696054459154e-13 2472.5" fill="none" stroke="black" stroke-width="4.5" /><path d="M 447.5 0.0 C 447.5 447.5 3282.5 3282.5 2.0099515591005935e-13 3282.5" fill="none" stroke="black" stroke-width="4.5" /><path d="M 2247.5 0.0 C 2247.5 2247.5 447.5 447.49999999999994 2.7401472130922027e-14 447.5" fill="none" stroke="black" stroke-width="4.5" /><path d="M 447.5 0.0 C 447.5 447.5 2877.5 2877.4999999999995 1.7619605822732544e-13 2877.5" fill="none" stroke="black" stroke-width="4.5" /><path d="M 447.5 0.0 C 447.5 447.5 155.0 154.99999999999997 9.491012693391987e-15 155.0" fill="none" stroke="black" stroke-width="4.5" /><path d="M 2247.5 0.0 C 2247.5 2247.5 1077.5 1077.4999999999998 6.597784630406366e-14 1077.5" fill="none" stroke="black" stroke-width="4.5" /><path d="M 2247.5 0.0 C 2247.5 2247.5 1730.0 1730.0 1.0593194812624605e-13 1730.0" fill="none" stroke="black" stroke-width="4.5" /><path d="M 2247.5 0.0 C 2247.5 2247.5 3710.0 3710.0 2.2717198124183403e-13 3710.0" fill="none" stroke="black" stroke-width="4.5" /><path d="M 2247.5 0.0 C 2247.5 2247.5 3282.5 3282.5 2.0099515591005935e-13 3282.5" fill="none" stroke="black" stroke-width="4.5" /><path d="M 2247.5 0.0 C 2247.5 2247.5 155.0 155.0 9.491012693391987e-15 155.0" fill="none" stroke="black" stroke-width="4.5" /><path d="M 2247.5 0.0 C 2247.5 2247.5 2090.0 2090.0 1.279755905108984e-13 2090.0" fill="none" stroke="black" stroke-width="4.5" /><path d="M 2.7401472130922027e-14 447.5 C -447.5 447.50000000000006 -267.5 267.50000000000006 -267.5 3.2759301877191696e-14" fill="none" stroke="black" stroke-width="4.5" /><path d="M 4.668965921749284e-14 762.5 C -762.5 762.5000000000001 -2810.0 2810.0000000000005 -2810.0 3.4412575056040627e-13" fill="none" stroke="black" stroke-width="4.5" /><path d="M 4.668965921749284e-14 762.5 C -762.5 762.5000000000001 -3957.4999999999995 3957.5000000000005 -3957.5 4.84653970762565e-13" fill="none" stroke="black" stroke-width="4.5" /><path d="M 4.668965921749284e-14 762.5 C -762.5 762.5000000000001 -4565.0 4565.000000000001 -4565.0 5.590512638107668e-13" fill="none" stroke="black" stroke-width="4.5" /><path d="M 1.7619605822732544e-13 2877.5 C -2877.5 2877.5000000000005 -3372.5 3372.5000000000005 -3372.5 4.1301213301244486e-13" fill="none" stroke="black" stroke-width="4.5" /><path d="M 2.2717198124183403e-13 3710.0 C -3710.0 3710.0000000000005 -1752.5 1752.5000000000002 -1752.5 2.1461935155057364e-13" fill="none" stroke="black" stroke-width="4.5" /><path d="M 9.491012693391987e-15 155.0 C -155.0 155.00000000000003 -1257.5 1257.5000000000002 -1257.5 1.5399933499277966e-13" fill="none" stroke="black" stroke-width="4.5" /><path d="M 6.597784630406366e-14 1077.5 C -1077.5 1077.5000000000002 -267.5 267.50000000000006 -267.5 3.2759301877191696e-14" fill="none" stroke="black" stroke-width="4.5" /><path d="M 1.0593194812624605e-13 1730.0 C -1730.0 1730.0000000000002 -4565.0 4565.000000000001 -4565.0 5.590512638107668e-13" fill="none" stroke="black" stroke-width="4.5" /><path d="M 1.7619605822732544e-13 2877.5 C -2877.5 2877.5000000000005 -2269.9999999999995 2270.0000000000005 -2270.0 2.779948234064492e-13" fill="none" stroke="black" stroke-width="4.5" /><path d="M 6.597784630406366e-14 1077.5 C -1077.5 1077.5000000000002 -2269.9999999999995 2270.0000000000005 -2270.0 2.779948234064492e-13" fill="none" stroke="black" stroke-width="4.5" /><path d="M 1.0593194812624605e-13 1730.0 C -1730.0 1730.0000000000002 -2269.9999999999995 2270.0000000000005 -2270.0 2.779948234064492e-13" fill="none" stroke="black" stroke-width="4.5" /><path d="M 2.2717198124183403e-13 3710.0 C -3710.0 3710.0000000000005 -2809.9999999999995 2810.0000000000005 -2810.0 3.4412575056040627e-13" fill="none" stroke="black" stroke-width="4.5" /><path d="M 1.5139696054459154e-13 2472.5 C -2472.5 2472.5000000000005 -2809.9999999999995 2810.0000000000005 -2810.0 3.4412575056040627e-13" fill="none" stroke="black" stroke-width="4.5" /><path d="M 4.668965921749284e-14 762.5 C -762.5 762.5000000000001 -2809.9999999999995 2810.0000000000005 -2810.0 3.4412575056040627e-13" fill="none" stroke="black" stroke-width="4.5" /><path d="M 2.7401472130922027e-14 447.5 C -447.5 447.50000000000006 -2809.9999999999995 2810.0000000000005 -2810.0 3.4412575056040627e-13" fill="none" stroke="black" stroke-width="4.5" /><path d="M 2.0099515591005935e-13 3282.5 C -3282.5 3282.5000000000005 -3957.499999999999 3957.5000000000005 -3957.5 4.84653970762565e-13" fill="none" stroke="black" stroke-width="4.5" /><path d="M 2.2717198124183403e-13 3710.0 C -3710.0 3710.0000000000005 -1752.4999999999998 1752.5000000000002 -1752.5 2.1461935155057364e-13" fill="none" stroke="black" stroke-width="4.5" /><path d="M 2.0099515591005935e-13 3282.5 C -3282.5 3282.5000000000005 -1752.4999999999998 1752.5000000000002 -1752.5 2.1461935155057364e-13" fill="none" stroke="black" stroke-width="4.5" /><path d="M 1.279755905108984e-13 2090.0 C -2090.0 2090.0000000000005 -3372.5 3372.5000000000005 -3372.5 4.1301213301244486e-13" fill="none" stroke="black" stroke-width="4.5" /><path d="M 1.0593194812624605e-13 1730.0 C -1730.0 1730.0000000000002 -5194.999999999999 5195.000000000001 -5195.0 6.3620401215705e-13" fill="none" stroke="black" stroke-width="4.5" /><path d="M 2.2717198124183403e-13 3710.0 C -3710.0 3710.0000000000005 -5194.999999999999 5195.000000000001 -5195.0 6.3620401215705e-13" fill="none" stroke="black" stroke-width="4.5" /><path d="M 2.0099515591005935e-13 3282.5 C -3282.5 3282.5000000000005 -5194.999999999999 5195.000000000001 -5195.0 6.3620401215705e-13" fill="none" stroke="black" stroke-width="4.5" /><path d="M 1.279755905108984e-13 2090.0 C -2090.0 2090.0000000000005 -5194.999999999999 5195.000000000001 -5195.0 6.3620401215705e-13" fill="none" stroke="black" stroke-width="4.5" /><path d="M 8.526603339063447e-14 1392.5 C -1392.5 1392.5000000000002 -2810.0 2810.0000000000005 -2810.0 3.4412575056040627e-13" fill="none" stroke="black" stroke-width="4.5" /><path d="M 8.526603339063447e-14 1392.5 C -1392.5 1392.5000000000002 -3957.4999999999995 3957.5000000000005 -3957.5 4.84653970762565e-13" fill="none" stroke="black" stroke-width="4.5" /><path d="M 8.526603339063447e-14 1392.5 C -1392.5 1392.5000000000002 -4565.0 4565.000000000001 -4565.0 5.590512638107668e-13" fill="none" stroke="black" stroke-width="4.5" /><path d="M -3372.5 4.1301213301244486e-13 C -3372.5000000000005 -3372.4999999999995 -852.5000000000001 -852.4999999999998 -1.566017094409678e-13 -852.5" fill="none" stroke="black" stroke-width="4.5" /><path d="M -3372.5 4.1301213301244486e-13 C -3372.5000000000005 -3372.4999999999995 -1685.0000000000002 -1684.9999999999998 -3.095294784844935e-13 -1685.0" fill="none" stroke="black" stroke-width="4.5" /><path d="M -3372.5 4.1301213301244486e-13 C -3372.5000000000005 -3372.4999999999995 -3867.500000000001 -3867.4999999999995 -7.104482243553583e-13 -3867.5" fill="none" stroke="black" stroke-width="4.5" /><path d="M -1257.5 1.5399933499277966e-13 C -1257.5000000000002 -1257.4999999999998 -3192.5000000000005 -3192.499999999999 -5.864527359416887e-13 -3192.5" fill="none" stroke="black" stroke-width="4.5" /><path d="M -2270.0 2.779948234064492e-13 C -2270.0000000000005 -2269.9999999999995 -3642.5000000000005 -3642.4999999999995 -6.69116394884135e-13 -3642.5" fill="none" stroke="black" stroke-width="4.5" /><path d="M -4565.0 5.590512638107668e-13 C -4565.000000000001 -4564.999999999999 -1122.5000000000002 -1122.4999999999998 -2.0619990480643558e-13 -1122.5" fill="none" stroke="black" stroke-width="4.5" /><path d="M -4565.0 5.590512638107668e-13 C -4565.000000000001 -4564.999999999999 -1257.5000000000002 -1257.4999999999998 -2.309990024891695e-13 -1257.5" fill="none" stroke="black" stroke-width="4.5" /><path d="M -4565.0 5.590512638107668e-13 C -4565.000000000001 -4564.999999999999 -987.5000000000002 -987.4999999999999 -1.8140080712370167e-13 -987.5" fill="none" stroke="black" stroke-width="4.5" /><path d="M -4565.0 5.590512638107668e-13 C -4565.000000000001 -4564.999999999999 -1685.0000000000002 -1684.9999999999998 -3.095294784844935e-13 -1685.0" fill="none" stroke="black" stroke-width="4.5" /><path d="M -4565.0 5.590512638107668e-13 C -4565.000000000001 -4564.999999999999 -3867.500000000001 -3867.4999999999995 -7.104482243553583e-13 -3867.5" fill="none" stroke="black" stroke-width="4.5" /><path d="M -267.5 3.2759301877191696e-14 C -267.50000000000006 -267.49999999999994 -650.0000000000001 -649.9999999999999 -1.1940306291686692e-13 -650.0" fill="none" stroke="black" stroke-width="4.5" /><path d="M -762.5 9.337931843498568e-14 C -762.5000000000001 -762.4999999999999 -4092.500000000001 -4092.4999999999995 -7.517800538265814e-13 -4092.5" fill="none" stroke="black" stroke-width="4.5" /><path d="M -2270.0 2.779948234064492e-13 C -2270.0000000000005 -2269.9999999999995 -4092.500000000001 -4092.499999999999 -7.517800538265814e-13 -4092.5" fill="none" stroke="black" stroke-width="4.5" /><path d="M -2810.0 3.4412575056040627e-13 C -2810.0000000000005 -2809.9999999999995 -42.50000000000001 -42.49999999999999 -7.807123344564377e-15 -42.5" fill="none" stroke="black" stroke-width="4.5" /><path d="M -2810.0 3.4412575056040627e-13 C -2810.0000000000005 -2809.9999999999995 -380.00000000000006 -379.99999999999994 -6.980486755139912e-14 -380.0" fill="none" stroke="black" stroke-width="4.5" /><path d="M -2810.0 3.4412575056040627e-13 C -2810.0000000000005 -2809.9999999999995 -4317.500000000001 -4317.499999999999 -7.931118832978046e-13 -4317.5" fill="none" stroke="black" stroke-width="4.5" /><path d="M -2810.0 3.4412575056040627e-13 C -2810.0000000000005 -2809.9999999999995 -3192.5000000000005 -3192.4999999999995 -5.864527359416887e-13 -3192.5" fill="none" stroke="black" stroke-width="4.5" /><path d="M -3957.5 4.84653970762565e-13 C -3957.500000000001 -3957.4999999999995 -2225.0000000000005 -2224.9999999999995 -4.087258692154291e-13 -2225.0" fill="none" stroke="black" stroke-width="4.5" /><path d="M -3957.5 4.84653970762565e-13 C -3957.500000000001 -3957.4999999999995 -2967.5000000000005 -2967.4999999999995 -5.451209064704656e-13 -2967.5" fill="none" stroke="black" stroke-width="4.5" /><path d="M -3957.5 4.84653970762565e-13 C -3957.500000000001 -3957.4999999999995 -87.50000000000001 -87.49999999999999 -1.607348923880901e-14 -87.5" fill="none" stroke="black" stroke-width="4.5" /><path d="M -3957.5 4.84653970762565e-13 C -3957.500000000001 -3957.4999999999995 -132.50000000000003 -132.49999999999997 -2.4339855133053642e-14 -132.5" fill="none" stroke="black" stroke-width="4.5" /><path d="M -267.5 3.2759301877191696e-14 C -267.50000000000006 -267.49999999999994 -2045.0000000000005 -2044.9999999999995 -3.7566040563845056e-13 -2045.0" fill="none" stroke="black" stroke-width="4.5" /><path d="M -1257.5 1.5399933499277966e-13 C -1257.5000000000002 -1257.4999999999998 -1122.5000000000002 -1122.4999999999998 -2.0619990480643558e-13 -1122.5" fill="none" stroke="black" stroke-width="4.5" /><path d="M -1257.5 1.5399933499277966e-13 C -1257.5000000000002 -1257.4999999999998 -1685.0000000000002 -1684.9999999999998 -3.095294784844935e-13 -1685.0" fill="none" stroke="black" stroke-width="4.5" /><path d="M -1257.5 1.5399933499277966e-13 C -1257.5000000000002 -1257.4999999999998 -1257.5000000000002 -1257.4999999999998 -2.309990024891695e-13 -1257.5" fill="none" stroke="black" stroke-width="4.5" /><path d="M -1257.5 1.5399933499277966e-13 C -1257.5000000000002 -1257.4999999999998 -3867.500000000001 -3867.4999999999995 -7.104482243553583e-13 -3867.5" fill="none" stroke="black" stroke-width="4.5" /><path d="M -1752.5 2.1461935155057364e-13 C -1752.5000000000002 -1752.4999999999998 -650.0000000000001 -649.9999999999999 -1.1940306291686692e-13 -650.0" fill="none" stroke="black" stroke-width="4.5" /><path d="M -1752.5 2.1461935155057364e-13 C -1752.5000000000002 -1752.4999999999998 -200.00000000000003 -199.99999999999997 -3.6739403974420595e-14 -200.0" fill="none" stroke="black" stroke-width="4.5" /><path d="M -762.5 9.337931843498568e-14 C -762.5000000000001 -762.4999999999999 -2405.0000000000005 -2404.9999999999995 -4.4179133279240764e-13 -2405.0" fill="none" stroke="black" stroke-width="4.5" /><path d="M -4565.0 5.590512638107668e-13 C -4565.000000000001 -4564.999999999999 -2585.0000000000005 -2584.9999999999995 -4.748567963693862e-13 -2585.0" fill="none" stroke="black" stroke-width="4.5" /><path d="M -5195.0 6.3620401215705e-13 C -5195.000000000001 -5194.999999999999 -3417.5000000000005 -3417.4999999999995 -6.277845654129119e-13 -3417.5" fill="none" stroke="black" stroke-width="4.5" /><path d="M -5195.0 6.3620401215705e-13 C -5195.000000000001 -5194.999999999999 -3192.5000000000005 -3192.4999999999995 -5.864527359416887e-13 -3192.5" fill="none" stroke="black" stroke-width="4.5" /><path d="M -5195.0 6.3620401215705e-13 C -5195.000000000001 -5194.999999999999 -2765.0000000000005 -2764.9999999999995 -5.079222599463647e-13 -2765.0" fill="none" stroke="black" stroke-width="4.5" /><g><line stroke="black" stroke-width="2.1" x1="20.0" x2="2720.0" y1="0.0" y2="0.0" /><g><circle cx="447.5" cy="0.0" fill="blue" fill-opacity="0.65" r="427.5" stroke="blue" stroke-width="0.1" /><text text-anchor="middle" transform="translate(447.5, 0.0) scale(8.5) rotate(-90)">13P1</text></g><g><circle cx="1325.0" cy="0.0" fill="green" fill-opacity="0.65" r="450.0" stroke="green" stroke-width="0.1" /><text text-anchor="middle" transform="translate(1325.0, 0.0) scale(8.5) rotate(-90)">14P1</text></g><g><circle cx="2247.5" cy="0.0" fill="green" fill-opacity="0.65" r="472.5" stroke="green" stroke-width="0.1" /><text text-anchor="middle" transform="translate(2247.5, 0.0) scale(8.5) rotate(-90)">04P1</text></g></g><g><line stroke="black" stroke-width="2.1" x1="1.2246467991473533e-15" x2="2.4094925773224174e-13" y1="20.0" y2="3935.0" /><g><circle cx="9.491012693391987e-15" cy="155.0" fill="blue" fill-opacity="0.65" r="135.0" stroke="blue" stroke-width="0.1" /><text text-anchor="middle" transform="translate(9.491012693391987e-15, 155.0) scale(8.5) rotate(0)">12P2</text></g><g><circle cx="2.7401472130922027e-14" cy="447.5" fill="green" fill-opacity="0.65" r="157.5" stroke="green" stroke-width="0.1" /><text text-anchor="middle" transform="translate(2.7401472130922027e-14, 447.5) scale(8.5) rotate(0)">04P5</text></g><g><circle cx="4.668965921749284e-14" cy="762.5" fill="blue" fill-opacity="0.65" r="157.5" stroke="blue" stroke-width="0.1" /><text text-anchor="middle" transform="translate(4.668965921749284e-14, 762.5) scale(8.5) rotate(0)">06P3</text></g><g><circle cx="6.597784630406366e-14" cy="1077.5" fill="green" fill-opacity="0.65" r="157.5" stroke="green" stroke-width="0.1" /><text text-anchor="middle" transform="translate(6.597784630406366e-14, 1077.5) scale(8.5) rotate(0)">04P4</text></g><g><circle cx="8.526603339063447e-14" cy="1392.5" fill="blue" fill-opacity="0.65" r="157.5" stroke="blue" stroke-width="0.1" /><text text-anchor="middle" transform="translate(8.526603339063447e-14, 1392.5) scale(8.5) rotate(0)">06P1</text></g><g><circle cx="1.0593194812624605e-13" cy="1730.0" fill="blue" fill-opacity="0.65" r="180.0" stroke="blue" stroke-width="0.1" /><text text-anchor="middle" transform="translate(1.0593194812624605e-13, 1730.0) scale(8.5) rotate(0)">06P2</text></g><g><circle cx="1.279755905108984e-13" cy="2090.0" fill="blue" fill-opacity="0.65" r="180.0" stroke="blue" stroke-width="0.1" /><text text-anchor="middle" transform="translate(1.279755905108984e-13, 2090.0) scale(8.5) rotate(0)">13P3</text></g><g><circle cx="1.5139696054459154e-13" cy="2472.5" fill="blue" fill-opacity="0.65" r="202.5" stroke="blue" stroke-width="0.1" /><text text-anchor="middle" transform="translate(1.5139696054459154e-13, 2472.5) scale(8.5) rotate(0)">01P4</text></g><g><circle cx="1.7619605822732544e-13" cy="2877.5" fill="purple" fill-opacity="0.65" r="202.5" stroke="purple" stroke-width="0.1" /><text text-anchor="middle" transform="translate(1.7619605822732544e-13, 2877.5) scale(8.5) rotate(0)">17P2</text></g><g><circle cx="2.0099515591005935e-13" cy="3282.5" fill="red" fill-opacity="0.65" r="202.5" stroke="red" stroke-width="0.1" /><text text-anchor="middle" transform="translate(2.0099515591005935e-13, 3282.5) scale(8.5) rotate(0)">09P1</text></g><g><circle cx="2.2717198124183403e-13" cy="3710.0" fill="green" fill-opacity="0.65" r="225.0" stroke="green" stroke-width="0.1" /><text text-anchor="middle" transform="translate(2.2717198124183403e-13, 3710.0) scale(8.5) rotate(0)">11P1</text></g></g><g><line stroke="black" stroke-width="2.1" x1="-20.0" x2="-5510.0" y1="2.4492935982947065e-15" y2="6.747803863301916e-13" /><g><circle cx="-267.5" cy="3.2759301877191696e-14" fill="blue" fill-opacity="0.65" r="247.5" stroke="blue" stroke-width="0.1" /><text text-anchor="middle" transform="translate(-267.5, 3.2759301877191696e-14) scale(1.5) rotate(270)">16P2</text></g><g><circle cx="-762.5" cy="9.337931843498568e-14" fill="purple" fill-opacity="0.65" r="247.5" stroke="purple" stroke-width="0.1" /><text text-anchor="middle" transform="translate(-762.5, 9.337931843498568e-14) scale(1.5) rotate(270)">17P1</text></g><g><circle cx="-1257.5" cy="1.5399933499277966e-13" fill="green" fill-opacity="0.65" r="247.5" stroke="green" stroke-width="0.1" /><text text-anchor="middle" transform="translate(-1257.5, 1.5399933499277966e-13) scale(1.5) rotate(270)">14P3</text></g><g><circle cx="-1752.5" cy="2.1461935155057364e-13" fill="green" fill-opacity="0.65" r="247.5" stroke="green" stroke-width="0.1" /><text text-anchor="middle" transform="translate(-1752.5, 2.1461935155057364e-13) scale(1.5) rotate(270)">07P1</text></g><g><circle cx="-2270.0" cy="2.779948234064492e-13" fill="blue" fill-opacity="0.65" r="270.0" stroke="blue" stroke-width="0.1" /><text text-anchor="middle" transform="translate(-2270.0, 2.779948234064492e-13) scale(1.5) rotate(270)">01P3</text></g><g><circle cx="-2810.0" cy="3.4412575056040627e-13" fill="blue" fill-opacity="0.65" r="270.0" stroke="blue" stroke-width="0.1" /><text text-anchor="middle" transform="translate(-2810.0, 3.4412575056040627e-13) scale(1.5) rotate(270)">10P1</text></g><g><circle cx="-3372.5" cy="4.1301213301244486e-13" fill="green" fill-opacity="0.65" r="292.5" stroke="green" stroke-width="0.1" /><text text-anchor="middle" transform="translate(-3372.5, 4.1301213301244486e-13) scale(1.5) rotate(270)">14P4</text></g><g><circle cx="-3957.5" cy="4.84653970762565e-13" fill="green" fill-opacity="0.65" r="292.5" stroke="green" stroke-width="0.1" /><text text-anchor="middle" transform="translate(-3957.5, 4.84653970762565e-13) scale(1.5) rotate(270)">08P1</text></g><g><circle cx="-4565.0" cy="5.590512638107668e-13" fill="green" fill-opacity="0.65" r="315.0" stroke="green" stroke-width="0.1" /><text text-anchor="middle" transform="translate(-4565.0, 5.590512638107668e-13) scale(1.5) rotate(270)">14P2</text></g><g><circle cx="-5195.0" cy="6.3620401215705e-13" fill="green" fill-opacity="0.65" r="315.0" stroke="green" stroke-width="0.1" /><text text-anchor="middle" transform="translate(-5195.0, 6.3620401215705e-13) scale(1.5) rotate(270)">04P3</text></g></g><g><line stroke="black" stroke-width="2.1" x1="-3.673940397442059e-15" x2="-8.551096275046393e-13" y1="-20.0" y2="-4655.0" /><g><circle cx="-7.807123344564377e-15" cy="-42.5" fill="green" fill-opacity="0.65" r="22.5" stroke="green" stroke-width="0.1" /><text text-anchor="middle" transform="translate(-7.807123344564377e-15, -42.5) scale(1.5) rotate(360)">08P2</text></g><g><circle cx="-1.607348923880901e-14" cy="-87.5" fill="red" fill-opacity="0.65" r="22.5" stroke="red" stroke-width="0.1" /><text text-anchor="middle" transform="translate(-1.607348923880901e-14, -87.5) scale(1.5) rotate(360)">03P2</text></g><g><circle cx="-2.4339855133053642e-14" cy="-132.5" fill="blue" fill-opacity="0.65" r="22.5" stroke="blue" stroke-width="0.1" /><text text-anchor="middle" transform="translate(-2.4339855133053642e-14, -132.5) scale(1.5) rotate(360)">12P3</text></g><g><circle cx="-3.6739403974420595e-14" cy="-200.0" fill="red" fill-opacity="0.65" r="45.0" stroke="red" stroke-width="0.1" /><text text-anchor="middle" transform="translate(-3.6739403974420595e-14, -200.0) scale(1.5) rotate(360)">09P3</text></g><g><circle cx="-5.327213576290986e-14" cy="-290.0" fill="red" fill-opacity="0.65" r="45.0" stroke="red" stroke-width="0.1" /><text text-anchor="middle" transform="translate(-5.327213576290986e-14, -290.0) scale(1.5) rotate(360)">03P4</text></g><g><circle cx="-6.980486755139912e-14" cy="-380.0" fill="red" fill-opacity="0.65" r="45.0" stroke="red" stroke-width="0.1" /><text text-anchor="middle" transform="translate(-6.980486755139912e-14, -380.0) scale(1.5) rotate(360)">15P3</text></g><g><circle cx="-8.633759933988839e-14" cy="-470.0" fill="blue" fill-opacity="0.65" r="45.0" stroke="blue" stroke-width="0.1" /><text text-anchor="middle" transform="translate(-8.633759933988839e-14, -470.0) scale(1.5) rotate(360)">16P3</text></g><g><circle cx="-1.0287033112837766e-13" cy="-560.0" fill="green" fill-opacity="0.65" r="45.0" stroke="green" stroke-width="0.1" /><text text-anchor="middle" transform="translate(-1.0287033112837766e-13, -560.0) scale(1.5) rotate(360)">11P2</text></g><g><circle cx="-1.1940306291686692e-13" cy="-650.0" fill="red" fill-opacity="0.65" r="45.0" stroke="red" stroke-width="0.1" /><text text-anchor="middle" transform="translate(-1.1940306291686692e-13, -650.0) scale(1.5) rotate(360)">09P4</text></g><g><circle cx="-1.359357947053562e-13" cy="-740.0" fill="blue" fill-opacity="0.65" r="45.0" stroke="blue" stroke-width="0.1" /><text text-anchor="middle" transform="translate(-1.359357947053562e-13, -740.0) scale(1.5) rotate(360)">10P3</text></g><g><circle cx="-1.566017094409678e-13" cy="-852.5" fill="blue" fill-opacity="0.65" r="67.5" stroke="blue" stroke-width="0.1" /><text text-anchor="middle" transform="translate(-1.566017094409678e-13, -852.5) scale(1.5) rotate(360)">13P2</text></g><g><circle cx="-1.8140080712370167e-13" cy="-987.5" fill="green" fill-opacity="0.65" r="67.5" stroke="green" stroke-width="0.1" /><text text-anchor="middle" transform="translate(-1.8140080712370167e-13, -987.5) scale(1.5) rotate(360)">14P6</text></g><g><circle cx="-2.0619990480643558e-13" cy="-1122.5" fill="blue" fill-opacity="0.65" r="67.5" stroke="blue" stroke-width="0.1" /><text text-anchor="middle" transform="translate(-2.0619990480643558e-13, -1122.5) scale(1.5) rotate(360)">06P4</text></g><g><circle cx="-2.309990024891695e-13" cy="-1257.5" fill="blue" fill-opacity="0.65" r="67.5" stroke="blue" stroke-width="0.1" /><text text-anchor="middle" transform="translate(-2.309990024891695e-13, -1257.5) scale(1.5) rotate(360)">10P2</text></g><g><circle cx="-2.5579810017190336e-13" cy="-1392.5" fill="red" fill-opacity="0.65" r="67.5" stroke="red" stroke-width="0.1" /><text text-anchor="middle" transform="translate(-2.5579810017190336e-13, -1392.5) scale(1.5) rotate(360)">09P2</text></g><g><circle cx="-2.805971978546373e-13" cy="-1527.5" fill="red" fill-opacity="0.65" r="67.5" stroke="red" stroke-width="0.1" /><text text-anchor="middle" transform="translate(-2.805971978546373e-13, -1527.5) scale(1.5) rotate(360)">03P1</text></g><g><circle cx="-3.095294784844935e-13" cy="-1685.0" fill="green" fill-opacity="0.65" r="90.0" stroke="green" stroke-width="0.1" /><text text-anchor="middle" transform="translate(-3.095294784844935e-13, -1685.0) scale(1.5) rotate(360)">07P3</text></g><g><circle cx="-3.42594942061472e-13" cy="-1865.0" fill="blue" fill-opacity="0.65" r="90.0" stroke="blue" stroke-width="0.1" /><text text-anchor="middle" transform="translate(-3.42594942061472e-13, -1865.0) scale(1.5) rotate(360)">01P2</text></g><g><circle cx="-3.7566040563845056e-13" cy="-2045.0" fill="green" fill-opacity="0.65" r="90.0" stroke="green" stroke-width="0.1" /><text text-anchor="middle" transform="translate(-3.7566040563845056e-13, -2045.0) scale(1.5) rotate(360)">04P2</text></g><g><circle cx="-4.087258692154291e-13" cy="-2225.0" fill="red" fill-opacity="0.65" r="90.0" stroke="red" stroke-width="0.1" /><text text-anchor="middle" transform="translate(-4.087258692154291e-13, -2225.0) scale(1.5) rotate(360)">15P2</text></g><g><circle cx="-4.4179133279240764e-13" cy="-2405.0" fill="green" fill-opacity="0.65" r="90.0" stroke="green" stroke-width="0.1" /><text text-anchor="middle" transform="translate(-4.4179133279240764e-13, -2405.0) scale(1.5) rotate(360)">14P5</text></g><g><circle cx="-4.748567963693862e-13" cy="-2585.0" fill="blue" fill-opacity="0.65" r="90.0" stroke="blue" stroke-width="0.1" /><text text-anchor="middle" transform="translate(-4.748567963693862e-13, -2585.0) scale(1.5) rotate(360)">01P1</text></g><g><circle cx="-5.079222599463647e-13" cy="-2765.0" fill="red" fill-opacity="0.65" r="90.0" stroke="red" stroke-width="0.1" /><text text-anchor="middle" transform="translate(-5.079222599463647e-13, -2765.0) scale(1.5) rotate(360)">05P2</text></g><g><circle cx="-5.451209064704656e-13" cy="-2967.5" fill="blue" fill-opacity="0.65" r="112.5" stroke="blue" stroke-width="0.1" /><text text-anchor="middle" transform="translate(-5.451209064704656e-13, -2967.5) scale(1.5) rotate(360)">10P4</text></g><g><circle cx="-5.864527359416887e-13" cy="-3192.5" fill="blue" fill-opacity="0.65" r="112.5" stroke="blue" stroke-width="0.1" /><text text-anchor="middle" transform="translate(-5.864527359416887e-13, -3192.5) scale(1.5) rotate(360)">12P4</text></g><g><circle cx="-6.277845654129119e-13" cy="-3417.5" fill="red" fill-opacity="0.65" r="112.5" stroke="red" stroke-width="0.1" /><text text-anchor="middle" transform="translate(-6.277845654129119e-13, -3417.5) scale(1.5) rotate(360)">03P3</text></g><g><circle cx="-6.69116394884135e-13" cy="-3642.5" fill="red" fill-opacity="0.65" r="112.5" stroke="red" stroke-width="0.1" /><text text-anchor="middle" transform="translate(-6.69116394884135e-13, -3642.5) scale(1.5) rotate(360)">05P1</text></g><g><circle cx="-7.104482243553583e-13" cy="-3867.5" fill="blue" fill-opacity="0.65" r="112.5" stroke="blue" stroke-width="0.1" /><text text-anchor="middle" transform="translate(-7.104482243553583e-13, -3867.5) scale(1.5) rotate(360)">16P1</text></g><g><circle cx="-7.517800538265814e-13" cy="-4092.5" fill="green" fill-opacity="0.65" r="112.5" stroke="green" stroke-width="0.1" /><text text-anchor="middle" transform="translate(-7.517800538265814e-13, -4092.5) scale(1.5) rotate(360)">07P2</text></g><g><circle cx="-7.931118832978046e-13" cy="-4317.5" fill="red" fill-opacity="0.65" r="112.5" stroke="red" stroke-width="0.1" /><text text-anchor="middle" transform="translate(-7.931118832978046e-13, -4317.5) scale(1.5) rotate(360)">15P1</text></g><g><circle cx="-8.344437127690277e-13" cy="-4542.5" fill="blue" fill-opacity="0.65" r="112.5" stroke="blue" stroke-width="0.1" /><text text-anchor="middle" transform="translate(-8.344437127690277e-13, -4542.5) scale(1.5) rotate(360)">12P1</text></g></g></svg>