<?xml version="1.0" encoding="utf-8" ?>
<svg baseProfile="full" height="100%" version="1.1" viewBox="-9020.0,-9020.0,18040.0,18040.0" width="100%" xmlns="http://www.w3.org/2000/svg" xmlns:ev="http://www.w3.org/2001/xml-events" xmlns:xlink="http://www.w3.org/1999/xlink"><defs /><path d="M -9.873714818125534e-13 -5375.0 C 5374.999999999999 -5375.000000000001 695.0 -695.0 695.0 0.0" fill="none" stroke="black" stroke-width="4.5" /><path d="M -3.343285761672274e-13 -1820.0 C 1819.9999999999998 -1820.0000000000005 695.0 -695.0 695.0 0.0" fill="none" stroke="black" stroke-width="4.5" /><path d="M -7.517800538265814e-13 -4092.5 C 4092.499999999999 -4092.500000000001 695.0 -695.0 695.0 0.0" fill="none" stroke="black" stroke-width="4.5" /><path d="M -6.443172972014012e-13 -3507.5 C 3507.4999999999995 -3507.500000000001 695.0 -695.0 695.0 0.0" fill="none" stroke="black" stroke-width="4.5" /><path d="M -1.1196333361204676e-12 -6095.0 C 6094.999999999999 -6095.000000000002 695.0 -695.0 695.0 0.0" fill="none" stroke="black" stroke-width="4.5" /><path d="M -3.6739403974420595e-13 -2000.0 C 1999.9999999999995 -2000.0000000000005 695.0 -695.0 695.0 0.0" fill="none" stroke="black" stroke-width="4.5" /><path d="M -5.203218087877316e-13 -2832.5 C 2832.4999999999995 -2832.500000000001 3507.5 -3507.5 3507.5 0.0" fill="none" stroke="black" stroke-width="4.5" /><path d="M -3.343285761672274e-13 -1820.0 C 1819.9999999999998 -1820.0000000000005 3507.5 -3507.5 3507.5 0.0" fill="none" stroke="black" stroke-width="4.5" /><path d="M -4.789899793165085e-13 -2607.5 C 2607.4999999999995 -2607.5000000000005 3507.5 -3507.5 3507.5 0.0" fill="none" stroke="black" stroke-width="4.5" /><path d="M -1.1857642632744246e-12 -6455.0 C 6454.999999999999 -6455.000000000002 3507.5 -3507.5 3507.5 0.0" fill="none" stroke="black" stroke-width="4.5" /><path d="M -8.096446150862938e-13 -4407.5 C 4407.499999999999 -4407.500000000001 3507.5 -3507.5 3507.5 0.0" fill="none" stroke="black" stroke-width="4.5" /><path d="M -1.1526987996974462e-13 -627.5 C 627.4999999999999 -627.5000000000001 3507.5 -3507.5 3507.5 0.0" fill="none" stroke="black" stroke-width="4.5" /><path d="M -4.004595033211845e-13 -2180.0 C 2179.9999999999995 -2180.0000000000005 3507.5 -3507.5 3507.5 0.0" fill="none" stroke="black" stroke-width="4.5" /><path d="M -4.500576986866523e-14 -245.0 C 244.99999999999994 -245.00000000000006 3507.5 -3507.5 3507.5 0.0" fill="none" stroke="black" stroke-width="4.5" /><path d="M -9.047078228701071e-14 -492.5 C 492.4999999999999 -492.5000000000001 3507.5 -3507.5 3507.5 0.0" fill="none" stroke="black" stroke-width="4.5" /><path d="M -1.4006897765247852e-13 -762.5 C 762.4999999999999 -762.5000000000002 3507.5 -3507.5 3507.5 0.0" fill="none" stroke="black" stroke-width="4.5" /><path d="M -7.517800538265814e-13 -4092.5 C 4092.499999999999 -4092.500000000001 3507.5 -3507.5 3507.5 0.0" fill="none" stroke="black" stroke-width="4.5" /><path d="M -6.02985467730178e-13 -3282.5 C 3282.4999999999995 -3282.500000000001 3507.5 -3507.5 3507.5 0.0" fill="none" stroke="black" stroke-width="4.5" /><path d="M -9.253737376057186e-13 -5037.5 C 5037.499999999999 -5037.500000000001 3507.5 -3507.5 3507.5 0.0" fill="none" stroke="black" stroke-width="4.5" /><path d="M -1.1196333361204676e-12 -6095.0 C 6094.999999999999 -6095.000000000002 3507.5 -3507.5 3507.5 0.0" fill="none" stroke="black" stroke-width="4.5" /><path d="M -3.6739403974420595e-13 -2000.0 C 1999.9999999999995 -2000.0000000000005 3507.5 -3507.5 3507.5 0.0" fill="none" stroke="black" stroke-width="4.5" /><path d="M -3.0126311259024887e-13 -1640.0 C 1639.9999999999998 -1640.0000000000005 695.0 -695.0 695.0 0.0" fill="none" stroke="black" stroke-width="4.5" /><path d="M -8.675091763460063e-13 -4722.5 C 4722.499999999999 -4722.500000000001 695.0 -695.0 695.0 0.0" fill="none" stroke="black" stroke-width="4.5" /><path d="M -5.616536382589548e-13 -3057.5 C 3057.4999999999995 -3057.500000000001 695.0 -695.0 695.0 0.0" fill="none" stroke="black" stroke-width="4.5" /><path d="M -6.02985467730178e-13 -3282.5 C 3282.4999999999995 -3282.500000000001 2067.5 -2067.5 2067.5 0.0" fill="none" stroke="black" stroke-width="4.5" /><path d="M -4.3765814984528534e-13 -2382.5 C 2382.4999999999995 -2382.5000000000005 2067.5 -2067.5 2067.5 0.0" fill="none" stroke="black" stroke-width="4.5" /><path d="M -4.789899793165085e-13 -2607.5 C 2607.4999999999995 -2607.5000000000005 2067.5 -2067.5 2067.5 0.0" fill="none" stroke="black" stroke-width="4.5" /><path d="M -2.847303808017596e-14 -155.0 C 154.99999999999997 -155.00000000000003 2067.5 -2067.5 2067.5 0.0" fill="none" stroke="black" stroke-width="4.5" /><path d="M -6.443172972014012e-13 -3507.5 C 3507.4999999999995 -3507.500000000001 2067.5 -2067.5 2067.5 0.0" fill="none" stroke="black" stroke-width="4.5" /><path d="M -1.1196333361204676e-12 -6095.0 C 6094.999999999999 -6095.000000000002 2067.5 -2067.5 2067.5 0.0" fill="none" stroke="black" stroke-width="4.5" /><path d="M -2.6819764901327033e-13 -1460.0 C 1459.9999999999998 -1460.0000000000005 2067.5 -2067.5 2067.5 0.0" fill="none" stroke="black" stroke-width="4.5" /><path d="M 695.0 0.0 C 695.0 695.0 222.5 222.49999999999997 1.3624195640514304e-14 222.5" fill="none" stroke="black" stroke-width="4.5" /><path d="M 695.0 0.0 C 695.0 695.0 5285.0 5284.999999999999 3.236129166746881e-13 5285.0" fill="none" stroke="black" stroke-width="4.5" /><path d="M 695.0 0.0 C 695.0 695.0 6567.5 6567.5 4.021433926700121e-13 6567.5" fill="none" stroke="black" stroke-width="4.5" /><path d="M 695.0 0.0 C 695.0 695.0 3485.0 3485.0 2.1339470475142629e-13 3485.0" fill="none" stroke="black" stroke-width="4.5" /><path d="M 695.0 0.0 C 695.0 695.0 7242.5 7242.5 4.434752221412353e-13 7242.5" fill="none" stroke="black" stroke-width="4.5" /><path d="M 695.0 0.0 C 695.0 695.0 5285.0 5285.0 3.236129166746881e-13 5285.0" fill="none" stroke="black" stroke-width="4.5" /><path d="M 695.0 0.0 C 695.0 695.0 1977.5000000000002 1977.5 1.2108695226569455e-13 1977.5" fill="none" stroke="black" stroke-width="4.5" /><path d="M 695.0 0.0 C 695.0 695.0 7940.000000000001 7940.0 4.861847792614992e-13 7940.0" fill="none" stroke="black" stroke-width="4.5" /><path d="M 695.0 0.0 C 695.0 695.0 5915.0 5915.0 3.621892908478297e-13 5915.0" fill="none" stroke="black" stroke-width="4.5" /><path d="M 695.0 0.0 C 695.0 695.0 4047.5000000000005 4047.5 2.478378959774456e-13 4047.5" fill="none" stroke="black" stroke-width="4.5" /><path d="M 695.0 0.0 C 695.0 695.0 1505.0 1504.9999999999998 9.215467163583833e-14 1505.0" fill="none" stroke="black" stroke-width="4.5" /><path d="M 2067.5 0.0 C 2067.5 2067.5 7940.000000000001 7939.999999999999 4.861847792614992e-13 7940.0" fill="none" stroke="black" stroke-width="4.5" /><path d="M 3507.5 0.0 C 3507.5 3507.5 6567.5 6567.5 4.021433926700121e-13 6567.5" fill="none" stroke="black" stroke-width="4.5" /><path d="M 3507.5 0.0 C 3507.5 3507.5 3485.0 3485.0 2.1339470475142629e-13 3485.0" fill="none" stroke="black" stroke-width="4.5" /><path d="M 3507.5 0.0 C 3507.5 3507.5 4655.0 4655.0 2.8503654250154645e-13 4655.0" fill="none" stroke="black" stroke-width="4.5" /><path d="M 3507.5 0.0 C 3507.5 3507.5 7242.5 7242.5 4.434752221412353e-13 7242.5" fill="none" stroke="black" stroke-width="4.5" /><path d="M 3507.5 0.0 C 3507.5 3507.5 5285.0 5285.0 3.236129166746881e-13 5285.0" fill="none" stroke="black" stroke-width="4.5" /><path d="M 3507.5 0.0 C 3507.5 3507.5 1505.0 1505.0 9.215467163583833e-14 1505.0" fill="none" stroke="black" stroke-width="4.5" /><path d="M 3507.5 0.0 C 3507.5 3507.5 1977.5000000000002 1977.5 1.2108695226569455e-13 1977.5" fill="none" stroke="black" stroke-width="4.5" /><path d="M 3507.5 0.0 C 3507.5 3507.5 7940.000000000001 7940.0 4.861847792614992e-13 7940.0" fill="none" stroke="black" stroke-width="4.5" /><path d="M 3507.5 0.0 C 3507.5 3507.5 5915.0 5915.0 3.621892908478297e-13 5915.0" fill="none" stroke="black" stroke-width="4.5" /><path d="M 3507.5 0.0 C 3507.5 3507.5 4047.5000000000005 4047.5 2.478378959774456e-13 4047.5" fill="none" stroke="black" stroke-width="4.5" /><path d="M 2067.5 0.0 C 2067.5 2067.5 6567.5 6567.5 4.021433926700121e-13 6567.5" fill="none" stroke="black" stroke-width="4.5" /><path d="M 2067.5 0.0 C 2067.5 2067.5 222.5 222.5 1.3624195640514304e-14 222.5" fill="none" stroke="black" stroke-width="4.5" /><path d="M 2067.5 0.0 C 2067.5 2067.5 3485.0 3485.0 2.1339470475142629e-13 3485.0" fill="none" stroke="black" stroke-width="4.5" /><path d="M 2067.5 0.0 C 2067.5 2067.5 1055.0 1055.0 6.460011865502288e-14 1055.0" fill="none" stroke="black" stroke-width="4.5" /><path d="M 2067.5 0.0 C 2067.5 2067.5 4655.0 4655.0 2.8503654250154645e-13 4655.0" fill="none" stroke="black" stroke-width="4.5" /><path d="M 2067.5 0.0 C 2067.5 2067.5 7242.5 7242.5 4.434752221412353e-13 7242.5" fill="none" stroke="black" stroke-width="4.5" /><path d="M 2067.5 0.0 C 2067.5 2067.5 627.5 627.5 3.842329332324821e-14 627.5" fill="none" stroke="black" stroke-width="4.5" /><path d="M 2067.5 0.0 C 2067.5 2067.5 5285.0 5285.0 3.236129166746881e-13 5285.0" fill="none" stroke="black" stroke-width="4.5" /><path d="M 2067.5 0.0 C 2067.5 2067.5 1505.0 1505.0 9.215467163583833e-14 1505.0" fill="none" stroke="black" stroke-width="4.5" /><path d="M 2067.5 0.0 C 2067.5 2067.5 1977.5000000000002 1977.5 1.2108695226569455e-13 1977.5" fill="none" stroke="black" stroke-width="4.5" /><path d="M 2067.5 0.0 C 2067.5 2067.5 7940.000000000001 7940.0 4.861847792614992e-13 7940.0" fill="none" stroke="black" stroke-width="4.5" /><path d="M 2067.5 0.0 C 2067.5 2067.5 5915.0 5915.0 3.621892908478297e-13 5915.0" fill="none" stroke="black" stroke-width="4.5" /><path d="M 2067.5 0.0 C 2067.5 2067.5 4047.5000000000005 4047.5 2.478378959774456e-13 4047.5" fill="none" stroke="black" stroke-width="4.5" /><path d="M 6.460011865502288e-14 1055.0 C -1055.0 1055.0000000000002 -1977.4999999999998 1977.5000000000002 -1977.5 2.421739045313891e-13" fill="none" stroke="black" stroke-width="4.5" /><path d="M 2.478378959774456e-13 4047.5 C -4047.4999999999995 4047.5000000000005 -1977.4999999999995 1977.5000000000002 -1977.5 2.421739045313891e-13" fill="none" stroke="black" stroke-width="4.5" /><path d="M 2.8503654250154645e-13 4655.0 C -4655.0 4655.000000000001 -1977.4999999999998 1977.5000000000002 -1977.5 2.421739045313891e-13" fill="none" stroke="black" stroke-width="4.5" /><path d="M 4.021433926700121e-13 6567.5 C -6567.5 6567.500000000001 -1977.4999999999998 1977.5000000000002 -1977.5 2.421739045313891e-13" fill="none" stroke="black" stroke-width="4.5" /><path d="M 1.3624195640514304e-14 222.5 C -222.5 222.50000000000003 -2855.0 2855.0000000000005 -2855.0 3.4963666115656933e-13" fill="none" stroke="black" stroke-width="4.5" /><path d="M 1.3624195640514304e-14 222.5 C -222.5 222.50000000000003 -402.5 402.50000000000006 -402.5 4.9292033665680967e-14" fill="none" stroke="black" stroke-width="4.5" /><path d="M 1.3624195640514304e-14 222.5 C -222.5 222.50000000000003 -1167.5 1167.5000000000002 -1167.5 1.4297751380045347e-13" fill="none" stroke="black" stroke-width="4.5" /><path d="M 4.021433926700121e-13 6567.5 C -6567.5 6567.500000000001 -2854.9999999999995 2855.0000000000005 -2855.0 3.4963666115656933e-13" fill="none" stroke="black" stroke-width="4.5" /><path d="M 2.1339470475142629e-13 3485.0 C -3485.0 3485.0000000000005 -2854.9999999999995 2855.0000000000005 -2855.0 3.4963666115656933e-13" fill="none" stroke="black" stroke-width="4.5" /><path d="M 2.8503654250154645e-13 4655.0 C -4655.0 4655.000000000001 -2854.9999999999995 2855.0000000000005 -2855.0 3.4963666115656933e-13" fill="none" stroke="black" stroke-width="4.5" /><path d="M 9.215467163583833e-14 1505.0 C -1505.0 1505.0000000000002 -2854.9999999999995 2855.0000000000005 -2855.0 3.4963666115656933e-13" fill="none" stroke="black" stroke-width="4.5" /><path d="M 1.2108695226569455e-13 1977.5 C -1977.4999999999998 1977.5000000000002 -2854.9999999999995 2855.0000000000005 -2855.0 3.4963666115656933e-13" fill="none" stroke="black" stroke-width="4.5" /><path d="M 4.861847792614992e-13 7940.0 C -7939.999999999999 7940.000000000001 -2854.9999999999995 2855.0000000000005 -2855.0 3.4963666115656933e-13" fill="none" stroke="black" stroke-width="4.5" /><path d="M 3.621892908478297e-13 5915.0 C -5915.0 5915.000000000001 -2854.9999999999995 2855.0000000000005 -2855.0 3.4963666115656933e-13" fill="none" stroke="black" stroke-width="4.5" /><path d="M 2.478378959774456e-13 4047.5 C -4047.4999999999995 4047.5000000000005 -2854.9999999999995 2855.0000000000005 -2855.0 3.4963666115656933e-13" fill="none" stroke="black" stroke-width="4.5" /><path d="M 4.021433926700121e-13 6567.5 C -6567.5 6567.500000000001 -402.49999999999994 402.50000000000006 -402.5 4.9292033665680967e-14" fill="none" stroke="black" stroke-width="4.5" /><path d="M 2.1339470475142629e-13 3485.0 C -3485.0 3485.0000000000005 -402.49999999999994 402.50000000000006 -402.5 4.9292033665680967e-14" fill="none" stroke="black" stroke-width="4.5" /><path d="M 4.434752221412353e-13 7242.5 C -7242.5 7242.500000000001 -402.49999999999994 402.50000000000006 -402.5 4.9292033665680967e-14" fill="none" stroke="black" stroke-width="4.5" /><path d="M 3.236129166746881e-13 5285.0 C -5285.0 5285.000000000001 -402.49999999999994 402.50000000000006 -402.5 4.9292033665680967e-14" fill="none" stroke="black" stroke-width="4.5" /><path d="M 2.478378959774456e-13 4047.5 C -4047.4999999999995 4047.5000000000005 -1167.4999999999998 1167.5000000000002 -1167.5 1.4297751380045347e-13" fill="none" stroke="black" stroke-width="4.5" /><path d="M 2.1339470475142629e-13 3485.0 C -3485.0 3485.0000000000005 -3777.499999999999 3777.5000000000005 -3777.5 4.626103283779127e-13" fill="none" stroke="black" stroke-width="4.5" /><path d="M 3.236129166746881e-13 5285.0 C -5285.0 5285.000000000001 -3777.499999999999 3777.5000000000005 -3777.5 4.626103283779127e-13" fill="none" stroke="black" stroke-width="4.5" /><path d="M 4.021433926700121e-13 6567.5 C -6567.5 6567.500000000001 -5734.999999999999 5735.000000000001 -5735.0 7.023349393110071e-13" fill="none" stroke="black" stroke-width="4.5" /><path d="M 2.1339470475142629e-13 3485.0 C -3485.0 3485.0000000000005 -5734.999999999999 5735.000000000001 -5735.0 7.023349393110071e-13" fill="none" stroke="black" stroke-width="4.5" /><path d="M 2.8503654250154645e-13 4655.0 C -4655.0 4655.000000000001 -5734.999999999999 5735.000000000001 -5735.0 7.023349393110071e-13" fill="none" stroke="black" stroke-width="4.5" /><path d="M 3.236129166746881e-13 5285.0 C -5285.0 5285.000000000001 -5734.999999999999 5735.000000000001 -5735.0 7.023349393110071e-13" fill="none" stroke="black" stroke-width="4.5" /><path d="M 9.215467163583833e-14 1505.0 C -1505.0 1505.0000000000002 -5734.999999999999 5735.000000000001 -5735.0 7.023349393110071e-13" fill="none" stroke="black" stroke-width="4.5" /><path d="M 1.2108695226569455e-13 1977.5 C -1977.4999999999998 1977.5000000000002 -5734.999999999999 5735.000000000001 -5735.0 7.023349393110071e-13" fill="none" stroke="black" stroke-width="4.5" /><path d="M 4.861847792614992e-13 7940.0 C -7939.999999999999 7940.000000000001 -5734.999999999999 5735.000000000001 -5735.0 7.023349393110071e-13" fill="none" stroke="black" stroke-width="4.5" /><path d="M 3.621892908478297e-13 5915.0 C -5915.0 5915.000000000001 -5734.999999999999 5735.000000000001 -5735.0 7.023349393110071e-13" fill="none" stroke="black" stroke-width="4.5" /><path d="M 2.478378959774456e-13 4047.5 C -4047.4999999999995 4047.5000000000005 -5734.999999999999 5735.000000000001 -5735.0 7.023349393110071e-13" fill="none" stroke="black" stroke-width="4.5" /><path d="M 9.215467163583833e-14 1505.0 C -1505.0 1505.0000000000002 -1167.5 1167.5000000000002 -1167.5 1.4297751380045347e-13" fill="none" stroke="black" stroke-width="4.5" /><path d="M 1.2108695226569455e-13 1977.5 C -1977.4999999999998 1977.5000000000002 -1167.5 1167.5000000000002 -1167.5 1.4297751380045347e-13" fill="none" stroke="black" stroke-width="4.5" /><path d="M 1.5139696054459154e-13 2472.5 C -2472.5 2472.5000000000005 -2855.0 2855.0000000000005 -2855.0 3.4963666115656933e-13" fill="none" stroke="black" stroke-width="4.5" /><path d="M 1.5139696054459154e-13 2472.5 C -2472.5 2472.5000000000005 -4722.5 4722.500000000001 -4722.5 5.783394508973375e-13" fill="none" stroke="black" stroke-width="4.5" /><path d="M 1.5139696054459154e-13 2472.5 C -2472.5 2472.5000000000005 -1977.4999999999998 1977.5000000000002 -1977.5 2.421739045313891e-13" fill="none" stroke="black" stroke-width="4.5" /><path d="M 4.021433926700121e-13 6567.5 C -6567.5 6567.500000000001 -4722.499999999999 4722.500000000001 -4722.5 5.783394508973375e-13" fill="none" stroke="black" stroke-width="4.5" /><path d="M 2.1339470475142629e-13 3485.0 C -3485.0 3485.0000000000005 -4722.499999999999 4722.500000000001 -4722.5 5.783394508973375e-13" fill="none" stroke="black" stroke-width="4.5" /><path d="M 6.460011865502288e-14 1055.0 C -1055.0 1055.0000000000002 -4722.499999999999 4722.500000000001 -4722.5 5.783394508973375e-13" fill="none" stroke="black" stroke-width="4.5" /><path d="M 4.434752221412353e-13 7242.5 C -7242.5 7242.500000000001 -4722.499999999999 4722.500000000001 -4722.5 5.783394508973375e-13" fill="none" stroke="black" stroke-width="4.5" /><path d="M 3.842329332324821e-14 627.5 C -627.5 627.5000000000001 -4722.499999999999 4722.500000000001 -4722.5 5.783394508973375e-13" fill="none" stroke="black" stroke-width="4.5" /><path d="M 3.236129166746881e-13 5285.0 C -5285.0 5285.000000000001 -4722.499999999999 4722.500000000001 -4722.5 5.783394508973375e-13" fill="none" stroke="black" stroke-width="4.5" /><path d="M 4.861847792614992e-13 7940.0 C -7939.999999999999 7940.000000000001 -4722.499999999999 4722.500000000001 -4722.5 5.783394508973375e-13" fill="none" stroke="black" stroke-width="4.5" /><path d="M 3.621892908478297e-13 5915.0 C -5915.0 5915.000000000001 -4722.499999999999 4722.500000000001 -4722.5 5.783394508973375e-13" fill="none" stroke="black" stroke-width="4.5" /><path d="M 2.478378959774456e-13 4047.5 C -4047.4999999999995 4047.5000000000005 -4722.499999999999 4722.500000000001 -4722.5 5.783394508973375e-13" fill="none" stroke="black" stroke-width="4.5" /><path d="M 5.302720640308039e-13 8660.0 C -8660.0 8660.000000000002 -3777.4999999999995 3777.5000000000005 -3777.5 4.626103283779127e-13" fill="none" stroke="black" stroke-width="4.5" /><path d="M 5.302720640308039e-13 8660.0 C -8660.0 8660.000000000002 -402.5 402.50000000000006 -402.5 4.9292033665680967e-14" fill="none" stroke="black" stroke-width="4.5" /><path d="M 5.302720640308039e-13 8660.0 C -8660.0 8660.000000000002 -1167.5 1167.5000000000002 -1167.5 1.4297751380045347e-13" fill="none" stroke="black" stroke-width="4.5" /><path d="M 4.434752221412353e-13 7242.5 C -7242.5 7242.500000000001 -3777.4999999999995 3777.5000000000005 -3777.5 4.626103283779127e-13" fill="none" stroke="black" stroke-width="4.5" /><path d="M 4.434752221412353e-13 7242.5 C -7242.5 7242.500000000001 -402.5 402.50000000000006 -402.5 4.9292033665680967e-14" fill="none" stroke="black" stroke-width="4.5" /><path d="M 4.434752221412353e-13 7242.5 C -7242.5 7242.500000000001 -1977.4999999999998 1977.5000000000002 -1977.5 2.421739045313891e-13" fill="none" stroke="black" stroke-width="4.5" /><path d="M 4.434752221412353e-13 7242.5 C -7242.5 7242.500000000001 -1167.5 1167.5000000000002 -1167.5 1.4297751380045347e-13" fill="none" stroke="black" stroke-width="4.5" /><path d="M 1.8170696882348852e-13 2967.5 C -2967.5 2967.5000000000005 -4722.5 4722.500000000001 -4722.5 5.783394508973375e-13" fill="none" stroke="black" stroke-width="4.5" /><path d="M 1.8170696882348852e-13 2967.5 C -2967.5 2967.5000000000005 -1977.4999999999998 1977.5000000000002 -1977.5 2.421739045313891e-13" fill="none" stroke="black" stroke-width="4.5" /><path d="M 3.842329332324821e-14 627.5 C -627.5 627.5000000000001 -3777.4999999999995 3777.5000000000005 -3777.5 4.626103283779127e-13" fill="none" stroke="black" stroke-width="4.5" /><path d="M 3.842329332324821e-14 627.5 C -627.5 627.5000000000001 -402.5 402.50000000000006 -402.5 4.9292033665680967e-14" fill="none" stroke="black" stroke-width="4.5" /><path d="M -1977.5 2.421739045313891e-13 C -1977.5000000000005 -1977.4999999999998 -2382.5000000000005 -2382.4999999999995 -4.3765814984528534e-13 -2382.5" fill="none" stroke="black" stroke-width="4.5" /><path d="M -5735.0 7.023349393110071e-13 C -5735.000000000001 -5734.999999999999 -3777.500000000001 -3777.499999999999 -6.939154925668689e-13 -3777.5" fill="none" stroke="black" stroke-width="4.5" /><path d="M -1977.5 2.421739045313891e-13 C -1977.5000000000005 -1977.4999999999998 -627.5000000000001 -627.4999999999999 -1.1526987996974462e-13 -627.5" fill="none" stroke="black" stroke-width="4.5" /><path d="M -1977.5 2.421739045313891e-13 C -1977.5000000000005 -1977.4999999999998 -2180.0000000000005 -2179.9999999999995 -4.004595033211845e-13 -2180.0" fill="none" stroke="black" stroke-width="4.5" /><path d="M -1977.5 2.421739045313891e-13 C -1977.5000000000005 -1977.4999999999998 -762.5000000000001 -762.4999999999999 -1.4006897765247852e-13 -762.5" fill="none" stroke="black" stroke-width="4.5" /><path d="M -1977.5 2.421739045313891e-13 C -1977.5000000000005 -1977.4999999999998 -3282.5000000000005 -3282.4999999999995 -6.02985467730178e-13 -3282.5" fill="none" stroke="black" stroke-width="4.5" /><path d="M -2855.0 3.4963666115656933e-13 C -2855.0000000000005 -2854.9999999999995 -2832.5000000000005 -2832.4999999999995 -5.203218087877316e-13 -2832.5" fill="none" stroke="black" stroke-width="4.5" /><path d="M -2855.0 3.4963666115656933e-13 C -2855.0000000000005 -2854.9999999999995 -4092.500000000001 -4092.4999999999995 -7.517800538265814e-13 -4092.5" fill="none" stroke="black" stroke-width="4.5" /><path d="M -2855.0 3.4963666115656933e-13 C -2855.0000000000005 -2854.9999999999995 -1460.0000000000002 -1459.9999999999998 -2.6819764901327033e-13 -1460.0" fill="none" stroke="black" stroke-width="4.5" /><path d="M -402.5 4.9292033665680967e-14 C -402.50000000000006 -402.49999999999994 -4722.500000000001 -4722.499999999999 -8.675091763460063e-13 -4722.5" fill="none" stroke="black" stroke-width="4.5" /><path d="M -1167.5 1.4297751380045347e-13 C -1167.5000000000002 -1167.4999999999998 -2180.0000000000005 -2179.9999999999995 -4.004595033211845e-13 -2180.0" fill="none" stroke="black" stroke-width="4.5" /><path d="M -3777.5 4.626103283779127e-13 C -3777.500000000001 -3777.4999999999995 -5735.000000000001 -5734.999999999998 -1.0535024089665105e-12 -5735.0" fill="none" stroke="black" stroke-width="4.5" /><path d="M -5735.0 7.023349393110071e-13 C -5735.000000000001 -5734.999999999999 -1280.0000000000002 -1279.9999999999998 -2.351321854362918e-13 -1280.0" fill="none" stroke="black" stroke-width="4.5" /><path d="M -3777.5 4.626103283779127e-13 C -3777.500000000001 -3777.4999999999995 -5735.000000000001 -5734.999999999999 -1.0535024089665105e-12 -5735.0" fill="none" stroke="black" stroke-width="4.5" /><path d="M -3777.5 4.626103283779127e-13 C -3777.500000000001 -3777.4999999999995 -1640.0000000000002 -1639.9999999999998 -3.0126311259024887e-13 -1640.0" fill="none" stroke="black" stroke-width="4.5" /><path d="M -3777.5 4.626103283779127e-13 C -3777.500000000001 -3777.4999999999995 -4722.500000000001 -4722.499999999999 -8.675091763460063e-13 -4722.5" fill="none" stroke="black" stroke-width="4.5" /><path d="M -3777.5 4.626103283779127e-13 C -3777.500000000001 -3777.4999999999995 -4092.500000000001 -4092.4999999999995 -7.517800538265814e-13 -4092.5" fill="none" stroke="black" stroke-width="4.5" /><path d="M -5735.0 7.023349393110071e-13 C -5735.000000000001 -5734.999999999999 -2832.5000000000005 -2832.4999999999995 -5.203218087877316e-13 -2832.5" fill="none" stroke="black" stroke-width="4.5" /><path d="M -5735.0 7.023349393110071e-13 C -5735.000000000001 -5734.999999999999 -5375.000000000001 -5374.999999999999 -9.873714818125534e-13 -5375.0" fill="none" stroke="black" stroke-width="4.5" /><path d="M -5735.0 7.023349393110071e-13 C -5735.000000000001 -5734.999999999999 -4092.500000000001 -4092.4999999999995 -7.517800538265814e-13 -4092.5" fill="none" stroke="black" stroke-width="4.5" /><path d="M -5735.0 7.023349393110071e-13 C -5735.000000000001 -5734.999999999999 -6095.000000000001 -6094.999999999999 -1.1196333361204676e-12 -6095.0" fill="none" stroke="black" stroke-width="4.5" /><path d="M -5735.0 7.023349393110071e-13 C -5735.000000000001 -5734.999999999999 -1460.0000000000002 -1459.9999999999998 -2.6819764901327033e-13 -1460.0" fill="none" stroke="black" stroke-width="4.5" /><path d="M -2855.0 3.4963666115656933e-13 C -2855.0000000000005 -2854.9999999999995 -2832.5000000000005 -2832.499999999999 -5.203218087877316e-13 -2832.5" fill="none" stroke="black" stroke-width="4.5" /><path d="M -5735.0 7.023349393110071e-13 C -5735.000000000001 -5734.999999999999 -6455.000000000001 -6454.999999999998 -1.1857642632744246e-12 -6455.0" fill="none" stroke="black" stroke-width="4.5" /><path d="M -4722.5 5.783394508973375e-13 C -4722.500000000001 -4722.499999999999 -2607.5000000000005 -2607.4999999999995 -4.789899793165085e-13 -2607.5" fill="none" stroke="black" stroke-width="4.5" /><path d="M -4722.5 5.783394508973375e-13 C -4722.500000000001 -4722.499999999999 -155.00000000000003 -154.99999999999997 -2.847303808017596e-14 -155.0" fill="none" stroke="black" stroke-width="4.5" /><path d="M -4722.5 5.783394508973375e-13 C -4722.500000000001 -4722.499999999999 -4092.500000000001 -4092.4999999999995 -7.517800538265814e-13 -4092.5" fill="none" stroke="black" stroke-width="4.5" /><path d="M -4722.5 5.783394508973375e-13 C -4722.500000000001 -4722.499999999999 -6095.000000000001 -6094.999999999999 -1.1196333361204676e-12 -6095.0" fill="none" stroke="black" stroke-width="4.5" /><path d="M -4722.5 5.783394508973375e-13 C -4722.500000000001 -4722.499999999999 -4407.500000000001 -4407.499999999999 -8.096446150862938e-13 -4407.5" fill="none" stroke="black" stroke-width="4.5" /><path d="M -1977.5 2.421739045313891e-13 C -1977.5000000000005 -1977.4999999999998 -4407.500000000001 -4407.499999999999 -8.096446150862938e-13 -4407.5" fill="none" stroke="black" stroke-width="4.5" /><path d="M -1167.5 1.4297751380045347e-13 C -1167.5000000000002 -1167.4999999999998 -4722.500000000001 -4722.499999999999 -8.675091763460063e-13 -4722.5" fill="none" stroke="black" stroke-width="4.5" /><path d="M -3777.5 4.626103283779127e-13 C -3777.500000000001 -3777.4999999999995 -3057.5000000000005 -3057.499999999999 -5.616536382589548e-13 -3057.5" fill="none" stroke="black" stroke-width="4.5" /><path d="M -1167.5 1.4297751380045347e-13 C -1167.5000000000002 -1167.4999999999998 -3057.5000000000005 -3057.499999999999 -5.616536382589548e-13 -3057.5" fill="none" stroke="black" stroke-width="4.5" /><g><line stroke="black" stroke-width="2.1" x1="20.0" x2="4250.0" y1="0.0" y2="0.0" /><g><circle cx="695.0" cy="0.0" fill="green" fill-opacity="0.65" r="675.0" stroke="green" stroke-width="0.1" /><text text-anchor="middle" transform="translate(695.0, 0.0) scale(18.5) rotate(-90)">13P1</text></g><g><circle cx="2067.5" cy="0.0" fill="blue" fill-opacity="0.65" r="697.5" stroke="blue" stroke-width="0.1" /><text text-anchor="middle" transform="translate(2067.5, 0.0) scale(18.5) rotate(-90)">16P1</text></g><g><circle cx="3507.5" cy="0.0" fill="blue" fill-opacity="0.65" r="742.5" stroke="blue" stroke-width="0.1" /><text text-anchor="middle" transform="translate(3507.5, 0.0) scale(18.5) rotate(-90)">12P1</text></g></g><g><line stroke="black" stroke-width="2.1" x1="1.2246467991473533e-15" x2="5.523157064154563e-13" y1="20.0" y2="9020.0" /><g><circle cx="1.3624195640514304e-14" cy="222.5" fill="red" fill-opacity="0.65" r="202.5" stroke="red" stroke-width="0.1" /><text text-anchor="middle" transform="translate(1.3624195640514304e-14, 222.5) scale(18.5) rotate(0)">02P1</text></g><g><circle cx="3.842329332324821e-14" cy="627.5" fill="green" fill-opacity="0.65" r="202.5" stroke="green" stroke-width="0.1" /><text text-anchor="middle" transform="translate(3.842329332324821e-14, 627.5) scale(18.5) rotate(0)">07P2</text></g><g><circle cx="6.460011865502288e-14" cy="1055.0" fill="red" fill-opacity="0.65" r="225.0" stroke="red" stroke-width="0.1" /><text text-anchor="middle" transform="translate(6.460011865502288e-14, 1055.0) scale(18.5) rotate(0)">05P1</text></g><g><circle cx="9.215467163583833e-14" cy="1505.0" fill="blue" fill-opacity="0.65" r="225.0" stroke="blue" stroke-width="0.1" /><text text-anchor="middle" transform="translate(9.215467163583833e-14, 1505.0) scale(18.5) rotate(0)">12P4</text></g><g><circle cx="1.2108695226569455e-13" cy="1977.5" fill="blue" fill-opacity="0.65" r="247.5" stroke="blue" stroke-width="0.1" /><text text-anchor="middle" transform="translate(1.2108695226569455e-13, 1977.5) scale(18.5) rotate(0)">13P3</text></g><g><circle cx="1.5139696054459154e-13" cy="2472.5" fill="blue" fill-opacity="0.65" r="247.5" stroke="blue" stroke-width="0.1" /><text text-anchor="middle" transform="translate(1.5139696054459154e-13, 2472.5) scale(18.5) rotate(0)">06P1</text></g><g><circle cx="1.8170696882348852e-13" cy="2967.5" fill="red" fill-opacity="0.65" r="247.5" stroke="red" stroke-width="0.1" /><text text-anchor="middle" transform="translate(1.8170696882348852e-13, 2967.5) scale(18.5) rotate(0)">09P3</text></g><g><circle cx="2.1339470475142629e-13" cy="3485.0" fill="red" fill-opacity="0.65" r="270.0" stroke="red" stroke-width="0.1" /><text text-anchor="middle" transform="translate(2.1339470475142629e-13, 3485.0) scale(18.5) rotate(0)">03P3</text></g><g><circle cx="2.478378959774456e-13" cy="4047.5" fill="purple" fill-opacity="0.65" r="292.5" stroke="purple" stroke-width="0.1" /><text text-anchor="middle" transform="translate(2.478378959774456e-13, 4047.5) scale(18.5) rotate(0)">17P1</text></g><g><circle cx="2.8503654250154645e-13" cy="4655.0" fill="blue" fill-opacity="0.65" r="315.0" stroke="blue" stroke-width="0.1" /><text text-anchor="middle" transform="translate(2.8503654250154645e-13, 4655.0) scale(18.5) rotate(0)">06P2</text></g><g><circle cx="3.236129166746881e-13" cy="5285.0" fill="blue" fill-opacity="0.65" r="315.0" stroke="blue" stroke-width="0.1" /><text text-anchor="middle" transform="translate(3.236129166746881e-13, 5285.0) scale(18.5) rotate(0)">10P4</text></g><g><circle cx="3.621892908478297e-13" cy="5915.0" fill="blue" fill-opacity="0.65" r="315.0" stroke="blue" stroke-width="0.1" /><text text-anchor="middle" transform="translate(3.621892908478297e-13, 5915.0) scale(18.5) rotate(0)">16P2</text></g><g><circle cx="4.021433926700121e-13" cy="6567.5" fill="blue" fill-opacity="0.65" r="337.5" stroke="blue" stroke-width="0.1" /><text text-anchor="middle" transform="translate(4.021433926700121e-13, 6567.5) scale(18.5) rotate(0)">01P3</text></g><g><circle cx="4.434752221412353e-13" cy="7242.5" fill="green" fill-opacity="0.65" r="337.5" stroke="green" stroke-width="0.1" /><text text-anchor="middle" transform="translate(4.434752221412353e-13, 7242.5) scale(18.5) rotate(0)">07P1</text></g><g><circle cx="4.861847792614992e-13" cy="7940.0" fill="green" fill-opacity="0.65" r="360.0" stroke="green" stroke-width="0.1" /><text text-anchor="middle" transform="translate(4.861847792614992e-13, 7940.0) scale(18.5) rotate(0)">14P3</text></g><g><circle cx="5.302720640308039e-13" cy="8660.0" fill="blue" fill-opacity="0.65" r="360.0" stroke="blue" stroke-width="0.1" /><text text-anchor="middle" transform="translate(5.302720640308039e-13, 8660.0) scale(18.5) rotate(0)">10P1</text></g></g><g><line stroke="black" stroke-width="2.1" x1="-20.0" x2="-6275.0" y1="2.4492935982947065e-15" y2="7.684658664649641e-13" /><g><circle cx="-402.5" cy="4.9292033665680967e-14" fill="green" fill-opacity="0.65" r="382.5" stroke="green" stroke-width="0.1" /><text text-anchor="middle" transform="translate(-402.5, 4.9292033665680967e-14) scale(18.5) rotate(90)">11P1</text></g><g><circle cx="-1167.5" cy="1.4297751380045347e-13" fill="green" fill-opacity="0.65" r="382.5" stroke="green" stroke-width="0.1" /><text text-anchor="middle" transform="translate(-1167.5, 1.4297751380045347e-13) scale(18.5) rotate(90)">14P4</text></g><g><circle cx="-1977.5" cy="2.421739045313891e-13" fill="green" fill-opacity="0.65" r="427.5" stroke="green" stroke-width="0.1" /><text text-anchor="middle" transform="translate(-1977.5, 2.421739045313891e-13) scale(18.5) rotate(90)">14P2</text></g><g><circle cx="-2855.0" cy="3.4963666115656933e-13" fill="green" fill-opacity="0.65" r="450.0" stroke="green" stroke-width="0.1" /><text text-anchor="middle" transform="translate(-2855.0, 3.4963666115656933e-13) scale(18.5) rotate(90)">04P3</text></g><g><circle cx="-3777.5" cy="4.626103283779127e-13" fill="red" fill-opacity="0.65" r="472.5" stroke="red" stroke-width="0.1" /><text text-anchor="middle" transform="translate(-3777.5, 4.626103283779127e-13) scale(18.5) rotate(90)">09P1</text></g><g><circle cx="-4722.5" cy="5.783394508973375e-13" fill="green" fill-opacity="0.65" r="472.5" stroke="green" stroke-width="0.1" /><text text-anchor="middle" transform="translate(-4722.5, 5.783394508973375e-13) scale(18.5) rotate(90)">08P1</text></g><g><circle cx="-5735.0" cy="7.023349393110071e-13" fill="green" fill-opacity="0.65" r="540.0" stroke="green" stroke-width="0.1" /><text text-anchor="middle" transform="translate(-5735.0, 7.023349393110071e-13) scale(18.5) rotate(90)">04P1</text></g></g><g><line stroke="black" stroke-width="2.1" x1="-3.673940397442059e-15" x2="-1.2188297268514033e-12" y1="-20.0" y2="-6635.0" /><g><circle cx="-1.1940306291686693e-14" cy="-65.0" fill="red" fill-opacity="0.65" r="45.0" stroke="red" stroke-width="0.1" /><text text-anchor="middle" transform="translate(-1.1940306291686693e-14, -65.0) scale(6.5) rotate(180)">03P4</text></g><g><circle cx="-2.847303808017596e-14" cy="-155.0" fill="blue" fill-opacity="0.65" r="45.0" stroke="blue" stroke-width="0.1" /><text text-anchor="middle" transform="translate(-2.847303808017596e-14, -155.0) scale(6.5) rotate(180)">12P3</text></g><g><circle cx="-4.500576986866523e-14" cy="-245.0" fill="green" fill-opacity="0.65" r="45.0" stroke="green" stroke-width="0.1" /><text text-anchor="middle" transform="translate(-4.500576986866523e-14, -245.0) scale(6.5) rotate(180)">08P2</text></g><g><circle cx="-6.56716846042768e-14" cy="-357.5" fill="red" fill-opacity="0.65" r="67.5" stroke="red" stroke-width="0.1" /><text text-anchor="middle" transform="translate(-6.56716846042768e-14, -357.5) scale(6.5) rotate(180)">09P2</text></g><g><circle cx="-9.047078228701071e-14" cy="-492.5" fill="red" fill-opacity="0.65" r="67.5" stroke="red" stroke-width="0.1" /><text text-anchor="middle" transform="translate(-9.047078228701071e-14, -492.5) scale(6.5) rotate(180)">09P4</text></g><g><circle cx="-1.1526987996974462e-13" cy="-627.5" fill="blue" fill-opacity="0.65" r="67.5" stroke="blue" stroke-width="0.1" /><text text-anchor="middle" transform="translate(-1.1526987996974462e-13, -627.5) scale(6.5) rotate(180)">06P4</text></g><g><circle cx="-1.4006897765247852e-13" cy="-762.5" fill="blue" fill-opacity="0.65" r="67.5" stroke="blue" stroke-width="0.1" /><text text-anchor="middle" transform="translate(-1.4006897765247852e-13, -762.5) scale(6.5) rotate(180)">10P2</text></g><g><circle cx="-1.6900125828233473e-13" cy="-920.0" fill="purple" fill-opacity="0.65" r="90.0" stroke="purple" stroke-width="0.1" /><text text-anchor="middle" transform="translate(-1.6900125828233473e-13, -920.0) scale(6.5) rotate(180)">17P2</text></g><g><circle cx="-2.0206672185931327e-13" cy="-1100.0" fill="blue" fill-opacity="0.65" r="90.0" stroke="blue" stroke-width="0.1" /><text text-anchor="middle" transform="translate(-2.0206672185931327e-13, -1100.0) scale(6.5) rotate(180)">01P2</text></g><g><circle cx="-2.351321854362918e-13" cy="-1280.0" fill="green" fill-opacity="0.65" r="90.0" stroke="green" stroke-width="0.1" /><text text-anchor="middle" transform="translate(-2.351321854362918e-13, -1280.0) scale(6.5) rotate(180)">04P2</text></g><g><circle cx="-2.6819764901327033e-13" cy="-1460.0" fill="blue" fill-opacity="0.65" r="90.0" stroke="blue" stroke-width="0.1" /><text text-anchor="middle" transform="translate(-2.6819764901327033e-13, -1460.0) scale(6.5) rotate(180)">16P3</text></g><g><circle cx="-3.0126311259024887e-13" cy="-1640.0" fill="blue" fill-opacity="0.65" r="90.0" stroke="blue" stroke-width="0.1" /><text text-anchor="middle" transform="translate(-3.0126311259024887e-13, -1640.0) scale(6.5) rotate(180)">10P3</text></g><g><circle cx="-3.343285761672274e-13" cy="-1820.0" fill="blue" fill-opacity="0.65" r="90.0" stroke="blue" stroke-width="0.1" /><text text-anchor="middle" transform="translate(-3.343285761672274e-13, -1820.0) scale(6.5) rotate(180)">01P4</text></g><g><circle cx="-3.6739403974420595e-13" cy="-2000.0" fill="red" fill-opacity="0.65" r="90.0" stroke="red" stroke-width="0.1" /><text text-anchor="middle" transform="translate(-3.6739403974420595e-13, -2000.0) scale(6.5) rotate(180)">15P3</text></g><g><circle cx="-4.004595033211845e-13" cy="-2180.0" fill="green" fill-opacity="0.65" r="90.0" stroke="green" stroke-width="0.1" /><text text-anchor="middle" transform="translate(-4.004595033211845e-13, -2180.0) scale(6.5) rotate(180)">07P3</text></g><g><circle cx="-4.3765814984528534e-13" cy="-2382.5" fill="blue" fill-opacity="0.65" r="112.5" stroke="blue" stroke-width="0.1" /><text text-anchor="middle" transform="translate(-4.3765814984528534e-13, -2382.5) scale(6.5) rotate(180)">01P1</text></g><g><circle cx="-4.789899793165085e-13" cy="-2607.5" fill="red" fill-opacity="0.65" r="112.5" stroke="red" stroke-width="0.1" /><text text-anchor="middle" transform="translate(-4.789899793165085e-13, -2607.5) scale(6.5) rotate(180)">03P2</text></g><g><circle cx="-5.203218087877316e-13" cy="-2832.5" fill="red" fill-opacity="0.65" r="112.5" stroke="red" stroke-width="0.1" /><text text-anchor="middle" transform="translate(-5.203218087877316e-13, -2832.5) scale(6.5) rotate(180)">05P2</text></g><g><circle cx="-5.616536382589548e-13" cy="-3057.5" fill="green" fill-opacity="0.65" r="112.5" stroke="green" stroke-width="0.1" /><text text-anchor="middle" transform="translate(-5.616536382589548e-13, -3057.5) scale(6.5) rotate(180)">11P2</text></g><g><circle cx="-6.02985467730178e-13" cy="-3282.5" fill="green" fill-opacity="0.65" r="112.5" stroke="green" stroke-width="0.1" /><text text-anchor="middle" transform="translate(-6.02985467730178e-13, -3282.5) scale(6.5) rotate(180)">14P6</text></g><g><circle cx="-6.443172972014012e-13" cy="-3507.5" fill="green" fill-opacity="0.65" r="112.5" stroke="green" stroke-width="0.1" /><text text-anchor="middle" transform="translate(-6.443172972014012e-13, -3507.5) scale(6.5) rotate(180)">14P5</text></g><g><circle cx="-6.939154925668689e-13" cy="-3777.5" fill="green" fill-opacity="0.65" r="157.5" stroke="green" stroke-width="0.1" /><text text-anchor="middle" transform="translate(-6.939154925668689e-13, -3777.5) scale(6.5) rotate(180)">04P4</text></g><g><circle cx="-7.517800538265814e-13" cy="-4092.5" fill="green" fill-opacity="0.65" r="157.5" stroke="green" stroke-width="0.1" /><text text-anchor="middle" transform="translate(-7.517800538265814e-13, -4092.5) scale(6.5) rotate(180)">14P1</text></g><g><circle cx="-8.096446150862938e-13" cy="-4407.5" fill="blue" fill-opacity="0.65" r="157.5" stroke="blue" stroke-width="0.1" /><text text-anchor="middle" transform="translate(-8.096446150862938e-13, -4407.5) scale(6.5) rotate(180)">06P3</text></g><g><circle cx="-8.675091763460063e-13" cy="-4722.5" fill="blue" fill-opacity="0.65" r="157.5" stroke="blue" stroke-width="0.1" /><text text-anchor="middle" transform="translate(-8.675091763460063e-13, -4722.5) scale(6.5) rotate(180)">13P2</text></g><g><circle cx="-9.253737376057186e-13" cy="-5037.5" fill="red" fill-opacity="0.65" r="157.5" stroke="red" stroke-width="0.1" /><text text-anchor="middle" transform="translate(-9.253737376057186e-13, -5037.5) scale(6.5) rotate(180)">15P1</text></g><g><circle cx="-9.873714818125534e-13" cy="-5375.0" fill="blue" fill-opacity="0.65" r="180.0" stroke="blue" stroke-width="0.1" /><text text-anchor="middle" transform="translate(-9.873714818125534e-13, -5375.0) scale(6.5) rotate(180)">12P2</text></g><g><circle cx="-1.0535024089665105e-12" cy="-5735.0" fill="red" fill-opacity="0.65" r="180.0" stroke="red" stroke-width="0.1" /><text text-anchor="middle" transform="translate(-1.0535024089665105e-12, -5735.0) scale(6.5) rotate(180)">03P1</text></g><g><circle cx="-1.1196333361204676e-12" cy="-6095.0" fill="red" fill-opacity="0.65" r="180.0" stroke="red" stroke-width="0.1" /><text text-anchor="middle" transform="translate(-1.1196333361204676e-12, -6095.0) scale(6.5) rotate(180)">15P2</text></g><g><circle cx="-1.1857642632744246e-12" cy="-6455.0" fill="green" fill-opacity="0.65" r="180.0" stroke="green" stroke-width="0.1" /><text text-anchor="middle" transform="translate(-1.1857642632744246e-12, -6455.0) scale(6.5) rotate(180)">04P5</text></g></g></svg>